<svg id="Calque_1" data-name="Calque 1" xmlns="http://www.w3.org/2000/svg" viewBox="0 0 370 131"><defs><style>.cls-1{fill:#f1c4b2;}.cls-2{fill:#fbe0dd;}.cls-3{fill:#f5b8b2;}.cls-4,.cls-5{fill:#1d1d1b;}.cls-5{stroke:#1d1d1b;stroke-miterlimit:10;stroke-width:0.25px;}</style></defs><title>Logo couleur</title><g id="Cartouche_1" data-name="Cartouche 1"><path class="cls-1" d="M55.65,92.63h-5a10.7,10.7,0,0,1-10.5-8.85c-.34,0-.69-.11-1-.17a11.69,11.69,0,0,0,11.53,10h4.57l1.94,1.88c0-.44,0-.88.08-1.32Z"/><path class="cls-1" d="M25,65.5a24.62,24.62,0,0,1,5.13-15.13l.09-.1v-.14a24.84,24.84,0,0,1,21.54-21.4l.13,0,.1-.07a24.88,24.88,0,0,1,29.42.13l.1.08.13,0a24.84,24.84,0,0,1,21.47,21.56v.13l.08.11a24.61,24.61,0,0,1,4.91,14.83,25.14,25.14,0,0,1-.7,5.9c.29.22.57.43.85.66a26.11,26.11,0,0,0,.85-6.56,25.59,25.59,0,0,0-5-15.32A25.82,25.82,0,0,0,81.87,27.89a25.88,25.88,0,0,0-30.39-.14A25.84,25.84,0,0,0,29.22,49.87,25.55,25.55,0,0,0,24,65.5a26.13,26.13,0,0,0,.85,6.57l.86-.65A25.37,25.37,0,0,1,25,65.5Z"/><path class="cls-1" d="M83.12,92.28l-5.35,0-2,2.05c0,.45.06.9.07,1.35l2.38-2.41,5,0A11.75,11.75,0,0,0,94.4,83.52l-1,.17A10.76,10.76,0,0,1,83.12,92.28Z"/><path class="cls-1" d="M74.21,95.91a10.66,10.66,0,0,1-15,.17l-.46-.45c-.22.25-.45.49-.68.74l.45.43a11.57,11.57,0,0,0,8.1,3.28h.1a11.56,11.56,0,0,0,8.2-3.46l.15-.15-.69-.73Z"/><path class="cls-1" d="M96.9,57.78A10.64,10.64,0,0,1,100,65.23a10.92,10.92,0,0,1-.19,2.07c.32.12.63.23.94.36A11.52,11.52,0,0,0,97.6,57.07L95.74,55.2c-.14.34-.29.66-.43,1Z"/><path class="cls-1" d="M50.2,38.41h5.21L59,34.94a10.59,10.59,0,0,1,5.64-2.86c.32-.38.66-.76,1-1.12a11.6,11.6,0,0,0-7.35,3.26L55,37.42H50.19a11.7,11.7,0,0,0-10,6.08l1.06.17A10.68,10.68,0,0,1,50.2,38.41Z"/><path class="cls-1" d="M73.81,34.9l3.67,3.53,5.17-.11a10.73,10.73,0,0,1,9.22,5.33l1-.17a11.71,11.71,0,0,0-10.27-6.16l-4.77.1L74.5,34.18A11.62,11.62,0,0,0,67.41,31c.35.38.7.76,1,1.15A10.6,10.6,0,0,1,73.81,34.9Z"/><path class="cls-1" d="M103.06,80.59A24.85,24.85,0,0,1,81.65,102l-.13,0-.11.08a24.88,24.88,0,0,1-29.84,0l-.1-.08-.13,0A25,25,0,0,1,30.22,80.9l0-.14-.08-.1,0,0c-.69-.35-1.36-.73-2-1.14.38.58.77,1.14,1.19,1.69A26,26,0,0,0,51.07,103a25.88,25.88,0,0,0,30.84,0A25.85,25.85,0,0,0,104,80.84c.33-.44.63-.9.93-1.35-.62.37-1.25.73-1.9,1.06Z"/><path class="cls-1" d="M33,65.77a10.57,10.57,0,0,1,3.13-7.64l1.69-1.68c-.14-.33-.3-.65-.44-1l-1.95,2A11.55,11.55,0,0,0,32,65.77a10.37,10.37,0,0,0,.19,1.94c.31-.13.63-.24.95-.36A10.42,10.42,0,0,1,33,65.77Z"/><path class="cls-2" d="M66.24,73.62c0-.25,0-.49,0-.73l-.06-.81-.06-.71c0-.27-.07-.54-.1-.8s-.06-.47-.1-.71-.09-.53-.13-.79-.08-.47-.13-.7-.12-.52-.18-.79-.1-.45-.16-.67-.14-.53-.21-.79-.12-.44-.19-.66-.17-.52-.26-.78-.14-.43-.22-.64-.19-.51-.29-.77-.16-.42-.25-.63l-.34-.76-.27-.61c-.12-.25-.25-.49-.38-.74l-.3-.59c-.13-.25-.28-.49-.42-.74s-.21-.38-.33-.57-.3-.48-.46-.73-.22-.36-.34-.54-.35-.49-.52-.73-.23-.34-.36-.5-.38-.5-.58-.75-.23-.3-.36-.45-.44-.53-.67-.79-.21-.25-.33-.37c-.34-.38-.69-.75-1.06-1.11A30.88,30.88,0,0,0,41,44.13L40,44a33.27,33.27,0,0,0-4.47-.37,31.14,31.14,0,0,0,2.31,11.51c.13.33.28.65.43,1,.43,1,.89,1.88,1.41,2.79a31.25,31.25,0,0,0,5,6.45l.8,0,.69,0c.29,0,.59,0,.88.07l.64,0c.33,0,.65.08,1,.12l.54.07c.46.07.92.16,1.38.25l.5.1,1.08.25.6.17.85.23.65.22.77.26.66.25c.25.09.5.18.74.29L57,68l.73.32.63.32c.24.12.48.23.71.36l.63.35.68.38.61.39.66.41.6.42.65.45.57.44.63.49.55.46.61.53c.18.16.36.32.53.49s.32.28.47.43C66.26,74,66.25,73.81,66.24,73.62Z"/><path class="cls-3" d="M65.36,74.06l-.53-.49-.59-.5-.55-.46-.62-.48c-.19-.14-.37-.29-.57-.42s-.42-.3-.63-.45l-.58-.4-.66-.41-.6-.37-.67-.38-.62-.34L58.05,69l-.62-.3-.71-.32-.64-.27-.73-.28-.65-.25L54,67.34l-.66-.21-.75-.21c-.22-.06-.44-.13-.67-.18s-.51-.12-.77-.18l-.67-.15-.8-.14L49,66.16c-.28,0-.57-.08-.85-.11L47.5,66l-1-.08-.55,0c-.5,0-1,0-1.5,0h-.2a30.84,30.84,0,0,0-8,1,30.13,30.13,0,0,0-3.09,1l-.94.37a31,31,0,0,0-6.49,3.71c-.29.21-.57.44-.85.66-.8.65-1.59,1.32-2.33,2a30.94,30.94,0,0,0,4.88,3.92c.63.42,1.28.8,1.94,1.16a30.64,30.64,0,0,0,6.92,2.81c.89.24,1.79.42,2.7.58.34.06.68.13,1,.17a28.77,28.77,0,0,0,4.15.31L44.9,83l.42-.4.88-.76.28-.25c.39-.32.79-.64,1.2-.94l.38-.27c.28-.21.57-.41.86-.61l.48-.31.79-.5.55-.32c.25-.15.5-.3.76-.44l.58-.3.76-.38.61-.28.76-.34.64-.26.76-.29.66-.23.77-.26.67-.2.78-.22.68-.16c.26-.07.52-.13.79-.18l.7-.14.79-.14.72-.1.78-.11.74-.07.79-.06.75,0,.47,0Z"/><path class="cls-1" d="M64.65,74.93l-.78.06-.72.06-.76.1-.73.1-.74.13-.72.13-.75.18-.69.16c-.47.12-.94.25-1.4.39l-.61.2c-.26.09-.53.17-.79.27s-.42.16-.62.24l-.76.29-.61.27-.73.33-.61.31c-.24.12-.48.23-.71.36s-.4.22-.59.33l-.7.4-.57.35-.69.44-.55.39c-.22.15-.45.3-.66.46l-.54.42-.65.5-.52.44c-.21.17-.42.35-.62.54s-.34.3-.5.46l-.36.34a30.86,30.86,0,0,0,21-8.7l-.63,0Z"/><path class="cls-1" d="M66.78,75.33a30.85,30.85,0,0,0,8,19.94l.53-.54A30.81,30.81,0,0,0,66.78,75.33Z"/><path class="cls-1" d="M75.27,94.73l-.53.54.59.64C75.32,95.52,75.3,95.12,75.27,94.73Z"/><path class="cls-1" d="M66.26,75.33a30.82,30.82,0,0,0-8.54,19.31l.67.64A30.89,30.89,0,0,0,66.26,75.33Z"/><path class="cls-1" d="M57.71,96c.23-.24.46-.49.68-.74l-.67-.64C57.69,95.08,57.71,96,57.71,96Z"/><path class="cls-3" d="M108.08,72.58l-.84-.67a30.81,30.81,0,0,0-6.57-3.75l-.94-.37a29.94,29.94,0,0,0-3-1,30.84,30.84,0,0,0-8-1H88.6c-.5,0-1,0-1.51,0l-.55,0-.94.07L85,66l-.83.1-.68.12-.79.13-.68.15-.76.17-.7.19-.73.2-.69.22-.71.24-.68.25L77,68l-.66.29c-.23.1-.46.19-.69.3l-.65.31-.67.34-.63.35L73,70l-.62.38-.64.4-.6.41-.63.43L70,72l-.62.48-.54.45-.61.51-.52.48-.47.44.5,0,.73,0,.81.07.72.06.8.1.72.11.79.13L73,75q.41.08.78.18l.7.16.77.22.69.2.75.25.68.23.74.29.66.26.73.33.65.29.72.37c.21.1.42.2.62.32l.72.4.6.35c.24.14.48.3.72.45l.56.36.77.55.47.33c.4.3.8.62,1.2.94l.38.33.78.67.48.46.61.58a32,32,0,0,0,4.68-.39l1-.17c.74-.14,1.47-.3,2.19-.5a30.76,30.76,0,0,0,6.94-2.8c.65-.37,1.3-.75,1.93-1.16a30.91,30.91,0,0,0,4.87-3.91A30.22,30.22,0,0,0,108.08,72.58Z"/><path class="cls-2" d="M93.14,43.94l-1,.18a30.57,30.57,0,0,0-9.83,3.62,31.12,31.12,0,0,0-6.38,4.88c-.37.37-.72.74-1.07,1.12l-.34.39-.66.76-.4.51c-.18.23-.36.45-.53.68l-.41.57c-.16.22-.32.44-.47.67l-.38.58-.43.69-.36.61-.39.69-.33.64c-.11.23-.23.46-.35.69l-.3.66c-.1.24-.21.47-.31.71l-.27.67c-.09.24-.19.48-.28.73s-.15.45-.23.67-.17.5-.25.75-.13.46-.19.69-.15.5-.21.75-.12.47-.17.7-.12.51-.17.77-.09.47-.13.71-.1.52-.14.78-.07.47-.1.71-.07.53-.09.8,0,.47-.07.71l-.06.81,0,.72c0,.18,0,.36,0,.54l.66-.61.37-.34c.3-.27.61-.52.92-.77l.24-.21c.35-.28.7-.55,1.06-.81l.14-.11c.39-.28.79-.56,1.2-.83l0,0A31.24,31.24,0,0,1,81,66.18l.11,0q.67-.16,1.35-.3l.52-.09c.32-.05.64-.12,1-.16s.43-.06.64-.08l.86-.11.69,0,.83-.07.72,0,.77,0a31.36,31.36,0,0,0,4.9-6.39,30,30,0,0,0,1.53-3c.15-.33.29-.66.42-1a31.1,31.1,0,0,0,2.2-11.23A32.51,32.51,0,0,0,93.14,43.94Z"/><path class="cls-3" d="M74.41,44.47A30.81,30.81,0,0,0,67.69,32c-.32-.36-.65-.72-1-1.07l-.18-.2-.17.19c-.33.34-.66.69-1,1a30.91,30.91,0,0,0-7.79,20.41l.07.08c.54.54,1.05,1.1,1.54,1.67l.25.29c.48.58.95,1.18,1.39,1.79l.26.37c.43.62.85,1.26,1.24,1.91,0,0,.06.11.1.16.37.63.71,1.27,1,1.92a3.59,3.59,0,0,0,.17.34c.32.67.62,1.35.89,2,.06.14.11.28.16.42.27.71.52,1.42.74,2.15,0,.06,0,.13,0,.2.21.69.38,1.4.54,2.11,0,.12.06.24.08.36.15.73.27,1.47.37,2.22,0,.07,0,.14,0,.21l0-.21c.1-.75.23-1.5.38-2.23a3.59,3.59,0,0,1,.08-.35q.22-1.08.54-2.13c0-.06,0-.13,0-.19.22-.73.47-1.45.74-2.16,0-.14.11-.27.16-.41.28-.7.58-1.38.9-2l.17-.33c.33-.66.67-1.3,1.05-1.94l.09-.15c.39-.66.81-1.29,1.25-1.92l.26-.37c.44-.61.91-1.21,1.39-1.79l.26-.29c.49-.57,1-1.13,1.53-1.67l.08-.09A30.78,30.78,0,0,0,74.41,44.47Z"/><path class="cls-1" d="M87.68,83.22l-.51-.47c-.2-.19-.41-.36-.61-.54L86,81.77l-.64-.5-.54-.41-.67-.47c-.18-.13-.36-.26-.55-.38s-.47-.3-.71-.45l-.54-.34-.75-.43-.53-.3-.82-.41-.5-.25c-.31-.15-.63-.28-1-.42l-.4-.18c-.9-.37-1.83-.71-2.77-1l-.45-.12c-.32-.1-.65-.19-1-.27l-.55-.13-.9-.2c-.2-.05-.4-.08-.6-.12l-.86-.15-.64-.08-.84-.11L69.19,75l-.83-.06-.68,0h-.56A30.81,30.81,0,0,0,88,83.55Z"/><path class="cls-4" d="M126.9,52.44l-.08,1.78,0,0A6.61,6.61,0,0,1,131.51,52,3.31,3.31,0,0,1,135,54.25,5.72,5.72,0,0,1,139.38,52a3.63,3.63,0,0,1,2.71,1,3.86,3.86,0,0,1,1,2.82l0,8.42,1.84.52a1.51,1.51,0,0,1-.13.92c-1.58-.09-2.58-.13-3-.13s-1.49,0-3.09.13a1.88,1.88,0,0,1,0-.92,9.55,9.55,0,0,0,1.73-.52V57a4,4,0,0,0-.54-2.42,2.14,2.14,0,0,0-1.77-.68,4.18,4.18,0,0,0-3,1.71l0,8.63,1.84.52a1.51,1.51,0,0,1-.13.92c-1.45-.09-2.46-.13-3-.13s-1.57,0-3.09.13a1.88,1.88,0,0,1,.05-.92,9.55,9.55,0,0,0,1.73-.52V57a4.13,4.13,0,0,0-.54-2.44,2.06,2.06,0,0,0-1.77-.71A5.45,5.45,0,0,0,127,55.45v8.82l1.76.52a1.51,1.51,0,0,1-.14.92c-1.4-.09-2.37-.13-2.93-.13s-1.7,0-3.2.13a1.88,1.88,0,0,1,0-.92c.84-.21,1.45-.38,1.83-.52V54l-2.17-.21a1.4,1.4,0,0,1,.13-.92c1.34-.23,2.56-.46,3.64-.71A2.51,2.51,0,0,1,126.9,52.44Z"/><path class="cls-4" d="M149.22,59a7,7,0,0,1,1.92-5.19,6.26,6.26,0,0,1,4.69-1.89,6.11,6.11,0,0,1,4.83,2A7.34,7.34,0,0,1,162.44,59a7.05,7.05,0,0,1-1.89,5.22,6.3,6.3,0,0,1-4.72,1.86,6.06,6.06,0,0,1-4.86-2A7.42,7.42,0,0,1,149.22,59Zm10.39.37a9.46,9.46,0,0,0-.89-4.41,3.09,3.09,0,0,0-2.94-1.91,3,3,0,0,0-2.85,1.69,9.36,9.36,0,0,0-.88,4.44,10.75,10.75,0,0,0,.23,2.26A6.17,6.17,0,0,0,153,63.3a3.63,3.63,0,0,0,1.2,1.23,3.16,3.16,0,0,0,1.71.45,3.19,3.19,0,0,0,2.68-1.32A6.92,6.92,0,0,0,159.61,59.39Z"/><path class="cls-4" d="M171.68,52.44l-.08,1.78,0,0A7.13,7.13,0,0,1,176.56,52a3.62,3.62,0,0,1,2.7,1,3.86,3.86,0,0,1,1,2.82l0,8.42,1.84.52a1.51,1.51,0,0,1-.13.92c-1.4-.09-2.4-.13-3-.13s-1.66,0-3.09.13a1.88,1.88,0,0,1,.05-.92,9.55,9.55,0,0,0,1.73-.52V57a4.13,4.13,0,0,0-.54-2.44,2.05,2.05,0,0,0-1.77-.71,4.47,4.47,0,0,0-3.51,1.57v8.82l1.76.52a1.51,1.51,0,0,1-.14.92c-1.4-.09-2.37-.13-2.93-.13s-1.6,0-3.2.13a1.88,1.88,0,0,1,0-.92c.84-.21,1.45-.38,1.83-.52V54L167,53.83a1.4,1.4,0,0,1,.13-.92c1.34-.23,2.56-.46,3.64-.71A2.51,2.51,0,0,1,171.68,52.44Z"/><path class="cls-4" d="M200.14,56.74v7.53l2.54.52a1.44,1.44,0,0,1-.13.92c-1.57-.09-2.81-.13-3.72-.13-.7,0-1.77,0-3.2.13a2,2,0,0,1,.05-.92,8.58,8.58,0,0,0,1.84-.52V54l-2.18-.21a1.47,1.47,0,0,1,.13-.92,33.89,33.89,0,0,0,3.67-.71,2.32,2.32,0,0,1,.87.29v2.39l0,0Q202,52,204,52a3.06,3.06,0,0,1,1.73.39,11.76,11.76,0,0,1-.52,3.94,2.66,2.66,0,0,1-1.18-.11l-.37-2.62Q201.51,53.62,200.14,56.74Z"/><path class="cls-4" d="M222.25,46V64.32a3.44,3.44,0,0,0,1.84.52s0,.08,0,.14a.69.69,0,0,1,0,.13,1.52,1.52,0,0,1-.16.65,11.55,11.55,0,0,1-2.2.19,6.5,6.5,0,0,1-1.5-.16,3.08,3.08,0,0,1-.31-.63,3.38,3.38,0,0,1-.19-.76h-.13a6.35,6.35,0,0,1-2,1.31,5.65,5.65,0,0,1-2.05.39,4.43,4.43,0,0,1-2.12-.52,5.36,5.36,0,0,1-1.7-1.46A7.09,7.09,0,0,1,210.62,62a8.66,8.66,0,0,1-.41-2.69,9.65,9.65,0,0,1,.46-3.06A6.31,6.31,0,0,1,212,53.91a5.78,5.78,0,0,1,2.08-1.45,7.27,7.27,0,0,1,2.74-.5,6.15,6.15,0,0,1,2.81.66h.08v-5l-2.18-.21a1.42,1.42,0,0,1,0-.26,1.52,1.52,0,0,1,.15-.66,29.75,29.75,0,0,0,3.55-.7A3.15,3.15,0,0,1,222.25,46Zm-5.61,18.55a4,4,0,0,0,3-1.39V54.06a3.89,3.89,0,0,0-2.6-.84,3.39,3.39,0,0,0-3,1.52A7.57,7.57,0,0,0,213,59a7.68,7.68,0,0,0,.92,4.16A3.05,3.05,0,0,0,216.64,64.58Z"/><path class="cls-4" d="M234.53,66.37l-5.19-12.6-2-.52a1.51,1.51,0,0,1,.13-.92c1.4.09,2.47.13,3.2.13s1.77,0,3.38-.13a1.88,1.88,0,0,1-.05.92,6.4,6.4,0,0,0-1.81.52l2.26,5.78a22.51,22.51,0,0,1,1.1,3.56h.08c.35-1.36.64-2.35.86-3l2.5-6.38-2.08-.52a1.44,1.44,0,0,1,.14-.92c1.22.09,2.12.13,2.7.13s1.54,0,2.72-.13a1.88,1.88,0,0,1,0,.92,6.15,6.15,0,0,0-1.86.52L235.71,66A3.16,3.16,0,0,1,234.53,66.37Z"/><path class="cls-4" d="M259.19,46v7.61l.13.13a5.81,5.81,0,0,1,3.94-1.57,4.94,4.94,0,0,1,4,1.88,7.76,7.76,0,0,1,1.47,5,6.84,6.84,0,0,1-1.94,5.2,7.13,7.13,0,0,1-5.15,1.85,13.81,13.81,0,0,1-5-1V47.58l-2.18-.21a1.48,1.48,0,0,1,.13-.92,34.76,34.76,0,0,0,3.49-.7A2.75,2.75,0,0,1,259.19,46Zm.13,9.27v9.15a5.63,5.63,0,0,0,2.63.6,3.34,3.34,0,0,0,2.93-1.58A7.79,7.79,0,0,0,266,59.05a6.72,6.72,0,0,0-1-3.94,3,3,0,0,0-2.52-1.36,3.76,3.76,0,0,0-1.82.5A3.86,3.86,0,0,0,259.32,55.3Z"/><path class="cls-4" d="M276.69,58.5V59a6.86,6.86,0,0,0,1.06,4.09,3.4,3.4,0,0,0,2.9,1.47,6.43,6.43,0,0,0,1.89-.22,7.25,7.25,0,0,0,1.78-1,.75.75,0,0,1,.48.63,5.7,5.7,0,0,1-4.23,2,6.39,6.39,0,0,1-4.83-1.89A7.23,7.23,0,0,1,273.91,59a7,7,0,0,1,1.9-5.15A6.3,6.3,0,0,1,280.44,52a4,4,0,0,1,3.4,1.51A6.46,6.46,0,0,1,285,57.6a6,6,0,0,1,0,.69l-.37.28Zm3.72-5.36a3.07,3.07,0,0,0-2.26,1.12,5.77,5.77,0,0,0-1.36,3.16l5.72-.31a7.24,7.24,0,0,0-.46-3A1.65,1.65,0,0,0,280.41,53.14Z"/><path class="cls-4" d="M300,57.26v7a8.81,8.81,0,0,0,1.83.53,1.44,1.44,0,0,1-.13.92,12.08,12.08,0,0,1-2.2.18,6,6,0,0,1-1.5-.16l-.36-1.36h-.11A5.24,5.24,0,0,1,293.58,66a4,4,0,0,1-2.7-.88,3.08,3.08,0,0,1-1-2.46q0-4.32,7.53-4.19l0-2.31c0-2-.75-3-2.3-3.07a7.23,7.23,0,0,0-2.47.39l-.34,2.78a2.6,2.6,0,0,1-1.16.11,12.46,12.46,0,0,1-.52-3.41,11.84,11.84,0,0,1,5.19-1.05,3.82,3.82,0,0,1,3.2,1.15C299.64,53.88,300,55.27,300,57.26Zm-7.48,5.17a2.13,2.13,0,0,0,.57,1.6,2.07,2.07,0,0,0,1.53.55,3.37,3.37,0,0,0,1.56-.44,3.58,3.58,0,0,0,1.25-1V59.55a8.12,8.12,0,0,0-3.81.64A2.38,2.38,0,0,0,292.48,62.43Z"/><path class="cls-4" d="M318.45,64.32a5.72,5.72,0,0,0,1.84.52,1.54,1.54,0,0,1-.13.92A11.86,11.86,0,0,1,318,66a6.36,6.36,0,0,1-1.47-.16l-.45-1.94H316a9.14,9.14,0,0,1-2.45,1.66A6.24,6.24,0,0,1,311,66q-3.54,0-3.54-3.94V54l-1.91-.21a1.4,1.4,0,0,1,.13-.92,34.75,34.75,0,0,0,3.41-.71,2.66,2.66,0,0,1,1,.29v9.18a2.58,2.58,0,0,0,.61,2,2.67,2.67,0,0,0,1.86.5,3.75,3.75,0,0,0,1.73-.48,5.49,5.49,0,0,0,1.55-1.2V54l-1.92-.21a1.47,1.47,0,0,1,.14-.92,34.75,34.75,0,0,0,3.41-.71,2.66,2.66,0,0,1,1,.29Z"/><path class="cls-4" d="M329.23,66a2.8,2.8,0,0,1-2.21-.84,4,4,0,0,1-.75-2.7V54.09h-1.84a1.84,1.84,0,0,1-.13-1.18,2.71,2.71,0,0,0,2.06-.59,6.15,6.15,0,0,0,1.09-2.61h1.39v2.94h2.76a1.53,1.53,0,0,1,0,1.44h-2.76V61.8a6.26,6.26,0,0,0,.28,2.34,1,1,0,0,0,1,.55,3.37,3.37,0,0,0,1.58-.53.94.94,0,0,1,.39.79,3.13,3.13,0,0,1-1.11.72A4.52,4.52,0,0,1,329.23,66Z"/><path class="cls-4" d="M339.23,58.5V59a6.86,6.86,0,0,0,1.06,4.09,3.4,3.4,0,0,0,2.9,1.47,6.43,6.43,0,0,0,1.89-.22,7.25,7.25,0,0,0,1.78-1,.75.75,0,0,1,.48.63,5.7,5.7,0,0,1-4.23,2,6.35,6.35,0,0,1-4.82-1.89A7.19,7.19,0,0,1,336.45,59a7,7,0,0,1,1.9-5.15A6.3,6.3,0,0,1,343,52a4,4,0,0,1,3.4,1.51,6.46,6.46,0,0,1,1.17,4.07,6,6,0,0,1,0,.69l-.37.28ZM343,53.14a3.07,3.07,0,0,0-2.26,1.12,5.77,5.77,0,0,0-1.36,3.16l5.72-.31a7.24,7.24,0,0,0-.46-3A1.65,1.65,0,0,0,343,53.14Zm-1.41-2.8,2.1-4.57a3.51,3.51,0,0,1,2.1,1,29.09,29.09,0,0,1-3.26,4A1.76,1.76,0,0,1,341.54,50.34Z"/><path class="cls-5" d="M128.06,79.82c-.18.51-.37,1-.56,1.41a12,12,0,0,1-.57,1.19,6.29,6.29,0,0,0,.83-.1,4,4,0,0,0,.66-.17,2.56,2.56,0,0,0,.55-.27,2.67,2.67,0,0,0,.45-.38,4.35,4.35,0,0,0,.41-.51c.13-.19.27-.41.41-.65l.25-.44.13.09-.25.44a8.5,8.5,0,0,1-.47.73,4.36,4.36,0,0,1-.48.54,2.6,2.6,0,0,1-.51.38,2.77,2.77,0,0,1-.58.26,4.35,4.35,0,0,1-.69.17c-.25,0-.52.08-.82.11a7.78,7.78,0,0,1-.75,1.12,4.69,4.69,0,0,1-.81.8,3.51,3.51,0,0,1-.89.48,3.21,3.21,0,0,1-1,.15,1.26,1.26,0,0,1-.87-.28.93.93,0,0,1-.3-.78.87.87,0,0,1,.22-.6,1.74,1.74,0,0,1,.7-.46,6.3,6.3,0,0,1,1.23-.33c.5-.09,1.1-.17,1.82-.23.13-.27.26-.57.39-.89s.28-.68.43-1.07c.22-.56.4-1,.56-1.44s.29-.74.41-1,.23-.53.33-.73.2-.38.29-.55a4.72,4.72,0,0,1,.5-.71,2.77,2.77,0,0,1,.63-.55,4.56,4.56,0,0,1-.64.14,4.26,4.26,0,0,1-.58,0,2.83,2.83,0,0,1-.5,0l-.48-.11-.42-.11a1.63,1.63,0,0,0-.35,0,.8.8,0,0,0-.34.07.89.89,0,0,0-.29.22,1,1,0,0,0-.2.35,1.23,1.23,0,0,0-.07.44,1.19,1.19,0,0,0,.09.49l-.17.09a2.3,2.3,0,0,1-.09-.25,1.48,1.48,0,0,1,0-.31,1.37,1.37,0,0,1,.47-1.06,1.73,1.73,0,0,1,.52-.28,2.22,2.22,0,0,1,.65-.09l.29,0a.84.84,0,0,1,.24.06l.24.07.28.06a1.89,1.89,0,0,0,.38.06,3.89,3.89,0,0,0,.53,0l.42,0,.34,0,.32-.08.36-.13v.08l-.27.11a1.91,1.91,0,0,0-.27.16,1.43,1.43,0,0,0-.27.23,1.81,1.81,0,0,0-.26.33,3.86,3.86,0,0,0-.29.51c-.09.19-.2.44-.31.73s-.26.65-.41,1.07S128.27,79.23,128.06,79.82Zm-4.65,5.12a2.7,2.7,0,0,0,.77-.11,2,2,0,0,0,.66-.36,3.27,3.27,0,0,0,.62-.69,8.14,8.14,0,0,0,.62-1.1l-.94.1-.87.13c-.27.06-.51.12-.74.19a2.6,2.6,0,0,0-.58.26,1.08,1.08,0,0,0-.37.33.68.68,0,0,0-.14.42.76.76,0,0,0,.26.62A1.15,1.15,0,0,0,123.41,84.94Z"/><path class="cls-5" d="M132.29,82.81a1.82,1.82,0,0,1-1.32-.45,1.79,1.79,0,0,1-.46-1.34,3.08,3.08,0,0,1,0-.51,3.82,3.82,0,0,1,.11-.55,5,5,0,0,1,.49-1.18,4.26,4.26,0,0,1,.72-.93,3.35,3.35,0,0,1,.87-.61,2.1,2.1,0,0,1,.93-.21,1.14,1.14,0,0,1,.75.22.77.77,0,0,1,.27.63,1.12,1.12,0,0,1-.09.44,1.22,1.22,0,0,1-.27.41,2.49,2.49,0,0,1-.41.37,2.74,2.74,0,0,1-.54.28,3.45,3.45,0,0,1-.81.23,5.28,5.28,0,0,1-1,.08,5.11,5.11,0,0,0-.22.79,4.8,4.8,0,0,0-.08.85,1.37,1.37,0,0,0,.27,1,1.13,1.13,0,0,0,.87.3,2.37,2.37,0,0,0,1-.19,3.59,3.59,0,0,0,.84-.5,4.28,4.28,0,0,0,.7-.71,5.88,5.88,0,0,0,.56-.81l.25-.44.13.09-.25.44a7.22,7.22,0,0,1-.65,1,4.08,4.08,0,0,1-.76.74,3.47,3.47,0,0,1-.88.49A2.52,2.52,0,0,1,132.29,82.81Zm1.52-5.6a1.19,1.19,0,0,0-.61.18,2.38,2.38,0,0,0-.61.48,4.77,4.77,0,0,0-.54.73,5.21,5.21,0,0,0-.44.92,5.33,5.33,0,0,0,.89-.09,3.31,3.31,0,0,0,.65-.21,1.92,1.92,0,0,0,.42-.26,2,2,0,0,0,.37-.35,2.82,2.82,0,0,0,.26-.44,1.44,1.44,0,0,0,.1-.5.65.65,0,0,0,0-.21.5.5,0,0,0-.1-.14.48.48,0,0,0-.16-.08A1.08,1.08,0,0,0,133.81,77.21Z"/><path class="cls-5" d="M140.69,77h.7l-.78,2.09a6.15,6.15,0,0,1,1.22-1.52,1.86,1.86,0,0,1,1.22-.49,1,1,0,0,1,.5.11.89.89,0,0,1,.34.3,1.16,1.16,0,0,1,.19.45,2.44,2.44,0,0,1,.06.55,3.53,3.53,0,0,1-.07.7,5.15,5.15,0,0,1-.19.75,4.93,4.93,0,0,1-.63,1.28,4.73,4.73,0,0,1-.85.92,3.66,3.66,0,0,1-1,.54,2.74,2.74,0,0,1-.94.18,1.22,1.22,0,0,1-.41-.06.62.62,0,0,1-.28-.18,1,1,0,0,1-.17-.32,2.85,2.85,0,0,1-.06-.47l-1.26,3.42h-.7Zm2.2.31a1.16,1.16,0,0,0-.52.14,3,3,0,0,0-.54.39,7.36,7.36,0,0,0-.52.57,7.18,7.18,0,0,0-.48.7,7.63,7.63,0,0,0-.76,1.51,5.46,5.46,0,0,0-.22.69,2.67,2.67,0,0,0-.08.57,1.06,1.06,0,0,0,0,.31.53.53,0,0,0,.12.25.55.55,0,0,0,.2.17.73.73,0,0,0,.3.06,1.57,1.57,0,0,0,.55-.12,2.62,2.62,0,0,0,.68-.43,4.76,4.76,0,0,0,.71-.83A6.13,6.13,0,0,0,143,80c.07-.18.13-.36.19-.53s.1-.35.14-.51.07-.32.09-.46a2.75,2.75,0,0,0,0-.38,1.11,1.11,0,0,0-.14-.58A.52.52,0,0,0,142.89,77.31Z"/><path class="cls-5" d="M148.42,77.53a.2.2,0,0,0-.09-.15.41.41,0,0,0-.28-.08.88.88,0,0,0-.42.11,2.07,2.07,0,0,0-.51.41,6.34,6.34,0,0,0-.64.8c-.23.33-.5.76-.8,1.28l-.24.42-.91,2.47h-.71l2.08-5.61h.7l-.84,2.28a12.37,12.37,0,0,1,.72-1.12,5.45,5.45,0,0,1,.6-.73,1.91,1.91,0,0,1,.52-.39,1.06,1.06,0,0,1,.47-.12.64.64,0,0,1,.67.67.86.86,0,0,1,0,.24.56.56,0,0,1-.09.19.57.57,0,0,1-.14.13.41.41,0,0,1-.19,0,.39.39,0,0,1-.15,0l-.13-.07a.38.38,0,0,1-.09-.13.27.27,0,0,1,0-.16.5.5,0,0,1,0-.16.54.54,0,0,1,.07-.13.4.4,0,0,1,.12-.1.33.33,0,0,1,.14,0h.1l0,0h0S148.42,77.58,148.42,77.53Z"/><path class="cls-5" d="M151.08,82.91a1.82,1.82,0,0,1-1.32-.45,1.74,1.74,0,0,1-.45-1.34,4.63,4.63,0,0,1,0-.51c0-.18.07-.36.12-.55a4.59,4.59,0,0,1,.49-1.18,4.1,4.1,0,0,1,.71-.92,3.39,3.39,0,0,1,.87-.62,2.14,2.14,0,0,1,.94-.21,1.13,1.13,0,0,1,.74.22.75.75,0,0,1,.27.63,1.12,1.12,0,0,1-.09.44,1.54,1.54,0,0,1-.26.42,2.4,2.4,0,0,1-.41.36,2.74,2.74,0,0,1-.54.28,3,3,0,0,1-.82.23,5.24,5.24,0,0,1-1,.08,4.1,4.1,0,0,0-.22.8,3.86,3.86,0,0,0-.09.84,1.32,1.32,0,0,0,.28.95,1.12,1.12,0,0,0,.87.3,2.37,2.37,0,0,0,.95-.19A3.06,3.06,0,0,0,153,82a4.34,4.34,0,0,0,.71-.71,6.17,6.17,0,0,0,.56-.81l.25-.44.12.09-.25.44a7.17,7.17,0,0,1-.64,1,4.4,4.4,0,0,1-.76.74,3.33,3.33,0,0,1-.88.49A2.6,2.6,0,0,1,151.08,82.91Zm1.52-5.59a1.2,1.2,0,0,0-.61.17,2.39,2.39,0,0,0-.6.48,4.22,4.22,0,0,0-.55.73,7.13,7.13,0,0,0-.44.92,4.36,4.36,0,0,0,.89-.09,2.61,2.61,0,0,0,.65-.21,2.09,2.09,0,0,0,.43-.25,2.45,2.45,0,0,0,.36-.36,1.82,1.82,0,0,0,.26-.44,1.24,1.24,0,0,0,.1-.5.46.46,0,0,0,0-.21.36.36,0,0,0-.1-.14.4.4,0,0,0-.16-.08Z"/><path class="cls-5" d="M155.71,77.23h.71l-.76,2a8.81,8.81,0,0,1,.62-.93,4,4,0,0,1,.59-.67,2.32,2.32,0,0,1,.59-.39,1.68,1.68,0,0,1,.63-.12,1.21,1.21,0,0,1,.52.1,1,1,0,0,1,.37.26,1.23,1.23,0,0,1,.23.4,1.45,1.45,0,0,1,.07.47,2.52,2.52,0,0,1-.08.58c0,.21-.12.43-.2.66s-.17.45-.26.67l-.26.66c-.08.22-.15.41-.2.6a1.91,1.91,0,0,0-.08.48.65.65,0,0,0,.18.48.7.7,0,0,0,.55.2,1.32,1.32,0,0,0,.6-.14,2.3,2.3,0,0,0,.58-.41,4.22,4.22,0,0,0,.59-.69,11,11,0,0,0,.62-1l.25-.44.12.09-.25.44c-.22.39-.44.74-.65,1a5.39,5.39,0,0,1-.63.74,2.4,2.4,0,0,1-.64.43,1.65,1.65,0,0,1-.69.15,1.25,1.25,0,0,1-.53-.1,1.08,1.08,0,0,1-.37-.24,1.1,1.1,0,0,1-.23-.37,1.27,1.27,0,0,1-.07-.44,2.43,2.43,0,0,1,.08-.55c0-.2.12-.41.2-.64s.17-.45.26-.67.18-.45.26-.67.15-.42.2-.61a2.2,2.2,0,0,0,.08-.52,1,1,0,0,0,0-.3.58.58,0,0,0-.14-.24.56.56,0,0,0-.23-.16.81.81,0,0,0-.33-.06,1.34,1.34,0,0,0-.58.14,2.41,2.41,0,0,0-.58.43,5.17,5.17,0,0,0-.58.73c-.2.28-.41.62-.63,1l-.25.44-1,2.71h-.7Z"/><path class="cls-5" d="M161.74,80.11a5.55,5.55,0,0,1,.41-.92,5.49,5.49,0,0,1,.52-.75,4.42,4.42,0,0,1,.59-.56,5.19,5.19,0,0,1,.61-.39,3.4,3.4,0,0,1,.6-.22,1.91,1.91,0,0,1,.56-.07,1,1,0,0,1,.45.08.74.74,0,0,1,.29.23,1,1,0,0,1,.16.36,2.35,2.35,0,0,1,0,.47l1.31-3.54h.7l-2.14,5.81c-.05.12-.09.25-.14.38s-.08.25-.11.37a3.15,3.15,0,0,0-.09.36,1.91,1.91,0,0,0,0,.32.77.77,0,0,0,.17.52.67.67,0,0,0,.54.2,1.46,1.46,0,0,0,.61-.13,2.38,2.38,0,0,0,.6-.41,5.26,5.26,0,0,0,.58-.69,10.17,10.17,0,0,0,.62-1l.24-.43.13.09-.25.44c-.23.4-.46.75-.67,1a4.41,4.41,0,0,1-.63.74,2.48,2.48,0,0,1-.64.43,1.82,1.82,0,0,1-.7.14,1.93,1.93,0,0,1-.51-.09,1.08,1.08,0,0,1-.37-.26,1,1,0,0,1-.22-.39,1.59,1.59,0,0,1-.07-.5,2.8,2.8,0,0,1,0-.4,3.69,3.69,0,0,1,.11-.45,6.47,6.47,0,0,1-1.24,1.56,1.93,1.93,0,0,1-1.24.51,1.12,1.12,0,0,1-.5-.11.94.94,0,0,1-.33-.3,1.3,1.3,0,0,1-.19-.45,2.56,2.56,0,0,1-.06-.57,3.53,3.53,0,0,1,.07-.7A5.37,5.37,0,0,1,161.74,80.11Zm1,2.63a1.14,1.14,0,0,0,.52-.13,2.43,2.43,0,0,0,.53-.37,4.42,4.42,0,0,0,.51-.54,6.8,6.8,0,0,0,.47-.68,6.51,6.51,0,0,0,.41-.73,6.62,6.62,0,0,0,.32-.74,4.4,4.4,0,0,0,.22-.71,2.68,2.68,0,0,0,.07-.59,1.21,1.21,0,0,0,0-.41.72.72,0,0,0-.16-.27.64.64,0,0,0-.22-.14.75.75,0,0,0-.26-.05,1.34,1.34,0,0,0-.59.17,2.35,2.35,0,0,0-.66.49,4.65,4.65,0,0,0-.67.84,7,7,0,0,0-.6,1.19,8.53,8.53,0,0,0-.34,1.06,4.25,4.25,0,0,0-.12.82,1,1,0,0,0,.15.58A.53.53,0,0,0,162.74,82.74Z"/><path class="cls-5" d="M168.39,81.63a2.61,2.61,0,0,1,.05-.48,1.9,1.9,0,0,1,.15-.44,2,2,0,0,1,.21-.38,1.18,1.18,0,0,1,.25-.25l2-2.9a1.69,1.69,0,0,1,.19-.61.36.36,0,0,1,.31-.24.42.42,0,0,1,.23.08.22.22,0,0,1,.1.19.33.33,0,0,1,0,.14.79.79,0,0,1-.13.14,1.72,1.72,0,0,0-.19.17.83.83,0,0,0-.12.16.87.87,0,0,0-.07.17,1.23,1.23,0,0,0,0,.19,1.64,1.64,0,0,0,0,.22,2.52,2.52,0,0,0,.06.29c0,.12.06.26.11.44s.12.39.2.66a5.93,5.93,0,0,1,.18.76,4.23,4.23,0,0,1,.06.7,2.28,2.28,0,0,1-1,2,2.25,2.25,0,0,1-.6.3,2.17,2.17,0,0,1-.66.11,1.59,1.59,0,0,1-.56-.11,1.12,1.12,0,0,1-.43-.27,1.34,1.34,0,0,1-.26-.43A1.72,1.72,0,0,1,168.39,81.63ZM171,77.52,169.33,80a.33.33,0,0,1,.24.1.4.4,0,0,1,.09.27.45.45,0,0,1,0,.16.26.26,0,0,1-.06.13.94.94,0,0,1-.1.1.27.27,0,0,1-.12,0,.29.29,0,0,1-.14,0,.29.29,0,0,0-.14,0,.34.34,0,0,0-.19.07.58.58,0,0,0-.15.19,1.24,1.24,0,0,0-.1.29,1.5,1.5,0,0,0,0,.37,1.43,1.43,0,0,0,.07.48,1.07,1.07,0,0,0,.21.36,1.16,1.16,0,0,0,.34.24,1.25,1.25,0,0,0,.45.08,1.39,1.39,0,0,0,1.11-.55,3.09,3.09,0,0,0,.52-2v-.32c0-.1,0-.21,0-.33s0-.24-.05-.37,0-.29-.06-.45-.07-.52-.1-.71a4.54,4.54,0,0,1,0-.46Z"/><path class="cls-5" d="M181.34,77.71a.22.22,0,0,0-.1-.16.52.52,0,0,0-.28-.08.9.9,0,0,0-.41.12A2.07,2.07,0,0,0,180,78a6,6,0,0,0-.64.79q-.36.51-.81,1.29l-.24.42L177.44,83h-.7l2.08-5.6h.7l-.84,2.27c.26-.44.5-.81.71-1.11a6.52,6.52,0,0,1,.6-.73,2,2,0,0,1,.52-.39,1.07,1.07,0,0,1,.48-.12.63.63,0,0,1,.49.19.69.69,0,0,1,.17.48,1,1,0,0,1,0,.24.66.66,0,0,1-.09.19.64.64,0,0,1-.15.13.38.38,0,0,1-.19,0l-.15,0a.46.46,0,0,1-.13-.08.62.62,0,0,1-.09-.12.41.41,0,0,1,0-.16.78.78,0,0,1,0-.16.64.64,0,0,1,.08-.14.48.48,0,0,1,.11-.09.28.28,0,0,1,.15,0h.1l0,0h0S181.34,77.75,181.34,77.71Z"/><path class="cls-5" d="M184,83.09a1.82,1.82,0,0,1-1.32-.45,1.79,1.79,0,0,1-.46-1.34,4.75,4.75,0,0,1,0-.51,3.82,3.82,0,0,1,.11-.55,5,5,0,0,1,.49-1.18,4.26,4.26,0,0,1,.72-.93,3.35,3.35,0,0,1,.87-.61,2.26,2.26,0,0,1,.93-.22,1.2,1.2,0,0,1,.75.23.77.77,0,0,1,.27.63,1.12,1.12,0,0,1-.09.44A1.33,1.33,0,0,1,186,79a2.49,2.49,0,0,1-.41.37,2.74,2.74,0,0,1-.54.28,3.32,3.32,0,0,1-.81.23,6.21,6.21,0,0,1-1,.08,6.55,6.55,0,0,0-.22.79,4.8,4.8,0,0,0-.08.85,1.38,1.38,0,0,0,.27,1,1.17,1.17,0,0,0,.87.3,2.34,2.34,0,0,0,1-.19,3.59,3.59,0,0,0,.84-.5,4.28,4.28,0,0,0,.7-.71,6,6,0,0,0,.56-.82l.25-.43.13.09-.25.44a7.22,7.22,0,0,1-.65,1,4.43,4.43,0,0,1-.76.74,3.47,3.47,0,0,1-.88.49A2.71,2.71,0,0,1,184,83.09Zm1.52-5.6a1.19,1.19,0,0,0-.61.18,2.38,2.38,0,0,0-.61.48,4.77,4.77,0,0,0-.54.73,5.21,5.21,0,0,0-.44.92,5.33,5.33,0,0,0,.89-.09,3.31,3.31,0,0,0,.65-.21,2.4,2.4,0,0,0,.42-.26,1.8,1.8,0,0,0,.37-.36,1.9,1.9,0,0,0,.26-.43,1.44,1.44,0,0,0,.1-.5.65.65,0,0,0,0-.21.3.3,0,0,0-.1-.14.48.48,0,0,0-.16-.08A.58.58,0,0,0,185.52,77.49Z"/><path class="cls-5" d="M188.63,77.41h.7l-.75,2c.21-.36.42-.67.61-.94a5.69,5.69,0,0,1,.59-.66,2.51,2.51,0,0,1,.59-.39,1.69,1.69,0,0,1,.63-.13,1.43,1.43,0,0,1,.53.11,1.08,1.08,0,0,1,.37.26,1.16,1.16,0,0,1,.22.39,1.5,1.5,0,0,1,.08.47,2.6,2.6,0,0,1-.08.59c-.06.21-.12.43-.2.65s-.17.45-.26.68-.18.45-.26.66a6,6,0,0,0-.2.6,1.5,1.5,0,0,0-.08.48.67.67,0,0,0,.17.48.72.72,0,0,0,.56.2,1.38,1.38,0,0,0,.59-.14,2.34,2.34,0,0,0,.59-.41,5.39,5.39,0,0,0,.59-.69,11.34,11.34,0,0,0,.61-1l.25-.43.13.09-.25.43q-.35.6-.66,1a4.74,4.74,0,0,1-.63.73,2.1,2.1,0,0,1-.64.44,1.5,1.5,0,0,1-.69.14,1.38,1.38,0,0,1-.52-.09,1,1,0,0,1-.38-.25,1,1,0,0,1-.22-.36,1.27,1.27,0,0,1-.08-.44,2,2,0,0,1,.09-.55,6.61,6.61,0,0,1,.2-.64c.08-.22.16-.45.25-.68s.18-.45.26-.66a6.31,6.31,0,0,0,.2-.62,2.1,2.1,0,0,0,.09-.52,1,1,0,0,0,0-.3.48.48,0,0,0-.13-.23.63.63,0,0,0-.23-.16.81.81,0,0,0-.33-.06,1.38,1.38,0,0,0-.59.14,2.37,2.37,0,0,0-.57.43,5.84,5.84,0,0,0-.59.72c-.2.29-.41.63-.63,1l-.25.44-1,2.71h-.7Z"/><path class="cls-5" d="M194.66,80.29a4.93,4.93,0,0,1,.41-.93,5.12,5.12,0,0,1,.52-.74,3.81,3.81,0,0,1,.58-.56,3.53,3.53,0,0,1,.62-.39,3,3,0,0,1,.6-.23,2.86,2.86,0,0,1,.56-.07,1,1,0,0,1,.45.09.73.73,0,0,1,.29.23,1.19,1.19,0,0,1,.16.36,2.29,2.29,0,0,1,0,.47L200.2,75h.7l-2.15,5.8c0,.13-.09.25-.13.38a3.3,3.3,0,0,0-.12.38c0,.12-.06.24-.08.36a1.82,1.82,0,0,0,0,.32.68.68,0,0,0,.17.52.66.66,0,0,0,.53.2,1.68,1.68,0,0,0,.62-.13,2.17,2.17,0,0,0,.59-.41,4.81,4.81,0,0,0,.59-.7,8.92,8.92,0,0,0,.61-1l.25-.43.12.09-.24.43c-.24.41-.46.76-.67,1.06a4.31,4.31,0,0,1-.63.73,2.45,2.45,0,0,1-.64.44,1.68,1.68,0,0,1-.7.13,1.33,1.33,0,0,1-.51-.09,1,1,0,0,1-.37-.25.93.93,0,0,1-.22-.39,1.59,1.59,0,0,1-.08-.5,2.85,2.85,0,0,1,0-.4,3.63,3.63,0,0,1,.1-.45,6.43,6.43,0,0,1-1.23,1.55,1.83,1.83,0,0,1-1.24.51.93.93,0,0,1-.84-.4,1.48,1.48,0,0,1-.19-.46,2.47,2.47,0,0,1-.06-.56,4.37,4.37,0,0,1,.07-.7A5.08,5.08,0,0,1,194.66,80.29Zm1,2.63a1.25,1.25,0,0,0,.52-.13,2.48,2.48,0,0,0,.54-.37,5.52,5.52,0,0,0,.51-.55c.16-.21.32-.43.47-.67s.28-.48.41-.73.23-.5.32-.75a5.47,5.47,0,0,0,.21-.7,2.76,2.76,0,0,0,.08-.6,1.16,1.16,0,0,0-.06-.4.87.87,0,0,0-.15-.27.48.48,0,0,0-.22-.14.8.8,0,0,0-.26,0,1.42,1.42,0,0,0-.59.16,2.59,2.59,0,0,0-.67.5,5.12,5.12,0,0,0-.66.84,6.28,6.28,0,0,0-.6,1.19,7.13,7.13,0,0,0-.34,1.06,3.52,3.52,0,0,0-.12.82,1,1,0,0,0,.15.58A.52.52,0,0,0,195.65,82.92Z"/><path class="cls-5" d="M203.55,83.2a1.83,1.83,0,0,1-1.32-.46,1.76,1.76,0,0,1-.46-1.33,3.2,3.2,0,0,1,0-.52,4.11,4.11,0,0,1,.11-.55,5.07,5.07,0,0,1,.49-1.17,4.26,4.26,0,0,1,.72-.93,3.35,3.35,0,0,1,.87-.61,2.11,2.11,0,0,1,.93-.22,1.14,1.14,0,0,1,.75.23.77.77,0,0,1,.27.62,1,1,0,0,1-.1.45,1.41,1.41,0,0,1-.26.41,2.07,2.07,0,0,1-.41.36,2.77,2.77,0,0,1-.54.29,3.93,3.93,0,0,1-.82.23,6.08,6.08,0,0,1-1,.07,5.24,5.24,0,0,0-.22.8,4.78,4.78,0,0,0-.08.84,1.36,1.36,0,0,0,.27,1,1.15,1.15,0,0,0,.87.29,2.37,2.37,0,0,0,.95-.19,3.55,3.55,0,0,0,.84-.49,5.22,5.22,0,0,0,.7-.71,6,6,0,0,0,.56-.82l.25-.43.13.09-.25.43a6.61,6.61,0,0,1-.65,1,4.48,4.48,0,0,1-.76.75,3.64,3.64,0,0,1-.88.49A2.94,2.94,0,0,1,203.55,83.2Zm1.51-5.6a1.27,1.27,0,0,0-.6.17,2.68,2.68,0,0,0-.61.49,4.22,4.22,0,0,0-.54.72,5.21,5.21,0,0,0-.44.92,3.87,3.87,0,0,0,.89-.09,3,3,0,0,0,.64-.2,2.14,2.14,0,0,0,.43-.26,2.53,2.53,0,0,0,.37-.36,2.43,2.43,0,0,0,.26-.44,1.64,1.64,0,0,0,.1-.49.67.67,0,0,0,0-.22.49.49,0,0,0-.11-.14.35.35,0,0,0-.15-.07A.64.64,0,0,0,205.06,77.6Z"/><path class="cls-5" d="M212.92,77.68l-4.46,4.58.21-.07a1.1,1.1,0,0,1,.26,0,1.82,1.82,0,0,1,.45,0l.47.12c.16,0,.32.1.47.15l.43.15.38.13a2,2,0,0,0,.29,0l.22,0a.84.84,0,0,0,.2,0,.58.58,0,0,0,.19-.1l.21-.15a4.78,4.78,0,0,0,.59-.69c.21-.29.44-.62.68-1l.26-.44.12.09-.26.44c-.25.42-.48.77-.69,1.07a5.19,5.19,0,0,1-.61.72A2.2,2.2,0,0,1,212,83a1.41,1.41,0,0,1-.37.18,2.23,2.23,0,0,1-.39.09l-.44,0a1.73,1.73,0,0,1-.38,0,3.31,3.31,0,0,1-.42-.12,3.52,3.52,0,0,1-.42-.15l-.42-.15a3.59,3.59,0,0,0-.41-.11,1.22,1.22,0,0,0-.37,0,.56.56,0,0,0-.2,0,.76.76,0,0,0-.16.11l-.18.19-.29.28-.11-.18,4.8-5a3.74,3.74,0,0,1-.59.31,1.76,1.76,0,0,1-.59.11,1.41,1.41,0,0,1-.35,0l-.36-.11-.35-.15-.31-.15-.27-.12a.9.9,0,0,0-.19,0,.48.48,0,0,0-.29.15,2.89,2.89,0,0,0-.4.43c-.15.19-.31.42-.49.69s-.36.59-.56.94l-.26.44-.12-.09.26-.44c.25-.46.49-.85.69-1.17a5.83,5.83,0,0,1,.57-.79,2.12,2.12,0,0,1,.52-.46,1.15,1.15,0,0,1,.55-.14,1.44,1.44,0,0,1,.5.1l.48.22.47.21a1.34,1.34,0,0,0,.49.1,1.39,1.39,0,0,0,.53-.12,2.4,2.4,0,0,0,.65-.44Z"/><path class="cls-5" d="M214.89,79.91l3,0-.17.44-3,0Z"/><path class="cls-5" d="M219.58,80.9a8.24,8.24,0,0,0-.28.85,2.35,2.35,0,0,0-.09.58.74.74,0,0,0,.18.53.65.65,0,0,0,.52.19,1.38,1.38,0,0,0,.66-.17,2.93,2.93,0,0,0,.66-.46,4.11,4.11,0,0,0,.59-.7,5.27,5.27,0,0,0,.49-.87,5.67,5.67,0,0,0,.29-.91,4.35,4.35,0,0,0,.11-1,3.09,3.09,0,0,0,0-.58,1.56,1.56,0,0,0-.1-.34,1.83,1.83,0,0,0-.1-.2.24.24,0,0,1-.05-.13.19.19,0,0,1,.08-.15.22.22,0,0,1,.17-.07.22.22,0,0,1,.17.09.55.55,0,0,1,.12.23,1.54,1.54,0,0,1,.07.35,2.82,2.82,0,0,1,0,.42,3.45,3.45,0,0,1-.05.64,6,6,0,0,1-.12.61c0,.2-.11.39-.17.58l-.21.51a6.74,6.74,0,0,1-.55,1,4.38,4.38,0,0,1-.67.74,2.75,2.75,0,0,1-.74.48,1.73,1.73,0,0,1-.76.18,1.41,1.41,0,0,1-.48-.09,1.16,1.16,0,0,1-.36-.25,1.09,1.09,0,0,1-.23-.39,1.7,1.7,0,0,1-.07-.51,2.78,2.78,0,0,1,.06-.54,5.83,5.83,0,0,1,.17-.62l1.23-3.31h.7Z"/><path class="cls-5" d="M224.54,80.47A4.52,4.52,0,0,1,225,79.3a4.66,4.66,0,0,1,.74-.94,3.38,3.38,0,0,1,.91-.61,2.29,2.29,0,0,1,1-.22,1.54,1.54,0,0,1,.67.14,1.11,1.11,0,0,1,.43.37,1.46,1.46,0,0,1,.24.52,3.21,3.21,0,0,1,.06.63,3.42,3.42,0,0,1-.07.71,6.75,6.75,0,0,1-.18.68l-.15.39c-.06.13-.12.25-.19.37a.62.62,0,0,0,.2.25.52.52,0,0,0,.35.1,1,1,0,0,0,.59-.18,1.42,1.42,0,0,0,.31-.25,2,2,0,0,0,.28-.38l.24-.44.13.09-.25.44a2.09,2.09,0,0,1-.37.5,1.41,1.41,0,0,1-.36.27,1,1,0,0,1-.33.12l-.26,0a1.24,1.24,0,0,1-.4-.07,1,1,0,0,1-.31-.16,4.66,4.66,0,0,1-.53.69,3.3,3.3,0,0,1-.61.52,2.27,2.27,0,0,1-.66.33,2,2,0,0,1-.67.12,1.26,1.26,0,0,1-.6-.13,1.2,1.2,0,0,1-.46-.35,1.67,1.67,0,0,1-.28-.55,2.91,2.91,0,0,1-.09-.75,3.23,3.23,0,0,1,0-.53A3.45,3.45,0,0,1,224.54,80.47Zm1.35,2.61a1.45,1.45,0,0,0,.56-.12,2,2,0,0,0,.55-.36,3.48,3.48,0,0,0,.53-.55,5.37,5.37,0,0,0,.47-.73,2.09,2.09,0,0,1-.08-.23,1.94,1.94,0,0,1,0-.24.84.84,0,0,1,0-.27.8.8,0,0,1,.11-.25,1,1,0,0,1,.2-.21,1.32,1.32,0,0,1,.29-.15,4.88,4.88,0,0,0,.12-.55,3.66,3.66,0,0,0,.05-.57,2,2,0,0,0,0-.43,1.18,1.18,0,0,0-.14-.36.73.73,0,0,0-.28-.24.78.78,0,0,0-.43-.1,1.54,1.54,0,0,0-.73.2,2.65,2.65,0,0,0-.69.55,4,4,0,0,0-.59.85,5.75,5.75,0,0,0-.45,1.1,7.16,7.16,0,0,0-.19.8,5.12,5.12,0,0,0-.06.74C225.1,82.71,225.36,83.08,225.89,83.08Z"/><path class="cls-5" d="M231.67,77.64h.7L231.14,81l-.13.37a3.3,3.3,0,0,0-.12.38c0,.13-.06.25-.08.36a1.91,1.91,0,0,0,0,.32.67.67,0,0,0,.17.52.63.63,0,0,0,.53.2,1.5,1.5,0,0,0,.62-.13,2.17,2.17,0,0,0,.59-.41,5.28,5.28,0,0,0,.59-.69,11.34,11.34,0,0,0,.61-1l.24-.42,1.05-2.82h.7L234.65,81l-.13.37a3.3,3.3,0,0,0-.12.38c0,.13-.06.25-.09.36a1.91,1.91,0,0,0,0,.32.77.77,0,0,0,.17.52.7.7,0,0,0,.54.2,1.42,1.42,0,0,0,.61-.13,2.17,2.17,0,0,0,.59-.41,4.26,4.26,0,0,0,.59-.7,11,11,0,0,0,.62-1l.25-.44.12.09-.24.44a10.39,10.39,0,0,1-.67,1.06,4.31,4.31,0,0,1-.63.73,2.09,2.09,0,0,1-.65.43,1.82,1.82,0,0,1-.7.14,1.36,1.36,0,0,1-.51-.09A1.16,1.16,0,0,1,234,83a1.09,1.09,0,0,1-.23-.39,1.66,1.66,0,0,1-.07-.51,1.94,1.94,0,0,1,0-.4,2.33,2.33,0,0,1,.1-.44c-.22.35-.42.66-.62.92a4.14,4.14,0,0,1-.59.64,2.12,2.12,0,0,1-.61.38,1.75,1.75,0,0,1-.65.12,1.33,1.33,0,0,1-.51-.09,1.1,1.1,0,0,1-.37-.25,1.07,1.07,0,0,1-.22-.39,1.6,1.6,0,0,1-.08-.51,2.86,2.86,0,0,1,.07-.54,5.68,5.68,0,0,1,.17-.61Z"/><path class="cls-5" d="M237.2,82a2.42,2.42,0,0,1,.06-.48,2.15,2.15,0,0,1,.14-.45,1.88,1.88,0,0,1,.21-.37,1.07,1.07,0,0,1,.26-.26l2-2.9a1.76,1.76,0,0,1,.19-.61c.08-.16.18-.24.3-.23a.36.36,0,0,1,.24.07.26.26,0,0,1,.1.19.33.33,0,0,1,0,.14.61.61,0,0,1-.14.14l-.18.17a.83.83,0,0,0-.12.16.51.51,0,0,0-.07.17,1.23,1.23,0,0,0,0,.2,1.49,1.49,0,0,0,0,.21c0,.08,0,.18.05.29s.07.27.12.44l.2.66a6.35,6.35,0,0,1,.18.76,3.35,3.35,0,0,1,0,.7,2.25,2.25,0,0,1-.95,2,2.31,2.31,0,0,1-.61.3,2.06,2.06,0,0,1-.65.11,1.7,1.7,0,0,1-.57-.1,1.34,1.34,0,0,1-.42-.28,1.24,1.24,0,0,1-.26-.43A1.48,1.48,0,0,1,237.2,82Zm2.65-4.12-1.7,2.46a.33.33,0,0,1,.24.1.4.4,0,0,1,.09.27.41.41,0,0,1,0,.16.37.37,0,0,1-.07.14.29.29,0,0,1-.1.09.2.2,0,0,1-.11,0,.29.29,0,0,1-.14,0,.32.32,0,0,0-.14,0,.27.27,0,0,0-.19.06.58.58,0,0,0-.15.19.88.88,0,0,0-.1.3,1.37,1.37,0,0,0,0,.36,1.43,1.43,0,0,0,.07.48,1.12,1.12,0,0,0,.21.37.93.93,0,0,0,.34.23,1.23,1.23,0,0,0,.44.08,1.31,1.31,0,0,0,.62-.14,1.39,1.39,0,0,0,.5-.41,3.15,3.15,0,0,0,.52-2v-.32q0-.15,0-.33c0-.11,0-.24,0-.37s0-.28-.06-.45-.08-.52-.1-.71a4.54,4.54,0,0,1,0-.46Z"/><path class="cls-5" d="M246.59,80.57a4.93,4.93,0,0,1,.41-.93,5.12,5.12,0,0,1,.52-.74,3.81,3.81,0,0,1,.58-.56,3.87,3.87,0,0,1,.61-.39,3.22,3.22,0,0,1,.61-.22,2.29,2.29,0,0,1,.56-.08.93.93,0,0,1,.44.09.76.76,0,0,1,.3.23,1,1,0,0,1,.15.36,2.26,2.26,0,0,1,0,.47l.39-1h.7l-1.23,3.32c0,.12-.09.24-.13.37a3.3,3.3,0,0,0-.12.38,2.33,2.33,0,0,0-.08.36,1.22,1.22,0,0,0,0,.32.77.77,0,0,0,.17.52.7.7,0,0,0,.54.2,1.5,1.5,0,0,0,.62-.13,2.34,2.34,0,0,0,.59-.41,4.81,4.81,0,0,0,.59-.7,10,10,0,0,0,.61-1l.24-.43.13.09-.25.43c-.23.41-.45.77-.66,1.07a5.37,5.37,0,0,1-.64.73,2.25,2.25,0,0,1-.64.43,1.65,1.65,0,0,1-.7.13,1.28,1.28,0,0,1-.5-.09,1,1,0,0,1-.37-.25.94.94,0,0,1-.23-.39,2,2,0,0,1-.07-.5,1.87,1.87,0,0,1,0-.4,2.42,2.42,0,0,1,.1-.45,6.2,6.2,0,0,1-1.24,1.55,1.79,1.79,0,0,1-1.23.51.93.93,0,0,1-.84-.4,1.27,1.27,0,0,1-.19-.46,2.47,2.47,0,0,1-.06-.56,4.37,4.37,0,0,1,.07-.7A5.08,5.08,0,0,1,246.59,80.57Zm1,2.63a1.14,1.14,0,0,0,.52-.13,2.22,2.22,0,0,0,.53-.37,3.86,3.86,0,0,0,.51-.55,6.72,6.72,0,0,0,.48-.67c.14-.24.28-.48.4-.73a6.12,6.12,0,0,0,.33-.75,5,5,0,0,0,.21-.7,2.76,2.76,0,0,0,.08-.6,1.16,1.16,0,0,0-.06-.4.87.87,0,0,0-.15-.27.55.55,0,0,0-.23-.14.75.75,0,0,0-.26,0,1.5,1.5,0,0,0-.59.16,3,3,0,0,0-.66.5,4.64,4.64,0,0,0-.66.84,6.92,6.92,0,0,0-.61,1.19,8.53,8.53,0,0,0-.34,1.06,4,4,0,0,0-.11.81,1.12,1.12,0,0,0,.14.59A.54.54,0,0,0,247.58,83.2Z"/><path class="cls-5" d="M254.38,81.08c-.13.35-.22.63-.28.86a2.35,2.35,0,0,0-.09.58.74.74,0,0,0,.18.53.7.7,0,0,0,.52.19,1.47,1.47,0,0,0,.66-.17,2.54,2.54,0,0,0,.66-.46,4.11,4.11,0,0,0,.59-.7,5.27,5.27,0,0,0,.49-.87,5.06,5.06,0,0,0,.29-.91,4.35,4.35,0,0,0,.11-1,3.09,3.09,0,0,0,0-.58,1.56,1.56,0,0,0-.1-.34,1.83,1.83,0,0,0-.1-.2.27.27,0,0,1,0-.14.22.22,0,0,1,.08-.15.25.25,0,0,1,.17-.06.21.21,0,0,1,.17.08.67.67,0,0,1,.12.24,1.57,1.57,0,0,1,.07.34,2,2,0,0,1,0,.43,4.68,4.68,0,0,1,0,.64c0,.21-.08.41-.13.61a4.74,4.74,0,0,1-.17.57c-.07.19-.14.36-.21.52a6.74,6.74,0,0,1-.55,1,4.81,4.81,0,0,1-.67.74,2.71,2.71,0,0,1-.73.48,1.66,1.66,0,0,1-.77.17,1.21,1.21,0,0,1-.48-.09,1,1,0,0,1-.36-.25.94.94,0,0,1-.23-.39,1.59,1.59,0,0,1-.07-.5,2.78,2.78,0,0,1,.06-.54,4.23,4.23,0,0,1,.18-.62l1.22-3.31h.7Z"/><path class="cls-5" d="M261,83.51a1.83,1.83,0,0,1-1.31-.46,1.72,1.72,0,0,1-.46-1.33,3.08,3.08,0,0,1,0-.51,4,4,0,0,1,.11-.56,5.07,5.07,0,0,1,.49-1.17,4.26,4.26,0,0,1,.72-.93,3.35,3.35,0,0,1,.87-.61,2.11,2.11,0,0,1,.93-.22,1.14,1.14,0,0,1,.75.23.77.77,0,0,1,.27.62,1.37,1.37,0,0,1-.36.86,2.07,2.07,0,0,1-.41.36,2.77,2.77,0,0,1-.54.29,3.93,3.93,0,0,1-.82.23,6.08,6.08,0,0,1-1,.07,5.24,5.24,0,0,0-.22.8A4.78,4.78,0,0,0,260,82a1.31,1.31,0,0,0,.27,1,1.15,1.15,0,0,0,.87.29,2.55,2.55,0,0,0,1-.18,4,4,0,0,0,.84-.5,5.22,5.22,0,0,0,.7-.71,7,7,0,0,0,.56-.82l.25-.43.13.09-.25.43a7.54,7.54,0,0,1-.65.95,4.48,4.48,0,0,1-.76.75,3.64,3.64,0,0,1-.88.49A3,3,0,0,1,261,83.51Zm1.52-5.6a1.31,1.31,0,0,0-.61.17,2.87,2.87,0,0,0-.6.49,4.22,4.22,0,0,0-.54.72,5.21,5.21,0,0,0-.44.92,3.87,3.87,0,0,0,.89-.09,3.22,3.22,0,0,0,.64-.2,2.14,2.14,0,0,0,.43-.26,2.53,2.53,0,0,0,.37-.36,1.92,1.92,0,0,0,.25-.44,1.19,1.19,0,0,0,.1-.49.69.69,0,0,0,0-.22.49.49,0,0,0-.11-.14.35.35,0,0,0-.15-.07A.64.64,0,0,0,262.5,77.91Z"/><path class="cls-5" d="M268.15,79a.3.3,0,0,1-.25-.1.33.33,0,0,1-.09-.25.32.32,0,0,1,.08-.24.24.24,0,0,1,.21-.1l.09,0h.06s0,0,0-.07a.21.21,0,0,0-.05-.12.34.34,0,0,0-.13-.1.48.48,0,0,0-.18-.07.83.83,0,0,0-.22,0,1.14,1.14,0,0,0-.6.17,2.21,2.21,0,0,0-.58.46,4.86,4.86,0,0,0-.54.69,6.2,6.2,0,0,0-.44.85,5.9,5.9,0,0,0-.29.93,4.58,4.58,0,0,0-.12.95,2.15,2.15,0,0,0,.07.6.93.93,0,0,0,.19.4.77.77,0,0,0,.35.23,1.52,1.52,0,0,0,.51.08,2.54,2.54,0,0,0,.86-.14,3.17,3.17,0,0,0,.81-.43,3.45,3.45,0,0,0,.75-.69,5.31,5.31,0,0,0,.66-1l.25-.44.13.1-.25.43A5.35,5.35,0,0,1,268,83a3,3,0,0,1-1.79.58,1.76,1.76,0,0,1-1.32-.47,1.79,1.79,0,0,1-.44-1.32,4.55,4.55,0,0,1,0-.52c0-.19.07-.37.11-.55a5.07,5.07,0,0,1,.49-1.17,4.26,4.26,0,0,1,.72-.93,3.13,3.13,0,0,1,.87-.61,2.16,2.16,0,0,1,.95-.22,1,1,0,0,1,.77.27.63.63,0,0,1,.16.24.63.63,0,0,1,.06.27.45.45,0,0,1-.12.33A.41.41,0,0,1,268.15,79Z"/><path class="cls-5" d="M275.45,75.38h.71L274,81.19c-.05.12-.09.25-.14.38l-.12.37c0,.13-.06.25-.08.37a1.8,1.8,0,0,0,0,.31.75.75,0,0,0,.17.53.67.67,0,0,0,.54.19,1.46,1.46,0,0,0,.61-.13,2.34,2.34,0,0,0,.59-.41,4.81,4.81,0,0,0,.59-.7c.2-.27.4-.6.62-1l.24-.44.13.1-.25.43c-.23.41-.45.76-.66,1.06a5.37,5.37,0,0,1-.64.73,2.25,2.25,0,0,1-.64.43,1.65,1.65,0,0,1-.7.14,1.36,1.36,0,0,1-.51-.09,1,1,0,0,1-.37-.25,1.07,1.07,0,0,1-.22-.39,1.61,1.61,0,0,1-.07-.51,2.78,2.78,0,0,1,.06-.54,3.13,3.13,0,0,1,.17-.61Z"/><path class="cls-5" d="M278.8,83.6a1.82,1.82,0,0,1-1.32-.45,1.79,1.79,0,0,1-.46-1.34,4.75,4.75,0,0,1,0-.51,3.82,3.82,0,0,1,.11-.55,4.89,4.89,0,0,1,.49-1.17,4.26,4.26,0,0,1,.72-.93,3.17,3.17,0,0,1,.87-.62,2.25,2.25,0,0,1,.94-.21,1.13,1.13,0,0,1,.74.22.77.77,0,0,1,.27.63,1.2,1.2,0,0,1-.09.45,1.45,1.45,0,0,1-.27.41,2.07,2.07,0,0,1-.41.36,2.74,2.74,0,0,1-.54.28,3.84,3.84,0,0,1-.81.24,6.28,6.28,0,0,1-1,.07,6.55,6.55,0,0,0-.22.79,4.8,4.8,0,0,0-.08.85,1.37,1.37,0,0,0,.27.95,1.15,1.15,0,0,0,.87.3,2.34,2.34,0,0,0,1-.19,3.28,3.28,0,0,0,.84-.5,4.77,4.77,0,0,0,.71-.71,6.81,6.81,0,0,0,.55-.81l.25-.44.13.09-.25.44a7.22,7.22,0,0,1-.65,1,4.14,4.14,0,0,1-.76.75,3.43,3.43,0,0,1-.88.48A2.52,2.52,0,0,1,278.8,83.6ZM280.32,78a1.18,1.18,0,0,0-.61.17,2.64,2.64,0,0,0-.6.48,4.22,4.22,0,0,0-.55.73,6,6,0,0,0-.44.92,5.33,5.33,0,0,0,.89-.09,2.76,2.76,0,0,0,.65-.21,2.32,2.32,0,0,0,.42-.25,2.53,2.53,0,0,0,.37-.36,2.21,2.21,0,0,0,.26-.44,1.44,1.44,0,0,0,.1-.5.46.46,0,0,0,0-.21.36.36,0,0,0-.1-.14.48.48,0,0,0-.16-.08Z"/><path class="cls-5" d="M287.12,79.89a6,6,0,0,1,1.22-1.52,1.87,1.87,0,0,1,1.22-.5,1,1,0,0,1,.5.11.89.89,0,0,1,.34.3,1.3,1.3,0,0,1,.19.45,2.47,2.47,0,0,1,.06.56,3.39,3.39,0,0,1-.07.7,7.33,7.33,0,0,1-.19.74,5.68,5.68,0,0,1-.42.93,5.12,5.12,0,0,1-.52.74,5.05,5.05,0,0,1-.58.56,3.87,3.87,0,0,1-.61.39,3.28,3.28,0,0,1-.61.23,2.18,2.18,0,0,1-.55.07,1.93,1.93,0,0,1-.62-.09,1.22,1.22,0,0,1-.45-.25,1.05,1.05,0,0,1-.27-.39,1.36,1.36,0,0,1-.09-.51,2.78,2.78,0,0,1,.06-.54,3.8,3.8,0,0,1,.18-.61l2.14-5.81h.71Zm2.29-1.79a1.2,1.2,0,0,0-.53.14,2.61,2.61,0,0,0-.54.39,4.94,4.94,0,0,0-.53.57c-.17.22-.33.45-.49.69a7.07,7.07,0,0,0-.43.76c-.13.26-.24.51-.34.76a6.15,6.15,0,0,0-.22.7,2.22,2.22,0,0,0-.09.58.7.7,0,0,0,.78.77,1.52,1.52,0,0,0,.49-.11,1.88,1.88,0,0,0,.63-.4,4.35,4.35,0,0,0,.7-.82,7.39,7.39,0,0,0,.7-1.36,9.09,9.09,0,0,0,.35-1,3.79,3.79,0,0,0,.11-.8,1,1,0,0,0-.14-.61A.52.52,0,0,0,289.41,78.1Z"/><path class="cls-5" d="M293.2,78h.7l-1.22,3.31c-.05.12-.09.25-.14.38l-.12.38c0,.12-.06.24-.08.36a1.82,1.82,0,0,0,0,.32.74.74,0,0,0,.17.52.67.67,0,0,0,.54.19,1.32,1.32,0,0,0,.61-.13,2.17,2.17,0,0,0,.59-.41,4.69,4.69,0,0,0,.59-.69c.2-.28.4-.61.62-1l.24-.43.13.09-.25.43c-.23.41-.45.76-.66,1.06a4.76,4.76,0,0,1-.64.73,2.25,2.25,0,0,1-.64.43,1.65,1.65,0,0,1-.7.14,1.36,1.36,0,0,1-.51-.09,1.05,1.05,0,0,1-.37-.25,1.07,1.07,0,0,1-.22-.39,1.61,1.61,0,0,1-.07-.51,2.78,2.78,0,0,1,.06-.54,4.12,4.12,0,0,1,.18-.61Zm.39-1.24a.4.4,0,0,1,.12-.29.39.39,0,0,1,.28-.11.41.41,0,0,1,.28.11.39.39,0,0,1,.11.29.4.4,0,0,1,0,.15.36.36,0,0,1-.08.12.38.38,0,0,1-.13.09.39.39,0,0,1-.55-.36Z"/><path class="cls-5" d="M297.47,83.71a1.87,1.87,0,0,1-1.32-.46,1.77,1.77,0,0,1-.45-1.34,3.08,3.08,0,0,1,0-.51,3.82,3.82,0,0,1,.11-.55,5.07,5.07,0,0,1,.49-1.17,4,4,0,0,1,.72-.93,3.13,3.13,0,0,1,.87-.61,2.11,2.11,0,0,1,.93-.22,1.16,1.16,0,0,1,.75.22.74.74,0,0,1,.26.63,1.2,1.2,0,0,1-.09.45,1.66,1.66,0,0,1-.26.41,2.07,2.07,0,0,1-.41.36,3.43,3.43,0,0,1-.54.29,4.65,4.65,0,0,1-.82.23,6.16,6.16,0,0,1-1,.07,4.1,4.1,0,0,0-.22.8,4.6,4.6,0,0,0-.09.84,1.32,1.32,0,0,0,.28,1,1.12,1.12,0,0,0,.87.3,2.37,2.37,0,0,0,.95-.19,3.28,3.28,0,0,0,.84-.5,4.71,4.71,0,0,0,.7-.71,6.17,6.17,0,0,0,.56-.81l.25-.44.12.09-.24.44a8.34,8.34,0,0,1-.65,1,4.48,4.48,0,0,1-.76.75,3.6,3.6,0,0,1-.88.48A2.77,2.77,0,0,1,297.47,83.71Zm1.52-5.6a1.2,1.2,0,0,0-.61.17,2.64,2.64,0,0,0-.6.48,4.19,4.19,0,0,0-.54.73,5.21,5.21,0,0,0-.44.92,5.44,5.44,0,0,0,.89-.09,2.67,2.67,0,0,0,.64-.21,2.09,2.09,0,0,0,.43-.25,2,2,0,0,0,.36-.36,1.65,1.65,0,0,0,.26-.44,1.19,1.19,0,0,0,.1-.49.69.69,0,0,0,0-.22.38.38,0,0,0-.11-.14.53.53,0,0,0-.15-.08Z"/><path class="cls-5" d="M302.11,78h.7l-.76,2c.22-.36.42-.67.62-.94a4.9,4.9,0,0,1,.59-.66,2.32,2.32,0,0,1,.59-.39,1.68,1.68,0,0,1,.63-.12,1.21,1.21,0,0,1,.52.1,1,1,0,0,1,.37.26,1.07,1.07,0,0,1,.23.4,1.45,1.45,0,0,1,.07.47,2.52,2.52,0,0,1-.08.58,6.14,6.14,0,0,1-.2.66c-.08.22-.16.45-.26.68s-.18.44-.26.66-.14.41-.2.59a1.91,1.91,0,0,0-.08.48.64.64,0,0,0,.73.68,1.41,1.41,0,0,0,.6-.13,2.35,2.35,0,0,0,.58-.42,3.79,3.79,0,0,0,.59-.69,11,11,0,0,0,.62-1l.25-.44.12.09-.24.44c-.23.39-.45.74-.66,1a4.85,4.85,0,0,1-.63.74,2.4,2.4,0,0,1-.64.43,1.65,1.65,0,0,1-.69.15,1.44,1.44,0,0,1-.53-.09,1.27,1.27,0,0,1-.37-.25,1.1,1.1,0,0,1-.23-.37,1.27,1.27,0,0,1-.07-.44,2.35,2.35,0,0,1,.08-.55c0-.2.12-.41.2-.64s.17-.44.26-.67.18-.45.26-.67a6.16,6.16,0,0,0,.2-.61,2.2,2.2,0,0,0,.08-.52,1,1,0,0,0,0-.3.7.7,0,0,0-.13-.24.67.67,0,0,0-.24-.16.81.81,0,0,0-.33-.06,1.22,1.22,0,0,0-.58.15,2.11,2.11,0,0,0-.58.43,5.68,5.68,0,0,0-.58.71c-.2.29-.41.63-.63,1l-.25.44-1,2.71H300Z"/><path class="cls-5" d="M309.08,80.42l3,0-.17.44-3,0Z"/><path class="cls-5" d="M314.86,83.8a1.82,1.82,0,0,1-1.32-.46,1.76,1.76,0,0,1-.46-1.33c0-.16,0-.33,0-.51s.07-.37.12-.56a5,5,0,0,1,.48-1.17,4.26,4.26,0,0,1,.72-.93,3.35,3.35,0,0,1,.87-.61,2.12,2.12,0,0,1,.94-.22,1.13,1.13,0,0,1,.74.23.77.77,0,0,1,.27.62,1.17,1.17,0,0,1-.09.45,1.49,1.49,0,0,1-.26.41,2.4,2.4,0,0,1-.41.36,2.77,2.77,0,0,1-.54.29,3.93,3.93,0,0,1-.82.23,5.33,5.33,0,0,1-1,.07,6.71,6.71,0,0,0-.22.8,4.8,4.8,0,0,0-.08.85,1.4,1.4,0,0,0,.27,1,1.19,1.19,0,0,0,.88.29,2.4,2.4,0,0,0,.95-.18,3.67,3.67,0,0,0,.83-.5,5.29,5.29,0,0,0,.71-.71,7,7,0,0,0,.56-.82l.25-.43.12.09-.25.43a6.57,6.57,0,0,1-.64,1,4.53,4.53,0,0,1-.77.75,3.3,3.3,0,0,1-.88.49A2.94,2.94,0,0,1,314.86,83.8Zm1.52-5.6a1.31,1.31,0,0,0-.61.17,2.44,2.44,0,0,0-.6.49,3.87,3.87,0,0,0-.55.73,5.49,5.49,0,0,0-.44.91,4.44,4.44,0,0,0,.89-.08,3.1,3.1,0,0,0,.65-.21,1.83,1.83,0,0,0,.42-.26,1.58,1.58,0,0,0,.37-.36,1.76,1.76,0,0,0,.26-.44,1.19,1.19,0,0,0,.1-.49.41.41,0,0,0,0-.21.3.3,0,0,0-.1-.14.3.3,0,0,0-.16-.08A.58.58,0,0,0,316.38,78.2Zm.06-2.33a.23.23,0,0,1,.11-.11l.12,0a.25.25,0,0,1,.13,0,.3.3,0,0,1,.07.11c0,.11.06.22.1.33a1.81,1.81,0,0,0,.16.35,1.48,1.48,0,0,0,.28.35,2.41,2.41,0,0,0,.44.35l0,0s0,0,0,0l-.05.06a2.43,2.43,0,0,1-.44-.26,2.8,2.8,0,0,1-.37-.34,1.72,1.72,0,0,1-.3-.47c-.15.16-.31.31-.47.45l-.23.17-.26.17a1.43,1.43,0,0,1-.27.15,1.36,1.36,0,0,1-.28.11s0,0,0,0l-.05,0-.07-.06a4.12,4.12,0,0,0,.54-.31,2.37,2.37,0,0,0,.37-.32,1.81,1.81,0,0,0,.28-.34Z"/><path class="cls-5" d="M318.1,78.11h1.38l.46-1.24h.7l-.45,1.24h1.42v.19h-1.5L319,81.43c0,.13-.09.25-.13.38s-.08.26-.12.38-.06.25-.08.36a1.91,1.91,0,0,0,0,.32.65.65,0,0,0,.71.72,2,2,0,0,0,.68-.13,2.38,2.38,0,0,0,.66-.41,4.34,4.34,0,0,0,.64-.69,7.74,7.74,0,0,0,.64-1l.25-.43.13.09-.25.43a8.72,8.72,0,0,1-.73,1.12,4,4,0,0,1-.7.72,2.24,2.24,0,0,1-.69.4,2.34,2.34,0,0,1-.74.12,1.36,1.36,0,0,1-.51-.09,1,1,0,0,1-.37-.25,1.26,1.26,0,0,1-.23-.39,1.61,1.61,0,0,1-.07-.51,2.61,2.61,0,0,1,.06-.53,3.9,3.9,0,0,1,.18-.62l1.15-3.12H318.1Z"/><path class="cls-5" d="M325.93,78.49a.19.19,0,0,0-.1-.15.38.38,0,0,0-.28-.08.87.87,0,0,0-.41.11,2.07,2.07,0,0,0-.51.41,6.93,6.93,0,0,0-.64.79q-.36.51-.81,1.29l-.24.42-.9,2.47h-.71l2.08-5.6h.7l-.84,2.27c.26-.44.5-.81.71-1.11a6.52,6.52,0,0,1,.6-.73,2.26,2.26,0,0,1,.52-.39,1.07,1.07,0,0,1,.48-.12.66.66,0,0,1,.49.19.69.69,0,0,1,.17.48,1,1,0,0,1,0,.24.56.56,0,0,1-.09.19.64.64,0,0,1-.15.13.38.38,0,0,1-.19,0l-.14,0a.29.29,0,0,1-.13-.08.4.4,0,0,1-.1-.12.38.38,0,0,1,0-.16.45.45,0,0,1,0-.16.37.37,0,0,1,.07-.14.48.48,0,0,1,.11-.09.28.28,0,0,1,.15,0h.1l0,0h0S325.93,78.53,325.93,78.49Z"/><path class="cls-5" d="M328.59,83.87a1.82,1.82,0,0,1-1.32-.45,1.79,1.79,0,0,1-.46-1.34,4.75,4.75,0,0,1,0-.51c0-.18.06-.36.11-.55a5,5,0,0,1,.49-1.18,4.51,4.51,0,0,1,.72-.93,3.35,3.35,0,0,1,.87-.61,2.11,2.11,0,0,1,.94-.21,1.13,1.13,0,0,1,.74.22.77.77,0,0,1,.27.63,1.12,1.12,0,0,1-.09.44,1.22,1.22,0,0,1-.27.41,2.49,2.49,0,0,1-.41.37,2.74,2.74,0,0,1-.54.28,3.32,3.32,0,0,1-.81.23,6.21,6.21,0,0,1-1,.08,6.55,6.55,0,0,0-.22.79,4.8,4.8,0,0,0-.08.85,1.37,1.37,0,0,0,.27,1,1.15,1.15,0,0,0,.87.3,2.34,2.34,0,0,0,.95-.19,3.59,3.59,0,0,0,.84-.5,4.77,4.77,0,0,0,.71-.71,7.73,7.73,0,0,0,.55-.81L332,81l.13.09-.25.44a8.29,8.29,0,0,1-.64,1,4.47,4.47,0,0,1-.77.74,3.47,3.47,0,0,1-.88.49A2.52,2.52,0,0,1,328.59,83.87Zm1.52-5.59a1.11,1.11,0,0,0-.61.17,2.39,2.39,0,0,0-.6.48,4.22,4.22,0,0,0-.55.73,6,6,0,0,0-.44.92,5.21,5.21,0,0,0,.89-.09,3.31,3.31,0,0,0,.65-.21,1.71,1.71,0,0,0,.42-.26,2,2,0,0,0,.37-.35,2.21,2.21,0,0,0,.26-.44,1.44,1.44,0,0,0,.1-.5.46.46,0,0,0,0-.21.36.36,0,0,0-.1-.14.48.48,0,0,0-.16-.08A.58.58,0,0,0,330.11,78.28Z"/></g></svg>