<?xml version="1.0" encoding="utf-8"?>
<!-- Generator: Adobe Illustrator 23.0.6, SVG Export Plug-In . SVG Version: 6.00 Build 0)  -->
<svg version="1.1" id="Calque_1" xmlns="http://www.w3.org/2000/svg" xmlns:xlink="http://www.w3.org/1999/xlink" x="0px" y="0px"
	 viewBox="0 0 370 131" style="enable-background:new 0 0 370 131;" xml:space="preserve">
<style type="text/css">
	.st0{fill:#F1C4B2;}
	.st1{fill:#FBE0DD;}
	.st2{fill:#F5B8B2;}
	.st3{fill:#FFFFFF;}
	.st4{fill:#FFFFFF;stroke:#FFFFFF;stroke-width:0.25;stroke-miterlimit:10;}
</style>
<g id="Cartouche_1">
	<path class="st0" d="M55.7,92.6h-5c-5.2,0-9.6-3.7-10.5-8.8c-0.3,0-0.7-0.1-1-0.2c0.8,5.7,5.7,10,11.5,10h4.6l1.9,1.9
		c0-0.4,0-0.9,0.1-1.3L55.7,92.6z"/>
	<path class="st0" d="M25,65.5c0-5.5,1.8-10.8,5.1-15.1l0.1-0.1v-0.1c1.5-11.2,10.3-20,21.5-21.4h0.1l0.1-0.1
		c8.8-6.4,20.7-6.3,29.4,0.1l0.1,0.1h0.1c11.2,1.4,20.1,10.3,21.5,21.6v0.1l0.1,0.1c3.2,4.3,4.9,9.5,4.9,14.8c0,2-0.2,4-0.7,5.9
		c0.3,0.2,0.6,0.4,0.8,0.7c0.6-2.1,0.8-4.3,0.8-6.6c0-5.5-1.7-10.9-5-15.3c-1.5-11.6-10.6-20.8-22.2-22.3c-9-6.6-21.3-6.7-30.4-0.1
		c-11.6,1.5-20.7,10.6-22.3,22.1c-3.4,4.5-5.3,10-5.2,15.6c0,2.2,0.3,4.4,0.9,6.6l0.9-0.7C25.2,69.5,25,67.5,25,65.5z"/>
	<path class="st0" d="M83.1,92.3h-5.3l-2,2.1c0,0.4,0.1,0.9,0.1,1.3l2.4-2.4h5c5.6-0.2,10.2-4.3,11.2-9.8l-1,0.2
		C92.4,88.6,88.1,92.2,83.1,92.3z"/>
	<path class="st0" d="M74.2,95.9c-4.1,4.2-10.8,4.2-15,0.2l-0.5-0.4c-0.2,0.2-0.5,0.5-0.7,0.7l0.5,0.4c2.2,2.1,5.1,3.3,8.1,3.3h0.1
		c3.1,0,6-1.3,8.2-3.5l0.2-0.2l-0.7-0.7L74.2,95.9z"/>
	<path class="st0" d="M96.9,57.8c2,2,3.1,4.7,3.1,7.5c0,0.7-0.1,1.4-0.2,2.1c0.3,0.1,0.6,0.2,0.9,0.4c0.8-3.8-0.4-7.8-3.2-10.6
		l-1.9-1.9c-0.1,0.3-0.3,0.7-0.4,1L96.9,57.8z"/>
	<path class="st0" d="M50.2,38.4h5.2l3.6-3.5c1.5-1.5,3.5-2.5,5.6-2.9c0.3-0.4,0.7-0.8,1-1.1c-2.8,0.2-5.4,1.3-7.3,3.3L55,37.4h-4.8
		c-4.2,0.1-8,2.4-10,6.1l1.1,0.2C43.1,40.5,46.5,38.5,50.2,38.4z"/>
	<path class="st0" d="M73.8,34.9l3.7,3.5l5.2-0.1c3.8,0,7.3,2,9.2,5.3l1-0.2c-2-3.8-6-6.1-10.3-6.2l-4.8,0.1l-3.3-3.2
		c-1.9-1.8-4.4-3-7.1-3.2c0.3,0.4,0.7,0.8,1,1.2C70.4,32.5,72.3,33.5,73.8,34.9z"/>
	<path class="st0" d="M103.1,80.6c-1.5,11.2-10.2,19.9-21.4,21.4h-0.1l-0.1,0.1c-8.8,6.6-21,6.6-29.8,0l-0.1-0.1h-0.1
		c-10.9-1.6-19.5-10.2-21.1-21.1v-0.1l-0.1-0.1l0,0c-0.7-0.3-1.4-0.7-2-1.1c0.4,0.6,0.8,1.1,1.2,1.7C31,92.4,39.8,101.3,51.1,103
		c9.2,6.8,21.7,6.8,30.8,0c11.5-1.6,20.5-10.6,22.1-22.2c0.3-0.4,0.6-0.9,0.9-1.3C104.3,79.9,103.7,80.2,103.1,80.6L103.1,80.6z"/>
	<path class="st0" d="M33,65.8c0-2.9,1.1-5.6,3.1-7.6l1.7-1.7c-0.1-0.3-0.3-0.7-0.4-1l-2,2c-2.2,2.2-3.5,5.2-3.4,8.3
		c0,0.7,0.1,1.3,0.2,1.9c0.3-0.1,0.6-0.2,1-0.4C33.1,66.8,33,66.3,33,65.8z"/>
	<path class="st1" d="M66.2,73.6c0-0.2,0-0.5,0-0.7l-0.1-0.8l-0.1-0.7c0-0.3-0.1-0.5-0.1-0.8s-0.1-0.5-0.1-0.7s-0.1-0.5-0.1-0.8
		s-0.1-0.5-0.1-0.7s-0.1-0.5-0.2-0.8s-0.1-0.4-0.2-0.7s-0.1-0.5-0.2-0.8s-0.1-0.4-0.2-0.7s-0.2-0.5-0.3-0.8s-0.1-0.4-0.2-0.6
		s-0.2-0.5-0.3-0.8s-0.2-0.4-0.2-0.6l-0.3-0.8l-0.3-0.6c-0.1-0.2-0.2-0.5-0.4-0.7l-0.3-0.6c-0.1-0.2-0.3-0.5-0.4-0.7
		s-0.2-0.4-0.3-0.6s-0.3-0.5-0.5-0.7s-0.2-0.4-0.3-0.5s-0.3-0.5-0.5-0.7s-0.2-0.3-0.4-0.5s-0.4-0.5-0.6-0.8s-0.2-0.3-0.4-0.5
		s-0.4-0.5-0.7-0.8s-0.2-0.2-0.3-0.4c-0.3-0.4-0.7-0.8-1.1-1.1c-4.4-4.4-10-7.4-16.2-8.5L40,44c-1.5-0.2-3-0.3-4.5-0.4
		c0,3.9,0.8,7.9,2.3,11.5c0.1,0.3,0.3,0.7,0.4,1c0.4,1,0.9,1.9,1.4,2.8c1.4,2.4,3.1,4.5,5,6.4h0.8h0.7c0.3,0,0.6,0,0.9,0.1h0.6
		c0.3,0,0.7,0.1,1,0.1l0.5,0.1c0.5,0.1,0.9,0.2,1.4,0.2l0.5,0.1l1.1,0.2l0.6,0.2l0.8,0.2l0.7,0.2l0.8,0.3l0.7,0.2
		c0.2,0.1,0.5,0.2,0.7,0.3L57,68l0.7,0.3l0.6,0.3c0.2,0.1,0.5,0.2,0.7,0.4l0.6,0.3l0.7,0.4l0.6,0.4l0.7,0.4l0.6,0.4l0.7,0.4l0.6,0.4
		l0.6,0.5l0.6,0.5l0.6,0.5c0.2,0.2,0.4,0.3,0.5,0.5s0.3,0.3,0.5,0.4C66.3,74,66.2,73.8,66.2,73.6z"/>
	<path class="st2" d="M65.4,74.1l-0.5-0.5l-0.6-0.5l-0.5-0.5l-0.6-0.5c-0.2-0.1-0.4-0.3-0.6-0.4s-0.4-0.3-0.6-0.4l-0.6-0.4l-0.7-0.4
		L60,70.1l-0.7-0.4l-0.6-0.3L58,69l-0.6-0.3l-0.7-0.3l-0.6-0.3l-0.7-0.3l-0.7-0.2L54,67.3l-0.7-0.2l-0.8-0.2
		c-0.2-0.1-0.4-0.1-0.7-0.2s-0.5-0.1-0.8-0.2l-0.7-0.2l-0.8-0.1L49,66.2c-0.3,0-0.6-0.1-0.8-0.1L47.5,66l-1-0.1H46c-0.5,0-1,0-1.5,0
		h-0.2c-2.7,0-5.4,0.3-8,1c-1,0.3-2.1,0.6-3.1,1l-0.9,0.4c-2.3,1-4.5,2.2-6.5,3.7c-0.3,0.2-0.6,0.4-0.9,0.7c-0.8,0.7-1.6,1.3-2.3,2
		c1.5,1.5,3.1,2.8,4.9,3.9c0.6,0.4,1.3,0.8,1.9,1.2c2.2,1.2,4.5,2.2,6.9,2.8c0.9,0.2,1.8,0.4,2.7,0.6c0.3,0.1,0.7,0.1,1,0.2
		c1.4,0.2,2.8,0.3,4.2,0.3l0.8-0.6l0.4-0.4l0.9-0.8l0.3-0.2c0.4-0.3,0.8-0.6,1.2-0.9l0.4-0.3c0.3-0.2,0.6-0.4,0.9-0.6l0.5-0.3
		l0.8-0.5l0.5-0.3c0.2-0.2,0.5-0.3,0.8-0.4l0.6-0.3l0.8-0.4l0.6-0.3l0.8-0.3l0.6-0.3l0.8-0.3l0.7-0.2l0.8-0.3l0.7-0.2l0.8-0.2
		l0.7-0.2c0.3-0.1,0.5-0.1,0.8-0.2l0.7-0.1l0.8-0.1l0.7-0.1l0.8-0.1l0.7-0.1l0.8-0.1h0.8h0.5L65.4,74.1z"/>
	<path class="st0" d="M64.7,74.9L63.9,75L63.2,75l-0.8,0.1l-0.7,0.1l-0.7,0.1l-0.7,0.1l-0.8,0.2l-0.7,0.2c-0.5,0.1-0.9,0.2-1.4,0.4
		l-0.6,0.2c-0.3,0.1-0.5,0.2-0.8,0.3s-0.4,0.2-0.6,0.2l-0.8,0.3L54,77.5l-0.7,0.3l-0.6,0.3c-0.2,0.1-0.5,0.2-0.7,0.4
		s-0.4,0.2-0.6,0.3l-0.7,0.4l-0.6,0.3L49.4,80l-0.5,0.4c-0.2,0.2-0.5,0.3-0.7,0.5l-0.5,0.4L47,81.8l-0.5,0.4
		c-0.2,0.2-0.4,0.3-0.6,0.5s-0.3,0.3-0.5,0.5L45,83.6c7.9-0.1,15.4-3.2,21-8.7h-0.6L64.7,74.9z"/>
	<path class="st0" d="M66.8,75.3c0.2,7.4,3,14.5,8,19.9l0.5-0.5C74.9,87.5,71.8,80.6,66.8,75.3z"/>
	<path class="st0" d="M75.3,94.7l-0.5,0.5l0.6,0.6C75.3,95.5,75.3,95.1,75.3,94.7z"/>
	<path class="st0" d="M66.3,75.3c-5,5.2-8.1,12.1-8.5,19.3l0.7,0.6C63.3,89.8,66.1,82.7,66.3,75.3z"/>
	<path class="st0" d="M57.7,96c0.2-0.2,0.5-0.5,0.7-0.7l-0.7-0.6C57.7,95.1,57.7,96,57.7,96z"/>
	<path class="st2" d="M108.1,72.6l-0.8-0.7c-2-1.5-4.2-2.8-6.6-3.8l-0.9-0.4c-1-0.4-2-0.7-3-1c-2.6-0.7-5.3-1-8-1h-0.1
		c-0.5,0-1,0-1.5,0h-0.6l-0.9,0.1L85,66l-0.8,0.1l-0.7,0.1l-0.8,0.1L82,66.5l-0.8,0.2l-0.7,0.2l-0.7,0.2l-0.7,0.2l-0.7,0.2l-0.7,0.2
		L77,68l-0.7,0.3c-0.2,0.1-0.5,0.2-0.7,0.3L75,68.9l-0.7,0.3l-0.6,0.3L73,70l-0.6,0.4l-0.6,0.4l-0.6,0.4l-0.6,0.4L70,72l-0.6,0.5
		l-0.5,0.4l-0.6,0.5l-0.5,0.5l-0.5,0.4h0.5h0.7l0.8,0.1l0.7,0.1l0.8,0.1l0.7,0.1l0.8,0.1L73,75c0.3,0.1,0.5,0.1,0.8,0.2l0.7,0.2
		l0.8,0.2l0.7,0.2l0.8,0.2l0.7,0.2l0.7,0.3l0.7,0.3l0.7,0.3l0.7,0.3l0.7,0.4c0.2,0.1,0.4,0.2,0.6,0.3l0.7,0.4l0.6,0.3
		c0.2,0.1,0.5,0.3,0.7,0.4l0.6,0.4l0.8,0.6l0.5,0.3c0.4,0.3,0.8,0.6,1.2,0.9l0.4,0.3l0.8,0.7l0.5,0.5l0.6,0.6c1.6,0,3.1-0.1,4.7-0.4
		l1-0.2c0.7-0.1,1.5-0.3,2.2-0.5c2.4-0.6,4.7-1.6,6.9-2.8c0.7-0.4,1.3-0.8,1.9-1.2c1.8-1.1,3.4-2.4,4.9-3.9
		C109.7,73.9,108.9,73.2,108.1,72.6z"/>
	<path class="st1" d="M93.1,43.9l-1,0.2c-3.5,0.6-6.8,1.9-9.8,3.6c-2.3,1.3-4.5,3-6.4,4.9c-0.4,0.4-0.7,0.7-1.1,1.1l-0.3,0.4
		l-0.7,0.8l-0.4,0.5c-0.2,0.2-0.4,0.5-0.5,0.7l-0.4,0.6c-0.2,0.2-0.3,0.4-0.5,0.7l-0.4,0.6l-0.4,0.7l-0.4,0.6l-0.4,0.7l-0.3,0.6
		c-0.1,0.2-0.2,0.5-0.3,0.7l-0.3,0.7c-0.1,0.2-0.2,0.5-0.3,0.7l-0.3,0.7c-0.1,0.2-0.2,0.5-0.3,0.7c-0.1,0.3-0.2,0.5-0.2,0.7
		s-0.2,0.5-0.2,0.8S68,65.9,68,66.1s-0.2,0.5-0.2,0.8s-0.1,0.5-0.2,0.7s-0.1,0.5-0.2,0.8s-0.1,0.5-0.1,0.7s-0.1,0.5-0.1,0.8
		s-0.1,0.5-0.1,0.7S67,71,67,71.3s0,0.5-0.1,0.7l-0.1,0.8v0.7c0,0.2,0,0.4,0,0.5l0.7-0.6l0.4-0.3c0.3-0.3,0.6-0.5,0.9-0.8l0.2-0.2
		c0.3-0.3,0.7-0.6,1.1-0.8l0.1-0.1c0.4-0.3,0.8-0.6,1.2-0.8l0,0c2.9-1.9,6.2-3.4,9.6-4.2h0.1c0.4-0.1,0.9-0.2,1.3-0.3l0.5-0.1
		c0.3-0.1,0.6-0.1,1-0.2s0.4-0.1,0.6-0.1l0.9-0.1h0.7l0.8-0.1h0.7h0.8c1.9-1.9,3.5-4.1,4.9-6.4c0.6-1,1.1-2,1.5-3
		c0.2-0.3,0.3-0.7,0.4-1c1.4-3.6,2.2-7.4,2.2-11.2C96.1,43.7,94.6,43.8,93.1,43.9z"/>
	<path class="st2" d="M74.4,44.5c-1.2-4.6-3.5-8.9-6.7-12.5c-0.3-0.4-0.7-0.7-1-1.1l-0.2-0.2l-0.2,0.2c-0.3,0.3-0.7,0.7-1,1
		c-5,5.6-7.8,12.9-7.8,20.4l0.1,0.1c0.5,0.5,1,1.1,1.5,1.7l0.2,0.3c0.5,0.6,1,1.2,1.4,1.8l0.3,0.4c0.4,0.6,0.8,1.3,1.2,1.9
		c0,0,0.1,0.1,0.1,0.2c0.4,0.6,0.7,1.3,1,1.9c0.1,0.1,0.1,0.2,0.2,0.3c0.3,0.7,0.6,1.3,0.9,2c0.1,0.1,0.1,0.3,0.2,0.4
		c0.3,0.7,0.5,1.4,0.7,2.2c0,0.1,0,0.1,0,0.2c0.2,0.7,0.4,1.4,0.5,2.1c0,0.1,0.1,0.2,0.1,0.4c0.2,0.7,0.3,1.5,0.4,2.2
		c0,0.1,0,0.1,0,0.2v-0.2c0.1-0.8,0.2-1.5,0.4-2.2c0-0.1,0-0.2,0.1-0.3c0.1-0.7,0.3-1.4,0.5-2.1c0-0.1,0-0.1,0-0.2
		c0.2-0.7,0.5-1.5,0.7-2.2c0-0.1,0.1-0.3,0.2-0.4c0.3-0.7,0.6-1.4,0.9-2l0.2-0.3c0.3-0.7,0.7-1.3,1.1-1.9l0.1-0.2
		c0.4-0.7,0.8-1.3,1.2-1.9l0.3-0.4c0.4-0.6,0.9-1.2,1.4-1.8l0.3-0.3c0.5-0.6,1-1.1,1.5-1.7l0.1-0.1C75.3,49.7,75,47,74.4,44.5z"/>
	<path class="st0" d="M87.7,83.2l-0.5-0.5c-0.2-0.2-0.4-0.4-0.6-0.5L86,81.8l-0.6-0.5l-0.5-0.4l-0.7-0.5c-0.2-0.1-0.4-0.3-0.6-0.4
		s-0.5-0.3-0.7-0.4l-0.5-0.3l-0.8-0.4l-0.5-0.3l-0.8-0.4l-0.5-0.2c-0.3-0.2-0.6-0.3-1-0.4l-0.4-0.2c-0.9-0.4-1.8-0.7-2.8-1l-0.4-0.1
		c-0.3-0.1-0.7-0.2-1-0.3l-0.6-0.1l-0.9-0.2c-0.2-0.1-0.4-0.1-0.6-0.1l-0.9-0.2l-0.6-0.1L69.7,75l-0.6,0l-0.8-0.1h-0.7h-0.6
		c5.6,5.4,13.1,8.5,20.9,8.6L87.7,83.2z"/>
	<path class="st3" d="M126.9,52.4l-0.1,1.8l0,0c1.2-1.3,2.9-2.2,4.7-2.2c1.5-0.2,3,0.8,3.5,2.2c1-1.4,2.7-2.2,4.4-2.2
		c1-0.1,2,0.3,2.7,1c0.7,0.8,1.1,1.8,1,2.8v8.4l1.8,0.5c0.1,0.3,0,0.6-0.1,0.9c-1.6-0.1-2.6-0.1-3-0.1s-1.5,0-3.1,0.1
		c-0.1-0.3-0.1-0.6,0-0.9c0.6-0.1,1.2-0.3,1.7-0.5V57c0.1-0.8-0.1-1.7-0.5-2.4c-0.5-0.5-1.1-0.7-1.8-0.7c-1.2,0.1-2.3,0.7-3,1.7v8.6
		l1.8,0.5c0.1,0.3,0,0.6-0.1,0.9c-1.4-0.1-2.5-0.1-3-0.1s-1.6,0-3.1,0.1c-0.1-0.3,0-0.6,0.1-0.9c0.6-0.1,1.2-0.3,1.7-0.5V57
		c0.1-0.8-0.1-1.7-0.5-2.4c-0.4-0.5-1.1-0.8-1.8-0.7c-1.2,0.2-2.4,0.7-3.2,1.6v8.8l1.8,0.5c0.1,0.3,0,0.6-0.1,0.9
		c-1.4-0.1-2.4-0.1-2.9-0.1s-1.7,0-3.2,0.1c-0.1-0.3-0.1-0.6,0-0.9c0.8-0.2,1.4-0.4,1.8-0.5V54l-2.2-0.2c-0.1-0.3,0-0.6,0.1-0.9
		c1.3-0.2,2.6-0.5,3.6-0.7C126.3,52.2,126.6,52.3,126.9,52.4z"/>
	<path class="st3" d="M149.2,59c-0.1-1.9,0.6-3.8,1.9-5.2c1.2-1.3,2.9-1.9,4.7-1.9c1.8-0.1,3.6,0.6,4.8,2c1.2,1.4,1.9,3.2,1.8,5.1
		c0.1,1.9-0.6,3.8-1.9,5.2c-1.2,1.3-3,1.9-4.7,1.9c-1.8,0.1-3.6-0.6-4.9-2C149.8,62.7,149.1,60.9,149.2,59z M159.6,59.4
		c0.1-1.5-0.2-3-0.9-4.4c-0.5-1.2-1.7-1.9-2.9-1.9c-1.2-0.1-2.3,0.6-2.9,1.7c-0.7,1.4-1,2.9-0.9,4.4c0,0.8,0.1,1.5,0.2,2.3
		c0.1,0.7,0.4,1.3,0.7,1.9c0.3,0.5,0.7,0.9,1.2,1.2c0.5,0.3,1.1,0.5,1.7,0.4c1.1,0,2.1-0.5,2.7-1.3
		C159.4,62.4,159.7,60.9,159.6,59.4L159.6,59.4z"/>
	<path class="st3" d="M171.7,52.4l-0.1,1.8l0,0c1.3-1.4,3.1-2.2,5-2.2c1-0.1,2,0.3,2.7,1c0.7,0.8,1.1,1.8,1,2.8v8.4l1.8,0.5
		c0.1,0.3,0,0.6-0.1,0.9c-1.4-0.1-2.4-0.1-3-0.1s-1.7,0-3.1,0.1c-0.1-0.3,0-0.6,0.1-0.9c0.6-0.1,1.2-0.3,1.7-0.5V57
		c0.1-0.8-0.1-1.7-0.5-2.4c-0.4-0.5-1.1-0.8-1.8-0.7c-1.3,0-2.6,0.5-3.5,1.6v8.8l1.8,0.5c0.1,0.3,0,0.6-0.1,0.9
		c-1.4-0.1-2.4-0.1-2.9-0.1s-1.6,0-3.2,0.1c-0.1-0.3-0.1-0.6,0-0.9c0.8-0.2,1.4-0.4,1.8-0.5V54l-2.2-0.2c-0.1-0.3,0-0.6,0.1-0.9
		c1.3-0.2,2.6-0.5,3.6-0.7C171.1,52.2,171.4,52.3,171.7,52.4z"/>
	<path class="st3" d="M200.1,56.7v7.5l2.5,0.5c0.1,0.3,0,0.6-0.1,0.9c-1.6-0.1-2.8-0.1-3.7-0.1c-0.7,0-1.8,0-3.2,0.1
		c-0.1-0.3,0-0.6,0.1-0.9c0.6-0.1,1.2-0.3,1.8-0.5V54l-2.2-0.2c-0.1-0.3,0-0.6,0.1-0.9c1.2-0.2,2.5-0.4,3.7-0.7
		c0.3,0,0.6,0.1,0.9,0.3v2.4l0,0c1.3-1.9,2.7-2.8,4-2.8c0.6,0,1.2,0.1,1.7,0.4c0.1,1.3-0.1,2.7-0.5,3.9c-0.4,0.1-0.8,0-1.2-0.1
		l-0.4-2.6C202.2,53.6,201.1,54.7,200.1,56.7z"/>
	<path class="st3" d="M222.2,46v18.3c0.6,0.3,1.2,0.5,1.8,0.5c0,0,0,0.1,0,0.1c0,0,0,0.1,0,0.1c0,0.2-0.1,0.4-0.2,0.7
		c-0.7,0.1-1.5,0.2-2.2,0.2c-0.5,0-1,0-1.5-0.2c-0.1-0.2-0.2-0.4-0.3-0.6c-0.1-0.2-0.2-0.5-0.2-0.8h-0.1c-0.6,0.6-1.3,1-2,1.3
		c-0.7,0.3-1.3,0.4-2.1,0.4c-0.7,0-1.5-0.2-2.1-0.5c-0.7-0.4-1.2-0.9-1.7-1.5c-0.5-0.6-0.9-1.4-1.1-2.1c-0.3-0.9-0.4-1.8-0.4-2.7
		c0-1,0.1-2.1,0.5-3.1c0.3-0.9,0.7-1.7,1.3-2.3c0.6-0.6,1.3-1.1,2.1-1.5c0.9-0.3,1.8-0.5,2.7-0.5c1,0,1.9,0.2,2.8,0.7h0.1v-5
		l-2.2-0.2c0-0.1,0-0.2,0-0.3c0-0.2,0.1-0.5,0.1-0.7c1.2-0.2,2.4-0.4,3.6-0.7C221.6,45.8,221.9,45.9,222.2,46z M216.6,64.6
		c1.2,0,2.2-0.5,3-1.4v-9.1c-0.7-0.6-1.7-0.9-2.6-0.8c-1.2-0.1-2.3,0.5-3,1.5c-0.8,1.3-1.1,2.8-1,4.3c-0.1,1.4,0.2,2.9,0.9,4.2
		C214.5,64.1,215.5,64.6,216.6,64.6L216.6,64.6z"/>
	<path class="st3" d="M234.5,66.4l-5.2-12.6l-2-0.5c-0.1-0.3,0-0.6,0.1-0.9c1.4,0.1,2.5,0.1,3.2,0.1s1.8,0,3.4-0.1
		c0.1,0.3,0,0.6-0.1,0.9c-0.6,0.1-1.2,0.3-1.8,0.5l2.3,5.8c0.5,1.2,0.8,2.3,1.1,3.6h0.1c0.4-1.4,0.6-2.3,0.9-3l2.5-6.4l-2.1-0.5
		c-0.1-0.3,0-0.6,0.1-0.9c1.2,0.1,2.1,0.1,2.7,0.1s1.5,0,2.7-0.1c0.1,0.3,0.1,0.6,0,0.9c-0.6,0.1-1.3,0.2-1.9,0.5L235.7,66
		C235.3,66.2,234.9,66.3,234.5,66.4z"/>
	<path class="st3" d="M259.2,46v7.6l0.1,0.1c1.1-1,2.5-1.6,3.9-1.6c1.6,0,3,0.7,4,1.9c1.1,1.4,1.6,3.2,1.5,5
		c0.1,1.9-0.6,3.8-1.9,5.2c-1.4,1.3-3.3,1.9-5.1,1.8c-1.7,0-3.4-0.4-5-1V47.6l-2.2-0.2c-0.1-0.3,0-0.6,0.1-0.9
		c1.2-0.2,2.3-0.4,3.5-0.7C258.5,45.8,258.8,45.8,259.2,46z M259.3,55.3v9.1c0.8,0.4,1.7,0.6,2.6,0.6c1.2,0,2.3-0.6,2.9-1.6
		c0.8-1.3,1.2-2.8,1.1-4.4c0.1-1.4-0.3-2.8-1-3.9c-0.6-0.9-1.5-1.4-2.5-1.4c-0.6,0-1.3,0.2-1.8,0.5
		C260.1,54.5,259.7,54.9,259.3,55.3L259.3,55.3z"/>
	<path class="st3" d="M276.7,58.5V59c-0.1,1.4,0.3,2.9,1.1,4.1c0.7,1,1.7,1.5,2.9,1.5c0.6,0,1.3-0.1,1.9-0.2c0.6-0.2,1.2-0.6,1.8-1
		c0.3,0.1,0.5,0.3,0.5,0.6c-1.1,1.2-2.6,2-4.2,2c-1.8,0.1-3.6-0.6-4.8-1.9c-1.2-1.4-1.9-3.2-1.8-5.1c-0.1-1.9,0.6-3.8,1.9-5.2
		c1.2-1.2,2.9-1.9,4.6-1.8c1.3-0.1,2.6,0.5,3.4,1.5c0.8,1.2,1.2,2.6,1.2,4.1c0,0.2,0,0.5,0,0.7l-0.4,0.3L276.7,58.5z M280.4,53.1
		c-0.9,0-1.7,0.4-2.3,1.1c-0.8,0.9-1.2,2-1.4,3.2l5.7-0.3c0.1-1-0.1-2-0.5-3C281.8,53.5,281.1,53.1,280.4,53.1z"/>
	<path class="st3" d="M300,57.3v7c0.6,0.2,1.2,0.4,1.8,0.5c0.1,0.3,0,0.6-0.1,0.9c-0.7,0.1-1.5,0.2-2.2,0.2c-0.5,0-1,0-1.5-0.2
		l-0.4-1.4h-0.1c-1,1.1-2.5,1.7-4,1.6c-1,0-1.9-0.3-2.7-0.9c-0.7-0.6-1.1-1.5-1-2.5c0-2.9,2.5-4.3,7.5-4.2v-2.3c0-2-0.8-3-2.3-3.1
		c-0.8,0-1.7,0.1-2.5,0.4l-0.3,2.8c-0.4,0.1-0.8,0.2-1.2,0.1c-0.3-1.1-0.5-2.3-0.5-3.4c1.6-0.7,3.4-1.1,5.2-1
		c1.2-0.1,2.4,0.3,3.2,1.2C299.6,53.9,300,55.3,300,57.3z M292.5,62.4c0,0.6,0.2,1.2,0.6,1.6c0.4,0.4,1,0.6,1.5,0.6
		c0.5,0,1.1-0.2,1.6-0.4c0.5-0.2,0.9-0.6,1.2-1v-3.6c-1.3-0.1-2.6,0.1-3.8,0.6C292.8,60.7,292.4,61.5,292.5,62.4L292.5,62.4z"/>
	<path class="st3" d="M318.5,64.3c0.6,0.3,1.2,0.5,1.8,0.5c0.1,0.3,0,0.6-0.1,0.9c-0.7,0.1-1.4,0.2-2.2,0.2c-0.5,0-1,0-1.5-0.2
		l-0.5-1.9H316c-0.7,0.7-1.5,1.2-2.5,1.7c-0.8,0.3-1.7,0.5-2.5,0.4c-2.4,0-3.5-1.3-3.5-3.9V54l-1.9-0.2c-0.1-0.3,0-0.6,0.1-0.9
		c1.1-0.2,2.3-0.4,3.4-0.7c0.3,0,0.7,0.1,1,0.3v9.2c-0.1,0.7,0.1,1.4,0.6,2c0.5,0.4,1.2,0.6,1.9,0.5c0.6,0,1.2-0.2,1.7-0.5
		c0.6-0.3,1.1-0.7,1.5-1.2V54l-1.9-0.2c-0.1-0.3,0-0.6,0.1-0.9c1.1-0.2,2.3-0.4,3.4-0.7c0.3,0,0.7,0.1,1,0.3L318.5,64.3z"/>
	<path class="st3" d="M329.2,66c-0.8,0.1-1.6-0.2-2.2-0.8c-0.6-0.8-0.8-1.7-0.8-2.7v-8.4h-1.8c-0.2-0.4-0.2-0.8-0.1-1.2
		c0.7,0.1,1.5-0.1,2.1-0.6c0.6-0.8,0.9-1.7,1.1-2.6h1.4v2.9h2.8c0.2,0.5,0.2,1,0,1.4h-2.8v7.7c-0.1,0.8,0,1.6,0.3,2.3
		c0.2,0.4,0.6,0.6,1,0.6c0.6,0,1.1-0.2,1.6-0.5c0.3,0.2,0.4,0.5,0.4,0.8c-0.3,0.3-0.7,0.6-1.1,0.7C330.4,65.9,329.8,66,329.2,66z"/>
	<path class="st3" d="M339.2,58.5V59c-0.1,1.4,0.3,2.9,1.1,4.1c0.7,1,1.7,1.5,2.9,1.5c0.6,0,1.3-0.1,1.9-0.2c0.6-0.2,1.2-0.6,1.8-1
		c0.3,0.1,0.5,0.3,0.5,0.6c-1.1,1.2-2.6,2-4.2,2c-1.8,0.1-3.6-0.6-4.8-1.9c-1.3-1.4-1.9-3.2-1.8-5.1c-0.1-1.9,0.6-3.8,1.9-5.2
		c1.2-1.2,2.9-1.9,4.6-1.8c1.3-0.1,2.6,0.5,3.4,1.5c0.8,1.2,1.2,2.6,1.2,4.1c0,0.2,0,0.5,0,0.7l-0.4,0.3L339.2,58.5z M343,53.1
		c-0.9,0-1.7,0.4-2.3,1.1c-0.8,0.9-1.2,2-1.4,3.2l5.7-0.3c0.1-1-0.1-2-0.5-3C344.4,53.5,343.7,53.1,343,53.1z M341.6,50.3l2.1-4.6
		c0.8,0.1,1.5,0.4,2.1,1c-1,1.4-2.1,2.8-3.3,4C342.2,50.7,341.8,50.6,341.6,50.3L341.6,50.3z"/>
	<path class="st4" d="M128.1,79.8c-0.2,0.5-0.4,1-0.6,1.4c-0.2,0.4-0.4,0.8-0.6,1.2c0.3,0,0.6,0,0.8-0.1c0.2,0,0.4-0.1,0.7-0.2
		c0.2-0.1,0.4-0.2,0.6-0.3c0.2-0.1,0.3-0.2,0.4-0.4c0.1-0.2,0.3-0.3,0.4-0.5c0.1-0.2,0.3-0.4,0.4-0.7l0.2-0.4l0.1,0.1l-0.2,0.4
		c-0.1,0.3-0.3,0.5-0.5,0.7c-0.1,0.2-0.3,0.4-0.5,0.5c-0.2,0.1-0.3,0.3-0.5,0.4c-0.2,0.1-0.4,0.2-0.6,0.3c-0.2,0.1-0.5,0.1-0.7,0.2
		c-0.2,0-0.5,0.1-0.8,0.1c-0.2,0.4-0.5,0.8-0.8,1.1c-0.2,0.3-0.5,0.6-0.8,0.8c-0.3,0.2-0.6,0.4-0.9,0.5c-0.3,0.1-0.7,0.2-1,0.2
		c-0.3,0-0.6-0.1-0.9-0.3c-0.2-0.2-0.3-0.5-0.3-0.8c0-0.2,0.1-0.4,0.2-0.6c0.2-0.2,0.4-0.4,0.7-0.5c0.4-0.2,0.8-0.3,1.2-0.3
		c0.5-0.1,1.1-0.2,1.8-0.2c0.1-0.3,0.3-0.6,0.4-0.9s0.3-0.7,0.4-1.1c0.2-0.6,0.4-1,0.6-1.4s0.3-0.7,0.4-1s0.2-0.5,0.3-0.7
		s0.2-0.4,0.3-0.6c0.1-0.3,0.3-0.5,0.5-0.7c0.2-0.2,0.4-0.4,0.6-0.6c-0.2,0.1-0.4,0.1-0.6,0.1c-0.2,0-0.4,0-0.6,0
		c-0.2,0-0.3,0-0.5,0l-0.5-0.1l-0.4-0.1c-0.1,0-0.2,0-0.3,0c-0.1,0-0.2,0-0.3,0.1c-0.1,0.1-0.2,0.1-0.3,0.2
		c-0.1,0.1-0.2,0.2-0.2,0.3c0,0.1-0.1,0.3-0.1,0.4c0,0.2,0,0.3,0.1,0.5l-0.2,0.1c0-0.1-0.1-0.2-0.1-0.2c0-0.1,0-0.2,0-0.3
		c0-0.4,0.2-0.8,0.5-1.1c0.2-0.1,0.3-0.2,0.5-0.3c0.2-0.1,0.4-0.1,0.7-0.1h0.3c0.1,0,0.2,0,0.2,0.1l0.2,0.1l0.3,0.1
		c0.1,0,0.3,0.1,0.4,0.1c0.2,0,0.4,0,0.5,0h0.4h0.3l0.3-0.1l0.4-0.1v0.1l-0.3,0.1c-0.1,0-0.2,0.1-0.3,0.2c-0.1,0.1-0.2,0.1-0.3,0.2
		c-0.1,0.1-0.2,0.2-0.3,0.3c-0.1,0.2-0.2,0.3-0.3,0.5c-0.1,0.2-0.2,0.4-0.3,0.7s-0.3,0.7-0.4,1.1S128.3,79.2,128.1,79.8z
		 M123.4,84.9c0.3,0,0.5,0,0.8-0.1c0.2-0.1,0.5-0.2,0.7-0.4c0.2-0.2,0.4-0.4,0.6-0.7c0.2-0.4,0.4-0.7,0.6-1.1l-0.9,0.1l-0.9,0.1
		c-0.3,0.1-0.5,0.1-0.7,0.2c-0.2,0.1-0.4,0.1-0.6,0.3c-0.1,0.1-0.3,0.2-0.4,0.3c-0.1,0.1-0.1,0.3-0.1,0.4c0,0.2,0.1,0.5,0.3,0.6
		C122.9,84.9,123.2,85,123.4,84.9z"/>
	<path class="st4" d="M132.3,82.8c-0.5,0-1-0.1-1.3-0.4c-0.3-0.4-0.5-0.8-0.5-1.3c0-0.2,0-0.3,0-0.5c0-0.2,0.1-0.4,0.1-0.6
		c0.1-0.4,0.3-0.8,0.5-1.2c0.2-0.3,0.4-0.7,0.7-0.9c0.3-0.2,0.5-0.5,0.9-0.6c0.3-0.1,0.6-0.2,0.9-0.2c0.3,0,0.5,0.1,0.8,0.2
		c0.2,0.2,0.3,0.4,0.3,0.6c0,0.2,0,0.3-0.1,0.4c-0.1,0.2-0.2,0.3-0.3,0.4c-0.1,0.1-0.3,0.3-0.4,0.4c-0.2,0.1-0.4,0.2-0.5,0.3
		c-0.3,0.1-0.5,0.2-0.8,0.2c-0.3,0.1-0.7,0.1-1,0.1c-0.1,0.3-0.2,0.5-0.2,0.8c-0.1,0.3-0.1,0.6-0.1,0.8c0,0.4,0.1,0.7,0.3,1
		c0.2,0.2,0.6,0.3,0.9,0.3c0.3,0,0.7-0.1,1-0.2c0.3-0.1,0.6-0.3,0.8-0.5c0.3-0.2,0.5-0.4,0.7-0.7c0.2-0.3,0.4-0.5,0.6-0.8l0.2-0.4
		l0.1,0.1l-0.2,0.4c-0.2,0.4-0.4,0.7-0.6,1c-0.2,0.3-0.5,0.5-0.8,0.7c-0.3,0.2-0.6,0.4-0.9,0.5C133,82.8,132.6,82.9,132.3,82.8z
		 M133.8,77.2c-0.2,0-0.4,0.1-0.6,0.2c-0.2,0.1-0.4,0.3-0.6,0.5c-0.2,0.2-0.4,0.5-0.5,0.7c-0.2,0.3-0.3,0.6-0.4,0.9
		c0.3,0,0.6,0,0.9-0.1c0.2,0,0.4-0.1,0.6-0.2c0.2-0.1,0.3-0.2,0.4-0.3c0.1-0.1,0.3-0.2,0.4-0.3c0.1-0.1,0.2-0.3,0.3-0.4
		c0.1-0.2,0.1-0.3,0.1-0.5c0-0.1,0-0.1,0-0.2c0-0.1-0.1-0.1-0.1-0.1c0,0-0.1-0.1-0.2-0.1C134,77.2,133.9,77.2,133.8,77.2z"/>
	<path class="st4" d="M140.7,77h0.7l-0.8,2.1c0.3-0.6,0.7-1.1,1.2-1.5c0.3-0.3,0.8-0.5,1.2-0.5c0.2,0,0.3,0,0.5,0.1
		c0.1,0.1,0.3,0.2,0.3,0.3c0.1,0.1,0.2,0.3,0.2,0.4c0,0.2,0.1,0.4,0.1,0.6c0,0.2,0,0.5-0.1,0.7c0,0.3-0.1,0.5-0.2,0.8
		c-0.1,0.5-0.4,0.9-0.6,1.3c-0.2,0.3-0.5,0.7-0.9,0.9c-0.3,0.2-0.6,0.4-1,0.5c-0.3,0.1-0.6,0.2-0.9,0.2c-0.1,0-0.3,0-0.4-0.1
		c-0.1,0-0.2-0.1-0.3-0.2c-0.1-0.1-0.1-0.2-0.2-0.3c0-0.2-0.1-0.3-0.1-0.5l-1.3,3.4h-0.7L140.7,77z M142.9,77.3
		c-0.2,0-0.4,0.1-0.5,0.1c-0.2,0.1-0.4,0.2-0.5,0.4c-0.2,0.2-0.4,0.4-0.5,0.6c-0.2,0.2-0.3,0.5-0.5,0.7c-0.3,0.5-0.6,1-0.8,1.5
		c-0.1,0.2-0.2,0.5-0.2,0.7c0,0.2-0.1,0.4-0.1,0.6c0,0.1,0,0.2,0,0.3c0,0.1,0.1,0.2,0.1,0.2c0.1,0.1,0.1,0.1,0.2,0.2
		c0.1,0,0.2,0.1,0.3,0.1c0.2,0,0.4,0,0.6-0.1c0.2-0.1,0.5-0.3,0.7-0.4c0.3-0.2,0.5-0.5,0.7-0.8c0.3-0.4,0.5-0.8,0.7-1.3
		c0.1-0.2,0.1-0.4,0.2-0.5s0.1-0.3,0.1-0.5s0.1-0.3,0.1-0.5c0-0.1,0-0.3,0-0.4c0-0.2,0-0.4-0.1-0.6C143.2,77.4,143,77.3,142.9,77.3z
		"/>
	<path class="st4" d="M148.4,77.5c0-0.1,0-0.1-0.1-0.2c-0.1-0.1-0.2-0.1-0.3-0.1c-0.1,0-0.3,0-0.4,0.1c-0.2,0.1-0.4,0.2-0.5,0.4
		c-0.2,0.2-0.4,0.5-0.6,0.8c-0.2,0.3-0.5,0.8-0.8,1.3l-0.2,0.4l-0.9,2.5h-0.7l2.1-5.6h0.7l-0.8,2.3c0.2-0.4,0.5-0.8,0.7-1.1
		c0.2-0.3,0.4-0.5,0.6-0.7c0.1-0.2,0.3-0.3,0.5-0.4c0.1-0.1,0.3-0.1,0.5-0.1c0.4,0,0.7,0.3,0.7,0.6c0,0,0,0,0,0.1c0,0.1,0,0.2,0,0.2
		c0,0.1,0,0.1-0.1,0.2c0,0.1-0.1,0.1-0.1,0.1c-0.1,0-0.1,0-0.2,0c0,0-0.1,0-0.1,0l-0.1-0.1c0,0-0.1-0.1-0.1-0.1c0-0.1,0-0.1,0-0.2
		c0-0.1,0-0.1,0-0.2c0,0,0-0.1,0.1-0.1c0,0,0.1-0.1,0.1-0.1c0,0,0.1,0,0.1,0L148.4,77.5L148.4,77.5L148.4,77.5
		C148.4,77.6,148.4,77.6,148.4,77.5z"/>
	<path class="st4" d="M151.1,82.9c-0.5,0-1-0.1-1.3-0.4c-0.3-0.4-0.5-0.8-0.4-1.3c0-0.2,0-0.3,0-0.5c0-0.2,0.1-0.4,0.1-0.6
		c0.1-0.4,0.3-0.8,0.5-1.2c0.2-0.3,0.4-0.6,0.7-0.9c0.3-0.3,0.5-0.5,0.9-0.6c0.3-0.1,0.6-0.2,0.9-0.2c0.3,0,0.5,0.1,0.7,0.2
		c0.2,0.2,0.3,0.4,0.3,0.6c0,0.2,0,0.3-0.1,0.4c-0.1,0.2-0.2,0.3-0.3,0.4c-0.1,0.1-0.3,0.3-0.4,0.4c-0.2,0.1-0.4,0.2-0.5,0.3
		c-0.3,0.1-0.5,0.2-0.8,0.2c-0.3,0.1-0.7,0.1-1,0.1c-0.1,0.3-0.2,0.5-0.2,0.8c-0.1,0.3-0.1,0.6-0.1,0.8c0,0.3,0.1,0.7,0.3,0.9
		c0.2,0.2,0.6,0.3,0.9,0.3c0.3,0,0.6-0.1,0.9-0.2c0.3-0.1,0.6-0.3,0.9-0.5c0.3-0.2,0.5-0.4,0.7-0.7c0.2-0.3,0.4-0.5,0.6-0.8l0.2-0.4
		l0.1,0.1l-0.2,0.4c-0.2,0.4-0.4,0.7-0.6,1c-0.2,0.3-0.5,0.5-0.8,0.7c-0.3,0.2-0.6,0.4-0.9,0.5C151.8,82.9,151.4,82.9,151.1,82.9z
		 M152.6,77.3c-0.2,0-0.4,0.1-0.6,0.2c-0.2,0.1-0.4,0.3-0.6,0.5c-0.2,0.2-0.4,0.5-0.6,0.7c-0.2,0.3-0.3,0.6-0.4,0.9
		c0.3,0,0.6,0,0.9-0.1c0.2,0,0.4-0.1,0.6-0.2c0.2-0.1,0.3-0.1,0.4-0.2c0.1-0.1,0.3-0.2,0.4-0.4c0.1-0.1,0.2-0.3,0.3-0.4
		c0.1-0.2,0.1-0.3,0.1-0.5c0-0.1,0-0.1,0-0.2c0-0.1-0.1-0.1-0.1-0.1c0,0-0.1-0.1-0.2-0.1L152.6,77.3z"/>
	<path class="st4" d="M155.7,77.2h0.7l-0.8,2c0.2-0.3,0.4-0.6,0.6-0.9c0.2-0.2,0.4-0.5,0.6-0.7c0.2-0.2,0.4-0.3,0.6-0.4
		c0.2-0.1,0.4-0.1,0.6-0.1c0.2,0,0.4,0,0.5,0.1c0.1,0.1,0.3,0.1,0.4,0.3c0.1,0.1,0.2,0.3,0.2,0.4c0,0.2,0.1,0.3,0.1,0.5
		c0,0.2,0,0.4-0.1,0.6c0,0.2-0.1,0.4-0.2,0.7s-0.2,0.4-0.3,0.7l-0.3,0.7c-0.1,0.2-0.1,0.4-0.2,0.6c0,0.2-0.1,0.3-0.1,0.5
		c0,0.2,0.1,0.4,0.2,0.5c0.1,0.1,0.3,0.2,0.6,0.2c0.2,0,0.4,0,0.6-0.1c0.2-0.1,0.4-0.2,0.6-0.4c0.2-0.2,0.4-0.4,0.6-0.7
		c0.2-0.3,0.4-0.7,0.6-1l0.2-0.4l0.1,0.1l-0.2,0.4c-0.2,0.4-0.4,0.7-0.6,1c-0.2,0.3-0.4,0.5-0.6,0.7c-0.2,0.2-0.4,0.3-0.6,0.4
		c-0.2,0.1-0.5,0.2-0.7,0.2c-0.2,0-0.4,0-0.5-0.1c-0.1-0.1-0.3-0.1-0.4-0.2c-0.1-0.1-0.2-0.2-0.2-0.4c0-0.1-0.1-0.3-0.1-0.4
		c0-0.2,0-0.4,0.1-0.6c0-0.2,0.1-0.4,0.2-0.6s0.2-0.4,0.3-0.7s0.2-0.4,0.3-0.7s0.1-0.4,0.2-0.6c0-0.2,0.1-0.3,0.1-0.5
		c0-0.1,0-0.2,0-0.3c0-0.1-0.1-0.2-0.1-0.2c-0.1-0.1-0.1-0.1-0.2-0.2c-0.1,0-0.2-0.1-0.3-0.1c-0.2,0-0.4,0.1-0.6,0.1
		c-0.2,0.1-0.4,0.3-0.6,0.4c-0.2,0.2-0.4,0.5-0.6,0.7c-0.2,0.3-0.4,0.6-0.6,1l-0.2,0.4l-1,2.7h-0.7L155.7,77.2z"/>
	<path class="st4" d="M161.7,80.1c0.1-0.3,0.2-0.6,0.4-0.9c0.2-0.3,0.3-0.5,0.5-0.8c0.2-0.2,0.4-0.4,0.6-0.6
		c0.2-0.1,0.4-0.3,0.6-0.4c0.2-0.1,0.4-0.2,0.6-0.2c0.2-0.1,0.4-0.1,0.6-0.1c0.2,0,0.3,0,0.4,0.1c0.1,0.1,0.2,0.1,0.3,0.2
		c0.1,0.1,0.1,0.2,0.2,0.4c0,0.2,0,0.3,0,0.5l1.3-3.5h0.7l-2.1,5.8c-0.1,0.1-0.1,0.2-0.1,0.4s-0.1,0.2-0.1,0.4
		c0,0.1-0.1,0.2-0.1,0.4c0,0.1,0,0.2,0,0.3c0,0.2,0.1,0.4,0.2,0.5c0.1,0.1,0.3,0.2,0.5,0.2c0.2,0,0.4,0,0.6-0.1
		c0.2-0.1,0.4-0.2,0.6-0.4c0.2-0.2,0.4-0.4,0.6-0.7c0.2-0.3,0.4-0.7,0.6-1l0.2-0.4l0.1,0.1l-0.2,0.4c-0.2,0.4-0.5,0.8-0.7,1
		c-0.2,0.3-0.4,0.5-0.6,0.7c-0.2,0.2-0.4,0.3-0.6,0.4c-0.2,0.1-0.5,0.1-0.7,0.1c-0.2,0-0.3,0-0.5-0.1c-0.1-0.1-0.3-0.1-0.4-0.3
		c-0.1-0.1-0.2-0.2-0.2-0.4c0-0.2-0.1-0.3-0.1-0.5c0-0.1,0-0.3,0-0.4c0-0.2,0.1-0.3,0.1-0.4c-0.3,0.6-0.7,1.1-1.2,1.6
		c-0.3,0.3-0.8,0.5-1.2,0.5c-0.2,0-0.3,0-0.5-0.1c-0.1-0.1-0.2-0.2-0.3-0.3c-0.1-0.1-0.2-0.3-0.2-0.4c0-0.2-0.1-0.4-0.1-0.6
		c0-0.2,0-0.5,0.1-0.7C161.6,80.6,161.6,80.3,161.7,80.1z M162.7,82.7c0.2,0,0.4,0,0.5-0.1c0.2-0.1,0.4-0.2,0.5-0.4
		c0.2-0.2,0.4-0.3,0.5-0.5c0.2-0.2,0.3-0.4,0.5-0.7c0.2-0.2,0.3-0.5,0.4-0.7c0.1-0.2,0.2-0.5,0.3-0.7c0.1-0.2,0.2-0.5,0.2-0.7
		c0-0.2,0.1-0.4,0.1-0.6c0-0.1,0-0.3,0-0.4c0-0.1-0.1-0.2-0.2-0.3c-0.1-0.1-0.1-0.1-0.2-0.1c-0.1,0-0.2,0-0.3-0.1
		c-0.2,0-0.4,0.1-0.6,0.2c-0.2,0.1-0.5,0.3-0.7,0.5c-0.3,0.3-0.5,0.5-0.7,0.8c-0.2,0.4-0.4,0.8-0.6,1.2c-0.1,0.3-0.2,0.7-0.3,1.1
		c-0.1,0.3-0.1,0.5-0.1,0.8c0,0.2,0,0.4,0.1,0.6C162.4,82.7,162.6,82.7,162.7,82.7z"/>
	<path class="st4" d="M168.4,81.6c0-0.2,0-0.3,0.1-0.5c0-0.2,0.1-0.3,0.1-0.4c0.1-0.1,0.1-0.3,0.2-0.4c0.1-0.1,0.2-0.2,0.2-0.2
		l2-2.9c0-0.2,0.1-0.4,0.2-0.6c0-0.1,0.2-0.2,0.3-0.2c0.1,0,0.2,0,0.2,0.1c0.1,0,0.1,0.1,0.1,0.2c0,0,0,0.1,0,0.1
		c0,0.1-0.1,0.1-0.1,0.1c-0.1,0.1-0.1,0.1-0.2,0.2c0,0-0.1,0.1-0.1,0.2c0,0.1-0.1,0.1-0.1,0.2c0,0.1,0,0.1,0,0.2c0,0.1,0,0.1,0,0.2
		c0,0.1,0,0.2,0.1,0.3c0,0.1,0.1,0.3,0.1,0.4s0.1,0.4,0.2,0.7c0.1,0.2,0.1,0.5,0.2,0.8c0,0.2,0.1,0.5,0.1,0.7c0,0.8-0.3,1.6-1,2
		c-0.2,0.1-0.4,0.2-0.6,0.3c-0.2,0.1-0.4,0.1-0.7,0.1c-0.2,0-0.4,0-0.6-0.1c-0.2-0.1-0.3-0.1-0.4-0.3c-0.1-0.1-0.2-0.3-0.3-0.4
		C168.4,82,168.4,81.8,168.4,81.6z M171,77.5l-1.7,2.5c0.1,0,0.2,0,0.2,0.1c0.1,0.1,0.1,0.2,0.1,0.3c0,0.1,0,0.1,0,0.2
		c0,0,0,0.1-0.1,0.1c0,0-0.1,0.1-0.1,0.1c0,0-0.1,0-0.1,0c0,0-0.1,0-0.1,0s-0.1,0-0.1,0c-0.1,0-0.1,0-0.2,0.1
		c-0.1,0.1-0.1,0.1-0.1,0.2c0,0.1-0.1,0.2-0.1,0.3c0,0.1,0,0.2,0,0.4c0,0.2,0,0.3,0.1,0.5c0,0.1,0.1,0.3,0.2,0.4
		c0.1,0.1,0.2,0.2,0.3,0.2c0.1,0.1,0.3,0.1,0.4,0.1c0.4,0,0.8-0.2,1.1-0.6c0.4-0.6,0.6-1.3,0.5-2V80c0-0.1,0-0.2,0-0.3
		s0-0.2-0.1-0.4s0-0.3-0.1-0.4s-0.1-0.5-0.1-0.7c0-0.2,0-0.3,0-0.5L171,77.5z"/>
	<path class="st4" d="M181.3,77.7c0-0.1,0-0.1-0.1-0.2c-0.1-0.1-0.2-0.1-0.3-0.1c-0.1,0-0.3,0-0.4,0.1c-0.2,0.1-0.4,0.2-0.5,0.4
		c-0.2,0.2-0.4,0.5-0.6,0.8c-0.2,0.3-0.5,0.8-0.8,1.3l-0.2,0.4l-0.9,2.5h-0.7l2.1-5.6h0.7l-0.8,2.3c0.3-0.4,0.5-0.8,0.7-1.1
		c0.2-0.3,0.4-0.5,0.6-0.7c0.2-0.2,0.3-0.3,0.5-0.4c0.1-0.1,0.3-0.1,0.5-0.1c0.2,0,0.4,0.1,0.5,0.2c0.1,0.1,0.2,0.3,0.2,0.5
		c0,0.1,0,0.2,0,0.2c0,0.1-0.1,0.1-0.1,0.2c0,0.1-0.1,0.1-0.1,0.1c-0.1,0-0.1,0-0.2,0h-0.1c0,0-0.1,0-0.1-0.1c0,0-0.1-0.1-0.1-0.1
		c0-0.1,0-0.1,0-0.2c0-0.1,0-0.1,0-0.2c0,0,0-0.1,0.1-0.1c0,0,0.1-0.1,0.1-0.1c0,0,0.1,0,0.1,0L181.3,77.7L181.3,77.7L181.3,77.7
		C181.3,77.8,181.3,77.8,181.3,77.7z"/>
	<path class="st4" d="M184,83.1c-0.5,0-1-0.1-1.3-0.4c-0.3-0.4-0.5-0.8-0.5-1.3c0-0.2,0-0.3,0-0.5c0-0.2,0.1-0.4,0.1-0.6
		c0.1-0.4,0.3-0.8,0.5-1.2c0.2-0.3,0.4-0.7,0.7-0.9c0.3-0.2,0.5-0.5,0.9-0.6c0.3-0.1,0.6-0.2,0.9-0.2c0.3,0,0.5,0.1,0.8,0.2
		c0.2,0.2,0.3,0.4,0.3,0.6c0,0.2,0,0.3-0.1,0.4c-0.1,0.1-0.2,0.3-0.3,0.4c-0.1,0.1-0.3,0.3-0.4,0.4c-0.2,0.1-0.4,0.2-0.5,0.3
		c-0.3,0.1-0.5,0.2-0.8,0.2c-0.3,0.1-0.7,0.1-1,0.1c-0.1,0.3-0.2,0.5-0.2,0.8c-0.1,0.3-0.1,0.6-0.1,0.8c0,0.4,0.1,0.7,0.3,1
		c0.2,0.2,0.6,0.3,0.9,0.3c0.3,0,0.7-0.1,1-0.2c0.3-0.1,0.6-0.3,0.8-0.5c0.3-0.2,0.5-0.4,0.7-0.7c0.2-0.3,0.4-0.5,0.6-0.8l0.2-0.4
		l0.1,0.1l-0.2,0.4c-0.2,0.4-0.4,0.7-0.6,1c-0.2,0.3-0.5,0.5-0.8,0.7c-0.3,0.2-0.6,0.4-0.9,0.5C184.7,83.1,184.3,83.1,184,83.1z
		 M185.5,77.5c-0.2,0-0.4,0.1-0.6,0.2c-0.2,0.1-0.4,0.3-0.6,0.5c-0.2,0.2-0.4,0.5-0.5,0.7c-0.2,0.3-0.3,0.6-0.4,0.9
		c0.3,0,0.6,0,0.9-0.1c0.2,0,0.4-0.1,0.6-0.2c0.1-0.1,0.3-0.2,0.4-0.3c0.1-0.1,0.3-0.2,0.4-0.4c0.1-0.1,0.2-0.3,0.3-0.4
		c0.1-0.2,0.1-0.3,0.1-0.5c0-0.1,0-0.1,0-0.2c0-0.1-0.1-0.1-0.1-0.1c0,0-0.1-0.1-0.2-0.1C185.7,77.5,185.6,77.5,185.5,77.5z"/>
	<path class="st4" d="M188.6,77.4h0.7l-0.8,2c0.2-0.4,0.4-0.7,0.6-0.9c0.2-0.2,0.4-0.5,0.6-0.7c0.2-0.2,0.4-0.3,0.6-0.4
		c0.2-0.1,0.4-0.1,0.6-0.1c0.2,0,0.4,0,0.5,0.1c0.1,0.1,0.3,0.1,0.4,0.3c0.1,0.1,0.2,0.2,0.2,0.4c0.1,0.2,0.1,0.3,0.1,0.5
		c0,0.2,0,0.4-0.1,0.6c-0.1,0.2-0.1,0.4-0.2,0.7s-0.2,0.4-0.3,0.7s-0.2,0.4-0.3,0.7c-0.1,0.2-0.1,0.4-0.2,0.6
		c-0.1,0.2-0.1,0.3-0.1,0.5c0,0.2,0.1,0.3,0.2,0.5c0.1,0.1,0.4,0.2,0.6,0.2c0.2,0,0.4-0.1,0.6-0.1c0.2-0.1,0.4-0.2,0.6-0.4
		c0.2-0.2,0.4-0.4,0.6-0.7c0.2-0.3,0.4-0.7,0.6-1l0.2-0.4l0.1,0.1l-0.2,0.4c-0.2,0.4-0.5,0.7-0.7,1c-0.2,0.3-0.4,0.5-0.6,0.7
		c-0.2,0.2-0.4,0.3-0.6,0.4c-0.2,0.1-0.5,0.1-0.7,0.1c-0.2,0-0.4,0-0.5-0.1c-0.1-0.1-0.3-0.1-0.4-0.2c-0.1-0.1-0.2-0.2-0.2-0.4
		c-0.1-0.1-0.1-0.3-0.1-0.4c0-0.2,0-0.4,0.1-0.6c0.1-0.2,0.1-0.4,0.2-0.6c0.1-0.2,0.2-0.4,0.2-0.7s0.2-0.4,0.3-0.7
		c0.1-0.2,0.1-0.4,0.2-0.6c0.1-0.2,0.1-0.3,0.1-0.5c0-0.1,0-0.2,0-0.3c0-0.1-0.1-0.2-0.1-0.2c-0.1-0.1-0.1-0.1-0.2-0.2
		c-0.1,0-0.2-0.1-0.3-0.1c-0.2,0-0.4,0.1-0.6,0.1c-0.2,0.1-0.4,0.3-0.6,0.4c-0.2,0.2-0.4,0.5-0.6,0.7c-0.2,0.3-0.4,0.6-0.6,1
		l-0.2,0.4l-1,2.7h-0.7L188.6,77.4z"/>
	<path class="st4" d="M194.7,80.3c0.1-0.3,0.2-0.6,0.4-0.9c0.2-0.3,0.3-0.5,0.5-0.7c0.2-0.2,0.4-0.4,0.6-0.6
		c0.2-0.2,0.4-0.3,0.6-0.4c0.2-0.1,0.4-0.2,0.6-0.2c0.2,0,0.4-0.1,0.6-0.1c0.2,0,0.3,0,0.4,0.1c0.1,0.1,0.2,0.1,0.3,0.2
		c0.1,0.1,0.1,0.2,0.2,0.4c0,0.2,0,0.3,0,0.5l1.3-3.5h0.7l-2.1,5.8c0,0.1-0.1,0.2-0.1,0.4c0,0.1-0.1,0.3-0.1,0.4
		c0,0.1-0.1,0.2-0.1,0.4c0,0.1,0,0.2,0,0.3c0,0.2,0,0.4,0.2,0.5c0.1,0.1,0.3,0.2,0.5,0.2c0.2,0,0.4,0,0.6-0.1
		c0.2-0.1,0.4-0.2,0.6-0.4c0.2-0.2,0.4-0.4,0.6-0.7c0.2-0.3,0.4-0.7,0.6-1l0.2-0.4l0.1,0.1l-0.2,0.4c-0.2,0.4-0.5,0.8-0.7,1.1
		c-0.2,0.3-0.4,0.5-0.6,0.7c-0.2,0.2-0.4,0.3-0.6,0.4c-0.2,0.1-0.5,0.1-0.7,0.1c-0.2,0-0.3,0-0.5-0.1c-0.1-0.1-0.3-0.1-0.4-0.2
		c-0.1-0.1-0.2-0.2-0.2-0.4c-0.1-0.2-0.1-0.3-0.1-0.5c0-0.1,0-0.3,0-0.4c0-0.2,0.1-0.3,0.1-0.4c-0.3,0.6-0.7,1.1-1.2,1.6
		c-0.3,0.3-0.8,0.5-1.2,0.5c-0.3,0-0.7-0.1-0.8-0.4c-0.1-0.1-0.2-0.3-0.2-0.5c0-0.2-0.1-0.4-0.1-0.6c0-0.2,0-0.5,0.1-0.7
		C194.5,80.8,194.6,80.5,194.7,80.3z M195.7,82.9c0.2,0,0.4,0,0.5-0.1c0.2-0.1,0.4-0.2,0.5-0.4c0.2-0.2,0.4-0.4,0.5-0.6
		c0.2-0.2,0.3-0.4,0.5-0.7s0.3-0.5,0.4-0.7s0.2-0.5,0.3-0.8c0.1-0.2,0.2-0.5,0.2-0.7c0-0.2,0.1-0.4,0.1-0.6c0-0.1,0-0.3-0.1-0.4
		c0-0.1-0.1-0.2-0.1-0.3c-0.1-0.1-0.1-0.1-0.2-0.1c-0.1,0-0.2,0-0.3,0c-0.2,0-0.4,0.1-0.6,0.2c-0.2,0.1-0.5,0.3-0.7,0.5
		c-0.2,0.3-0.5,0.5-0.7,0.8c-0.2,0.4-0.4,0.8-0.6,1.2c-0.1,0.3-0.3,0.7-0.3,1.1c-0.1,0.3-0.1,0.5-0.1,0.8c0,0.2,0,0.4,0.1,0.6
		C195.3,82.9,195.5,82.9,195.7,82.9L195.7,82.9z"/>
	<path class="st4" d="M203.6,83.2c-0.5,0-1-0.1-1.3-0.5c-0.3-0.4-0.5-0.8-0.5-1.3c0-0.2,0-0.3,0-0.5c0-0.2,0.1-0.4,0.1-0.6
		c0.1-0.4,0.3-0.8,0.5-1.2c0.2-0.3,0.4-0.7,0.7-0.9c0.3-0.2,0.5-0.5,0.9-0.6c0.3-0.1,0.6-0.2,0.9-0.2c0.3,0,0.5,0.1,0.8,0.2
		c0.2,0.2,0.3,0.4,0.3,0.6c0,0.2,0,0.3-0.1,0.4c-0.1,0.2-0.2,0.3-0.3,0.4c-0.1,0.1-0.3,0.3-0.4,0.4c-0.2,0.1-0.3,0.2-0.5,0.3
		c-0.3,0.1-0.5,0.2-0.8,0.2c-0.3,0.1-0.7,0.1-1,0.1c-0.1,0.3-0.2,0.5-0.2,0.8c-0.1,0.3-0.1,0.6-0.1,0.8c0,0.4,0.1,0.7,0.3,1
		c0.2,0.2,0.6,0.3,0.9,0.3c0.3,0,0.6-0.1,0.9-0.2c0.3-0.1,0.6-0.3,0.8-0.5c0.3-0.2,0.5-0.5,0.7-0.7c0.2-0.3,0.4-0.5,0.6-0.8l0.2-0.4
		l0.1,0.1l-0.2,0.4c-0.2,0.4-0.4,0.7-0.6,1c-0.2,0.3-0.5,0.5-0.8,0.8c-0.3,0.2-0.6,0.4-0.9,0.5C204.2,83.2,203.9,83.2,203.6,83.2z
		 M205.1,77.6c-0.2,0-0.4,0.1-0.6,0.2c-0.2,0.1-0.4,0.3-0.6,0.5c-0.2,0.2-0.4,0.5-0.5,0.7c-0.2,0.3-0.3,0.6-0.4,0.9
		c0.3,0,0.6,0,0.9-0.1c0.2,0,0.4-0.1,0.6-0.2c0.2-0.1,0.3-0.2,0.4-0.3c0.1-0.1,0.3-0.2,0.4-0.4c0.1-0.1,0.2-0.3,0.3-0.4
		c0.1-0.2,0.1-0.3,0.1-0.5c0-0.1,0-0.1,0-0.2c0-0.1-0.1-0.1-0.1-0.1c0,0-0.1-0.1-0.1-0.1C205.2,77.6,205.1,77.6,205.1,77.6z"/>
	<path class="st4" d="M212.9,77.7l-4.5,4.6l0.2-0.1c0.1,0,0.2,0,0.3,0c0.1,0,0.3,0,0.4,0l0.5,0.1c0.2,0,0.3,0.1,0.5,0.2l0.4,0.2
		l0.4,0.1c0.1,0,0.2,0,0.3,0h0.2c0.1,0,0.1,0,0.2,0c0.1,0,0.1-0.1,0.2-0.1l0.2-0.2c0.2-0.2,0.4-0.4,0.6-0.7c0.2-0.3,0.4-0.6,0.7-1
		l0.3-0.4l0.1,0.1l-0.3,0.4c-0.2,0.4-0.5,0.8-0.7,1.1c-0.2,0.3-0.4,0.5-0.6,0.7c-0.1,0.1-0.2,0.2-0.3,0.3c-0.1,0.1-0.2,0.1-0.4,0.2
		c-0.1,0-0.3,0.1-0.4,0.1h-0.4c-0.1,0-0.3,0-0.4,0c-0.1,0-0.3-0.1-0.4-0.1c-0.1,0-0.3-0.1-0.4-0.2l-0.4-0.2c-0.1,0-0.3-0.1-0.4-0.1
		c-0.1,0-0.2,0-0.4,0c-0.1,0-0.1,0-0.2,0c-0.1,0-0.1,0.1-0.2,0.1l-0.2,0.2l-0.3,0.3l-0.1-0.2l4.8-5c-0.2,0.1-0.4,0.2-0.6,0.3
		c-0.2,0.1-0.4,0.1-0.6,0.1c-0.1,0-0.2,0-0.4,0l-0.4-0.1l-0.4-0.2l-0.3-0.2l-0.3-0.1c-0.1,0-0.1,0-0.2,0c-0.1,0-0.2,0.1-0.3,0.2
		c-0.1,0.1-0.3,0.3-0.4,0.4c-0.1,0.2-0.3,0.4-0.5,0.7s-0.4,0.6-0.6,0.9l-0.3,0.4l-0.1-0.1l0.3-0.4c0.2-0.5,0.5-0.8,0.7-1.2
		c0.2-0.3,0.4-0.5,0.6-0.8c0.1-0.2,0.3-0.3,0.5-0.5c0.2-0.1,0.4-0.1,0.6-0.1c0.2,0,0.3,0,0.5,0.1l0.5,0.2l0.5,0.2
		c0.2,0.1,0.3,0.1,0.5,0.1c0.2,0,0.4,0,0.5-0.1C212.4,78,212.6,77.8,212.9,77.7L212.9,77.7z"/>
	<path class="st4" d="M214.9,79.9h3l-0.2,0.4h-3L214.9,79.9z"/>
	<path class="st4" d="M219.6,80.9c-0.1,0.3-0.2,0.6-0.3,0.8c-0.1,0.2-0.1,0.4-0.1,0.6c0,0.2,0.1,0.4,0.2,0.5
		c0.1,0.1,0.3,0.2,0.5,0.2c0.2,0,0.5-0.1,0.7-0.2c0.2-0.1,0.5-0.3,0.7-0.5c0.2-0.2,0.4-0.4,0.6-0.7c0.2-0.3,0.4-0.6,0.5-0.9
		c0.1-0.3,0.2-0.6,0.3-0.9c0.1-0.3,0.1-0.7,0.1-1c0-0.2,0-0.4,0-0.6c0-0.1-0.1-0.2-0.1-0.3c0-0.1-0.1-0.1-0.1-0.2c0,0,0-0.1-0.1-0.1
		c0-0.1,0-0.1,0.1-0.2c0,0,0.1-0.1,0.2-0.1c0.1,0,0.1,0,0.2,0.1c0.1,0.1,0.1,0.1,0.1,0.2c0,0.1,0.1,0.2,0.1,0.3c0,0.1,0,0.3,0,0.4
		c0,0.2,0,0.4-0.1,0.6c0,0.2-0.1,0.4-0.1,0.6c0,0.2-0.1,0.4-0.2,0.6l-0.2,0.5c-0.2,0.3-0.3,0.7-0.6,1c-0.2,0.3-0.4,0.5-0.7,0.7
		c-0.2,0.2-0.5,0.4-0.7,0.5c-0.2,0.1-0.5,0.2-0.8,0.2c-0.2,0-0.3,0-0.5-0.1c-0.1-0.1-0.3-0.1-0.4-0.2c-0.1-0.1-0.2-0.2-0.2-0.4
		c0-0.2-0.1-0.3-0.1-0.5c0-0.2,0-0.4,0.1-0.5c0-0.2,0.1-0.4,0.2-0.6l1.2-3.3h0.7L219.6,80.9z"/>
	<path class="st4" d="M224.5,80.5c0.1-0.4,0.3-0.8,0.5-1.2c0.2-0.3,0.5-0.7,0.7-0.9c0.3-0.3,0.6-0.5,0.9-0.6c0.3-0.1,0.7-0.2,1-0.2
		c0.2,0,0.5,0,0.7,0.1c0.2,0.1,0.3,0.2,0.4,0.4c0.1,0.2,0.2,0.3,0.2,0.5c0,0.2,0.1,0.4,0.1,0.6c0,0.2,0,0.5-0.1,0.7
		c0,0.2-0.1,0.5-0.2,0.7l-0.1,0.4c-0.1,0.1-0.1,0.2-0.2,0.4c0,0.1,0.1,0.2,0.2,0.2c0.1,0.1,0.2,0.1,0.4,0.1c0.2,0,0.4-0.1,0.6-0.2
		c0.1-0.1,0.2-0.2,0.3-0.2c0.1-0.1,0.2-0.2,0.3-0.4l0.2-0.4l0.1,0.1l-0.2,0.4c-0.1,0.2-0.2,0.4-0.4,0.5c-0.1,0.1-0.2,0.2-0.4,0.3
		c-0.1,0.1-0.2,0.1-0.3,0.1H229c-0.1,0-0.3,0-0.4-0.1c-0.1,0-0.2-0.1-0.3-0.2c-0.2,0.2-0.3,0.5-0.5,0.7c-0.2,0.2-0.4,0.4-0.6,0.5
		c-0.2,0.1-0.4,0.3-0.7,0.3c-0.2,0.1-0.4,0.1-0.7,0.1c-0.2,0-0.4,0-0.6-0.1c-0.2-0.1-0.3-0.2-0.5-0.3c-0.1-0.2-0.2-0.4-0.3-0.6
		c-0.1-0.2-0.1-0.5-0.1-0.8c0-0.2,0-0.4,0-0.5C224.4,80.8,224.5,80.6,224.5,80.5z M225.9,83.1c0.2,0,0.4,0,0.6-0.1
		c0.2-0.1,0.4-0.2,0.6-0.4c0.2-0.2,0.4-0.3,0.5-0.6c0.2-0.2,0.3-0.5,0.5-0.7c0-0.1-0.1-0.2-0.1-0.2c0-0.1,0-0.2,0-0.2
		c0-0.1,0-0.2,0-0.3c0-0.1,0.1-0.2,0.1-0.2c0.1-0.1,0.1-0.2,0.2-0.2c0.1-0.1,0.2-0.1,0.3-0.2c0.1-0.2,0.1-0.4,0.1-0.6
		c0-0.2,0-0.4,0.1-0.6c0-0.1,0-0.3,0-0.4c0-0.1-0.1-0.2-0.1-0.4c-0.1-0.1-0.2-0.2-0.3-0.2c-0.1-0.1-0.3-0.1-0.4-0.1
		c-0.3,0-0.5,0.1-0.7,0.2c-0.3,0.1-0.5,0.3-0.7,0.6c-0.2,0.3-0.4,0.5-0.6,0.8c-0.2,0.4-0.3,0.7-0.4,1.1c-0.1,0.3-0.1,0.5-0.2,0.8
		c0,0.2-0.1,0.5-0.1,0.7C225.1,82.7,225.4,83.1,225.9,83.1z"/>
	<path class="st4" d="M231.7,77.6h0.7l-1.2,3.4l-0.1,0.4c0,0.1-0.1,0.3-0.1,0.4c0,0.1-0.1,0.2-0.1,0.4c0,0.1,0,0.2,0,0.3
		c0,0.2,0,0.4,0.2,0.5c0.1,0.1,0.3,0.2,0.5,0.2c0.2,0,0.4,0,0.6-0.1c0.2-0.1,0.4-0.2,0.6-0.4c0.2-0.2,0.4-0.4,0.6-0.7
		c0.2-0.3,0.4-0.7,0.6-1l0.2-0.4l1.1-2.8h0.7l-1.3,3.3l-0.1,0.4c0,0.1-0.1,0.3-0.1,0.4c0,0.1-0.1,0.2-0.1,0.4c0,0.1,0,0.2,0,0.3
		c0,0.2,0.1,0.4,0.2,0.5c0.1,0.1,0.3,0.2,0.5,0.2c0.2,0,0.4,0,0.6-0.1c0.2-0.1,0.4-0.2,0.6-0.4c0.2-0.2,0.4-0.4,0.6-0.7
		c0.2-0.3,0.4-0.7,0.6-1l0.2-0.4l0.1,0.1l-0.2,0.4c-0.2,0.4-0.4,0.7-0.7,1.1c-0.2,0.3-0.4,0.5-0.6,0.7c-0.2,0.2-0.4,0.3-0.6,0.4
		c-0.2,0.1-0.5,0.1-0.7,0.1c-0.2,0-0.3,0-0.5-0.1c-0.2-0.1-0.3-0.2-0.4-0.3c-0.1-0.1-0.2-0.2-0.2-0.4c0-0.2-0.1-0.3-0.1-0.5
		c0-0.1,0-0.3,0-0.4c0-0.1,0.1-0.3,0.1-0.4c-0.2,0.3-0.4,0.7-0.6,0.9c-0.2,0.2-0.4,0.4-0.6,0.6c-0.2,0.2-0.4,0.3-0.6,0.4
		c-0.2,0.1-0.4,0.1-0.6,0.1c-0.2,0-0.3,0-0.5-0.1c-0.1-0.1-0.3-0.1-0.4-0.2c-0.1-0.1-0.2-0.2-0.2-0.4c-0.1-0.2-0.1-0.3-0.1-0.5
		c0-0.2,0-0.4,0.1-0.5c0-0.2,0.1-0.4,0.2-0.6L231.7,77.6z"/>
	<path class="st4" d="M237.2,82c0-0.2,0-0.3,0.1-0.5c0-0.2,0.1-0.3,0.1-0.4c0.1-0.1,0.1-0.3,0.2-0.4c0.1-0.1,0.2-0.2,0.3-0.3l2-2.9
		c0-0.2,0.1-0.4,0.2-0.6c0.1-0.2,0.2-0.2,0.3-0.2c0.1,0,0.2,0,0.2,0.1c0.1,0,0.1,0.1,0.1,0.2c0,0,0,0.1,0,0.1c0,0.1-0.1,0.1-0.1,0.1
		l-0.2,0.2c0,0-0.1,0.1-0.1,0.2c0,0.1-0.1,0.1-0.1,0.2c0,0.1,0,0.1,0,0.2c0,0.1,0,0.1,0,0.2c0,0.1,0,0.2,0.1,0.3s0.1,0.3,0.1,0.4
		l0.2,0.7c0.1,0.2,0.1,0.5,0.2,0.8c0,0.2,0,0.5,0,0.7c0.1,0.8-0.3,1.5-0.9,2c-0.2,0.1-0.4,0.2-0.6,0.3c-0.2,0.1-0.4,0.1-0.6,0.1
		c-0.2,0-0.4,0-0.6-0.1c-0.2-0.1-0.3-0.2-0.4-0.3c-0.1-0.1-0.2-0.3-0.3-0.4C237.2,82.4,237.2,82.2,237.2,82z M239.8,77.9l-1.7,2.5
		c0.1,0,0.2,0,0.2,0.1c0.1,0.1,0.1,0.2,0.1,0.3c0,0.1,0,0.1,0,0.2c0,0.1,0,0.1-0.1,0.1c0,0-0.1,0.1-0.1,0.1c0,0-0.1,0-0.1,0
		c0,0-0.1,0-0.1,0c0,0-0.1,0-0.1,0c-0.1,0-0.1,0-0.2,0.1c-0.1,0.1-0.1,0.1-0.1,0.2c-0.1,0.1-0.1,0.2-0.1,0.3c0,0.1,0,0.2,0,0.4
		c0,0.2,0,0.3,0.1,0.5c0,0.1,0.1,0.3,0.2,0.4c0.1,0.1,0.2,0.2,0.3,0.2c0.1,0.1,0.3,0.1,0.4,0.1c0.2,0,0.4,0,0.6-0.1
		c0.2-0.1,0.4-0.2,0.5-0.4c0.4-0.6,0.6-1.3,0.5-2v-0.3c0-0.1,0-0.2,0-0.3c0-0.1,0-0.2,0-0.4s0-0.3-0.1-0.4s-0.1-0.5-0.1-0.7
		c0-0.2,0-0.3,0-0.5L239.8,77.9z"/>
	<path class="st4" d="M246.6,80.6c0.1-0.3,0.2-0.6,0.4-0.9c0.2-0.3,0.3-0.5,0.5-0.7c0.2-0.2,0.4-0.4,0.6-0.6
		c0.2-0.1,0.4-0.3,0.6-0.4c0.2-0.1,0.4-0.2,0.6-0.2c0.2,0,0.4-0.1,0.6-0.1c0.2,0,0.3,0,0.4,0.1c0.1,0.1,0.2,0.1,0.3,0.2
		c0.1,0.1,0.1,0.2,0.1,0.4c0,0.2,0,0.3,0,0.5l0.4-1h0.7l-1.2,3.3c0,0.1-0.1,0.2-0.1,0.4c0,0.1-0.1,0.3-0.1,0.4
		c0,0.1-0.1,0.2-0.1,0.4c0,0.1,0,0.2,0,0.3c0,0.2,0.1,0.4,0.2,0.5c0.1,0.1,0.3,0.2,0.5,0.2c0.2,0,0.4,0,0.6-0.1
		c0.2-0.1,0.4-0.2,0.6-0.4c0.2-0.2,0.4-0.4,0.6-0.7c0.2-0.3,0.4-0.7,0.6-1l0.2-0.4l0.1,0.1l-0.2,0.4c-0.2,0.4-0.4,0.8-0.7,1.1
		c-0.2,0.3-0.4,0.5-0.6,0.7c-0.2,0.2-0.4,0.3-0.6,0.4c-0.2,0.1-0.5,0.1-0.7,0.1c-0.2,0-0.3,0-0.5-0.1c-0.1-0.1-0.3-0.1-0.4-0.2
		c-0.1-0.1-0.2-0.2-0.2-0.4c0-0.2-0.1-0.3-0.1-0.5c0-0.1,0-0.3,0-0.4c0-0.2,0.1-0.3,0.1-0.4c-0.3,0.6-0.7,1.1-1.2,1.6
		c-0.3,0.3-0.8,0.5-1.2,0.5c-0.3,0-0.7-0.1-0.8-0.4c-0.1-0.1-0.2-0.3-0.2-0.5c0-0.2-0.1-0.4-0.1-0.6c0-0.2,0-0.5,0.1-0.7
		C246.4,81.1,246.5,80.8,246.6,80.6z M247.6,83.2c0.2,0,0.4,0,0.5-0.1c0.2-0.1,0.4-0.2,0.5-0.4c0.2-0.2,0.4-0.4,0.5-0.6
		c0.2-0.2,0.3-0.4,0.5-0.7c0.1-0.2,0.3-0.5,0.4-0.7c0.1-0.2,0.2-0.5,0.3-0.8c0.1-0.2,0.2-0.5,0.2-0.7c0-0.2,0.1-0.4,0.1-0.6
		c0-0.1,0-0.3-0.1-0.4c0-0.1-0.1-0.2-0.1-0.3c-0.1-0.1-0.1-0.1-0.2-0.1c-0.1,0-0.2,0-0.3,0c-0.2,0-0.4,0.1-0.6,0.2
		c-0.2,0.1-0.5,0.3-0.7,0.5c-0.3,0.3-0.5,0.5-0.7,0.8c-0.2,0.4-0.4,0.8-0.6,1.2c-0.1,0.3-0.2,0.7-0.3,1.1c-0.1,0.3-0.1,0.5-0.1,0.8
		c0,0.2,0,0.4,0.1,0.6C247.2,83.2,247.4,83.2,247.6,83.2L247.6,83.2z"/>
	<path class="st4" d="M254.4,81.1c-0.1,0.3-0.2,0.6-0.3,0.9c-0.1,0.2-0.1,0.4-0.1,0.6c0,0.2,0.1,0.4,0.2,0.5
		c0.1,0.1,0.3,0.2,0.5,0.2c0.2,0,0.5-0.1,0.7-0.2c0.2-0.1,0.5-0.3,0.7-0.5c0.2-0.2,0.4-0.4,0.6-0.7c0.2-0.3,0.4-0.6,0.5-0.9
		c0.1-0.3,0.2-0.6,0.3-0.9c0.1-0.3,0.1-0.7,0.1-1c0-0.2,0-0.4,0-0.6c0-0.1-0.1-0.2-0.1-0.3c0-0.1-0.1-0.1-0.1-0.2c0,0,0-0.1,0-0.1
		c0-0.1,0-0.1,0.1-0.2c0,0,0.1-0.1,0.2-0.1c0.1,0,0.1,0,0.2,0.1c0.1,0.1,0.1,0.2,0.1,0.2c0,0.1,0.1,0.2,0.1,0.3c0,0.1,0,0.3,0,0.4
		c0,0.2,0,0.4,0,0.6c0,0.2-0.1,0.4-0.1,0.6c0,0.2-0.1,0.4-0.2,0.6c-0.1,0.2-0.1,0.4-0.2,0.5c-0.2,0.3-0.3,0.7-0.5,1
		c-0.2,0.3-0.4,0.5-0.7,0.7c-0.2,0.2-0.5,0.4-0.7,0.5c-0.2,0.1-0.5,0.2-0.8,0.2c-0.2,0-0.3,0-0.5-0.1c-0.1-0.1-0.3-0.1-0.4-0.2
		c-0.1-0.1-0.2-0.2-0.2-0.4c0-0.2-0.1-0.3-0.1-0.5c0-0.2,0-0.4,0.1-0.5c0-0.2,0.1-0.4,0.2-0.6l1.2-3.3h0.7L254.4,81.1z"/>
	<path class="st4" d="M261,83.5c-0.5,0-1-0.1-1.3-0.5c-0.3-0.4-0.5-0.8-0.5-1.3c0-0.2,0-0.3,0-0.5c0-0.2,0.1-0.4,0.1-0.6
		c0.1-0.4,0.3-0.8,0.5-1.2c0.2-0.3,0.4-0.7,0.7-0.9c0.3-0.2,0.5-0.5,0.9-0.6c0.3-0.1,0.6-0.2,0.9-0.2c0.3,0,0.5,0.1,0.8,0.2
		c0.2,0.2,0.3,0.4,0.3,0.6c0,0.3-0.1,0.6-0.4,0.9c-0.1,0.1-0.3,0.3-0.4,0.4c-0.2,0.1-0.3,0.2-0.5,0.3c-0.3,0.1-0.5,0.2-0.8,0.2
		c-0.3,0.1-0.7,0.1-1,0.1c-0.1,0.3-0.2,0.5-0.2,0.8c0,0.3,0,0.5,0,0.8c-0.1,0.4,0,0.7,0.3,1c0.2,0.2,0.6,0.3,0.9,0.3
		c0.3,0,0.7-0.1,1-0.2c0.3-0.1,0.6-0.3,0.8-0.5c0.3-0.2,0.5-0.5,0.7-0.7c0.2-0.3,0.4-0.5,0.6-0.8l0.2-0.4l0.1,0.1l-0.2,0.4
		c-0.2,0.3-0.4,0.7-0.6,0.9c-0.2,0.3-0.5,0.5-0.8,0.8c-0.3,0.2-0.6,0.4-0.9,0.5C261.7,83.5,261.4,83.5,261,83.5z M262.5,77.9
		c-0.2,0-0.4,0.1-0.6,0.2c-0.2,0.1-0.4,0.3-0.6,0.5c-0.2,0.2-0.4,0.5-0.5,0.7c-0.2,0.3-0.3,0.6-0.4,0.9c0.3,0,0.6,0,0.9-0.1
		c0.2,0,0.4-0.1,0.6-0.2c0.2-0.1,0.3-0.2,0.4-0.3c0.1-0.1,0.3-0.2,0.4-0.4c0.1-0.1,0.2-0.3,0.2-0.4c0.1-0.2,0.1-0.3,0.1-0.5
		c0-0.1,0-0.1,0-0.2c0-0.1-0.1-0.1-0.1-0.1c0,0-0.1-0.1-0.1-0.1C262.7,77.9,262.6,77.9,262.5,77.9L262.5,77.9z"/>
	<path class="st4" d="M268.1,79c-0.1,0-0.2,0-0.2-0.1c-0.1-0.1-0.1-0.2-0.1-0.2c0-0.1,0-0.2,0.1-0.2c0-0.1,0.1-0.1,0.2-0.1h0.1h0.1
		c0,0,0,0,0-0.1c0,0,0-0.1,0-0.1c0,0-0.1-0.1-0.1-0.1c-0.1,0-0.1-0.1-0.2-0.1c-0.1,0-0.1,0-0.2,0c-0.2,0-0.4,0.1-0.6,0.2
		c-0.2,0.1-0.4,0.3-0.6,0.5c-0.2,0.2-0.4,0.4-0.5,0.7c-0.2,0.3-0.3,0.6-0.4,0.8c-0.1,0.3-0.2,0.6-0.3,0.9c-0.1,0.3-0.1,0.6-0.1,0.9
		c0,0.2,0,0.4,0.1,0.6c0,0.1,0.1,0.3,0.2,0.4c0.1,0.1,0.2,0.2,0.4,0.2c0.2,0.1,0.3,0.1,0.5,0.1c0.3,0,0.6,0,0.9-0.1
		c0.3-0.1,0.6-0.2,0.8-0.4c0.3-0.2,0.5-0.4,0.8-0.7c0.3-0.3,0.5-0.6,0.7-1l0.2-0.4l0.1,0.1l-0.2,0.4c-0.3,0.7-0.8,1.4-1.4,1.9
		c-0.5,0.4-1.1,0.6-1.8,0.6c-0.5,0-1-0.1-1.3-0.5c-0.3-0.4-0.5-0.8-0.4-1.3c0-0.2,0-0.3,0-0.5c0-0.2,0.1-0.4,0.1-0.6
		c0.1-0.4,0.3-0.8,0.5-1.2c0.2-0.3,0.4-0.7,0.7-0.9c0.3-0.3,0.5-0.5,0.9-0.6c0.3-0.1,0.6-0.2,1-0.2c0.3,0,0.6,0.1,0.8,0.3
		c0.1,0.1,0.1,0.1,0.2,0.2c0,0.1,0.1,0.2,0.1,0.3c0,0.1,0,0.2-0.1,0.3C268.4,79,268.3,79,268.1,79z"/>
	<path class="st4" d="M275.5,75.4h0.7l-2.2,5.8c0,0.1-0.1,0.2-0.1,0.4l-0.1,0.4c0,0.1-0.1,0.2-0.1,0.4c0,0.1,0,0.2,0,0.3
		c0,0.2,0,0.4,0.2,0.5c0.1,0.1,0.3,0.2,0.5,0.2c0.2,0,0.4,0,0.6-0.1c0.2-0.1,0.4-0.2,0.6-0.4c0.2-0.2,0.4-0.4,0.6-0.7
		c0.2-0.3,0.4-0.6,0.6-1l0.2-0.4l0.1,0.1l-0.2,0.4c-0.2,0.4-0.5,0.8-0.7,1.1c-0.2,0.3-0.4,0.5-0.6,0.7c-0.2,0.2-0.4,0.3-0.6,0.4
		c-0.2,0.1-0.5,0.1-0.7,0.1c-0.2,0-0.3,0-0.5-0.1c-0.1-0.1-0.3-0.1-0.4-0.2c-0.1-0.1-0.2-0.2-0.2-0.4c-0.1-0.2-0.1-0.3-0.1-0.5
		c0-0.2,0-0.4,0.1-0.5c0-0.2,0.1-0.4,0.2-0.6L275.5,75.4z"/>
	<path class="st4" d="M278.8,83.6c-0.5,0-1-0.1-1.3-0.4c-0.3-0.4-0.5-0.8-0.5-1.3c0-0.2,0-0.3,0-0.5c0-0.2,0.1-0.4,0.1-0.6
		c0.1-0.4,0.3-0.8,0.5-1.2c0.2-0.3,0.4-0.7,0.7-0.9c0.3-0.3,0.5-0.5,0.9-0.6c0.3-0.1,0.6-0.2,0.9-0.2c0.3,0,0.5,0.1,0.7,0.2
		c0.2,0.2,0.3,0.4,0.3,0.6c0,0.2,0,0.3-0.1,0.4c-0.1,0.2-0.2,0.3-0.3,0.4c-0.1,0.1-0.3,0.3-0.4,0.4c-0.2,0.1-0.4,0.2-0.5,0.3
		c-0.3,0.1-0.5,0.2-0.8,0.2c-0.3,0-0.7,0.1-1,0.1c-0.1,0.3-0.2,0.5-0.2,0.8c-0.1,0.3-0.1,0.6-0.1,0.8c0,0.3,0.1,0.7,0.3,0.9
		c0.2,0.2,0.6,0.3,0.9,0.3c0.3,0,0.7-0.1,1-0.2c0.3-0.1,0.6-0.3,0.8-0.5c0.3-0.2,0.5-0.4,0.7-0.7c0.2-0.3,0.4-0.5,0.5-0.8l0.2-0.4
		l0.1,0.1l-0.2,0.4c-0.2,0.4-0.4,0.7-0.6,1c-0.2,0.3-0.5,0.5-0.8,0.8c-0.3,0.2-0.6,0.4-0.9,0.5C279.5,83.6,279.1,83.6,278.8,83.6z
		 M280.3,78c-0.2,0-0.4,0.1-0.6,0.2c-0.2,0.1-0.4,0.3-0.6,0.5c-0.2,0.2-0.4,0.5-0.5,0.7c-0.2,0.3-0.3,0.6-0.4,0.9
		c0.3,0,0.6,0,0.9-0.1c0.2,0,0.4-0.1,0.6-0.2c0.1-0.1,0.3-0.2,0.4-0.2c0.1-0.1,0.3-0.2,0.4-0.4c0.1-0.1,0.2-0.3,0.3-0.4
		c0.1-0.2,0.1-0.3,0.1-0.5c0-0.1,0-0.1,0-0.2c0-0.1-0.1-0.1-0.1-0.1c0,0-0.1-0.1-0.2-0.1L280.3,78z"/>
	<path class="st4" d="M287.1,79.9c0.3-0.6,0.7-1.1,1.2-1.5c0.3-0.3,0.8-0.5,1.2-0.5c0.2,0,0.3,0,0.5,0.1c0.1,0.1,0.3,0.2,0.3,0.3
		c0.1,0.1,0.2,0.3,0.2,0.4c0,0.2,0.1,0.4,0.1,0.6c0,0.2,0,0.5-0.1,0.7c-0.1,0.2-0.1,0.5-0.2,0.7c-0.1,0.3-0.3,0.6-0.4,0.9
		c-0.2,0.3-0.3,0.5-0.5,0.7c-0.2,0.2-0.4,0.4-0.6,0.6c-0.2,0.1-0.4,0.3-0.6,0.4c-0.2,0.1-0.4,0.2-0.6,0.2c-0.2,0-0.4,0.1-0.5,0.1
		c-0.2,0-0.4,0-0.6-0.1c-0.2-0.1-0.3-0.1-0.5-0.2c-0.1-0.1-0.2-0.2-0.3-0.4c-0.1-0.2-0.1-0.3-0.1-0.5c0-0.2,0-0.4,0.1-0.5
		c0-0.2,0.1-0.4,0.2-0.6l2.1-5.8h0.7L287.1,79.9z M289.4,78.1c-0.2,0-0.4,0.1-0.5,0.1c-0.2,0.1-0.4,0.2-0.5,0.4
		c-0.2,0.2-0.4,0.4-0.5,0.6c-0.2,0.2-0.3,0.4-0.5,0.7c-0.2,0.2-0.3,0.5-0.4,0.8c-0.1,0.3-0.2,0.5-0.3,0.8c-0.1,0.2-0.2,0.5-0.2,0.7
		c-0.1,0.2-0.1,0.4-0.1,0.6c0,0.4,0.2,0.7,0.6,0.8c0.1,0,0.1,0,0.2,0c0.2,0,0.3,0,0.5-0.1c0.2-0.1,0.4-0.2,0.6-0.4
		c0.3-0.2,0.5-0.5,0.7-0.8c0.3-0.4,0.5-0.9,0.7-1.4c0.1-0.3,0.3-0.7,0.4-1c0.1-0.3,0.1-0.5,0.1-0.8c0-0.2,0-0.4-0.1-0.6
		C289.8,78.2,289.6,78.1,289.4,78.1z"/>
	<path class="st4" d="M293.2,78h0.7l-1.2,3.3c0,0.1-0.1,0.2-0.1,0.4l-0.1,0.4c0,0.1-0.1,0.2-0.1,0.4c0,0.1,0,0.2,0,0.3
		c0,0.2,0,0.4,0.2,0.5c0.1,0.1,0.3,0.2,0.5,0.2c0.2,0,0.4,0,0.6-0.1c0.2-0.1,0.4-0.2,0.6-0.4c0.2-0.2,0.4-0.4,0.6-0.7
		c0.2-0.3,0.4-0.6,0.6-1l0.2-0.4l0.1,0.1l-0.2,0.4c-0.2,0.4-0.5,0.8-0.7,1.1c-0.2,0.3-0.4,0.5-0.6,0.7c-0.2,0.2-0.4,0.3-0.6,0.4
		c-0.2,0.1-0.5,0.1-0.7,0.1c-0.2,0-0.3,0-0.5-0.1c-0.1-0.1-0.3-0.1-0.4-0.2c-0.1-0.1-0.2-0.2-0.2-0.4c-0.1-0.2-0.1-0.3-0.1-0.5
		c0-0.2,0-0.4,0.1-0.5c0-0.2,0.1-0.4,0.2-0.6L293.2,78z M293.6,76.8c0-0.1,0-0.2,0.1-0.3c0.1-0.1,0.2-0.1,0.3-0.1
		c0.1,0,0.2,0,0.3,0.1c0.1,0.1,0.1,0.2,0.1,0.3c0,0,0,0.1,0,0.2c0,0,0,0.1-0.1,0.1c0,0-0.1,0.1-0.1,0.1c-0.2,0.1-0.4,0-0.5-0.2
		C293.6,76.9,293.6,76.8,293.6,76.8L293.6,76.8z"/>
	<path class="st4" d="M297.5,83.7c-0.5,0-1-0.1-1.3-0.5c-0.3-0.4-0.5-0.9-0.5-1.3c0-0.2,0-0.3,0-0.5c0-0.2,0.1-0.4,0.1-0.6
		c0.1-0.4,0.3-0.8,0.5-1.2c0.2-0.3,0.4-0.7,0.7-0.9c0.3-0.3,0.5-0.5,0.9-0.6c0.3-0.1,0.6-0.2,0.9-0.2c0.3,0,0.5,0.1,0.8,0.2
		c0.2,0.2,0.3,0.4,0.3,0.6c0,0.2,0,0.3-0.1,0.4c-0.1,0.1-0.2,0.3-0.3,0.4c-0.1,0.1-0.3,0.3-0.4,0.4c-0.2,0.1-0.4,0.2-0.5,0.3
		c-0.3,0.1-0.5,0.2-0.8,0.2c-0.3,0.1-0.7,0.1-1,0.1c-0.1,0.3-0.2,0.5-0.2,0.8c-0.1,0.3-0.1,0.6-0.1,0.8c0,0.4,0.1,0.7,0.3,1
		c0.2,0.2,0.6,0.3,0.9,0.3c0.3,0,0.6-0.1,1-0.2c0.3-0.1,0.6-0.3,0.8-0.5c0.3-0.2,0.5-0.4,0.7-0.7c0.2-0.3,0.4-0.5,0.6-0.8l0.2-0.4
		L301,81l-0.2,0.4c-0.2,0.3-0.4,0.7-0.6,1c-0.2,0.3-0.5,0.5-0.8,0.8c-0.3,0.2-0.6,0.4-0.9,0.5C298.1,83.7,297.8,83.7,297.5,83.7z
		 M299,78.1c-0.2,0-0.4,0.1-0.6,0.2c-0.2,0.1-0.4,0.3-0.6,0.5c-0.2,0.2-0.4,0.5-0.5,0.7c-0.2,0.3-0.3,0.6-0.4,0.9
		c0.3,0,0.6,0,0.9-0.1c0.2,0,0.4-0.1,0.6-0.2c0.2-0.1,0.3-0.1,0.4-0.2c0.1-0.1,0.3-0.2,0.4-0.4c0.1-0.1,0.2-0.3,0.3-0.4
		c0.1-0.2,0.1-0.3,0.1-0.5c0-0.1,0-0.1,0-0.2c0-0.1-0.1-0.1-0.1-0.1c0,0-0.1-0.1-0.1-0.1L299,78.1z"/>
	<path class="st4" d="M302.1,78h0.7l-0.8,2c0.2-0.4,0.4-0.7,0.6-0.9c0.2-0.2,0.4-0.5,0.6-0.7c0.2-0.2,0.4-0.3,0.6-0.4
		c0.2-0.1,0.4-0.1,0.6-0.1c0.2,0,0.4,0,0.5,0.1c0.1,0.1,0.3,0.1,0.4,0.3c0.1,0.1,0.2,0.3,0.2,0.4c0,0.2,0.1,0.3,0.1,0.5
		c0,0.2,0,0.4-0.1,0.6c-0.1,0.2-0.1,0.4-0.2,0.7c-0.1,0.2-0.2,0.4-0.3,0.7s-0.2,0.4-0.3,0.7s-0.1,0.4-0.2,0.6c0,0.2-0.1,0.3-0.1,0.5
		c0,0.4,0.2,0.7,0.6,0.7c0,0,0.1,0,0.1,0c0.2,0,0.4,0,0.6-0.1c0.2-0.1,0.4-0.3,0.6-0.4c0.2-0.2,0.4-0.4,0.6-0.7
		c0.2-0.3,0.4-0.7,0.6-1l0.2-0.4l0.1,0.1l-0.2,0.4c-0.2,0.4-0.5,0.7-0.7,1c-0.2,0.3-0.4,0.5-0.6,0.7c-0.2,0.2-0.4,0.3-0.6,0.4
		c-0.2,0.1-0.5,0.2-0.7,0.2c-0.2,0-0.4,0-0.5-0.1c-0.1-0.1-0.3-0.1-0.4-0.2c-0.1-0.1-0.2-0.2-0.2-0.4c0-0.1-0.1-0.3-0.1-0.4
		c0-0.2,0-0.4,0.1-0.6c0-0.2,0.1-0.4,0.2-0.6s0.2-0.4,0.3-0.7s0.2-0.4,0.3-0.7c0.1-0.2,0.1-0.4,0.2-0.6c0-0.2,0.1-0.3,0.1-0.5
		c0-0.1,0-0.2,0-0.3c0-0.1-0.1-0.2-0.1-0.2c-0.1-0.1-0.1-0.1-0.2-0.2c-0.1,0-0.2-0.1-0.3-0.1c-0.2,0-0.4,0.1-0.6,0.2
		c-0.2,0.1-0.4,0.3-0.6,0.4c-0.2,0.2-0.4,0.5-0.6,0.7c-0.2,0.3-0.4,0.6-0.6,1l-0.2,0.4l-1,2.7H300L302.1,78z"/>
	<path class="st4" d="M309.1,80.4h3l-0.2,0.4h-3L309.1,80.4z"/>
	<path class="st4" d="M314.9,83.8c-0.5,0-1-0.1-1.3-0.5c-0.3-0.4-0.5-0.8-0.5-1.3c0-0.2,0-0.3,0-0.5s0.1-0.4,0.1-0.6
		c0.1-0.4,0.3-0.8,0.5-1.2c0.2-0.3,0.4-0.7,0.7-0.9c0.3-0.2,0.5-0.5,0.9-0.6c0.3-0.1,0.6-0.2,0.9-0.2c0.3,0,0.5,0.1,0.7,0.2
		c0.2,0.2,0.3,0.4,0.3,0.6c0,0.2,0,0.3-0.1,0.4c-0.1,0.1-0.2,0.3-0.3,0.4c-0.1,0.1-0.3,0.3-0.4,0.4c-0.2,0.1-0.3,0.2-0.5,0.3
		c-0.3,0.1-0.5,0.2-0.8,0.2c-0.3,0.1-0.7,0.1-1,0.1c-0.1,0.3-0.2,0.5-0.2,0.8c-0.1,0.3-0.1,0.6-0.1,0.8c0,0.4,0.1,0.7,0.3,1
		c0.2,0.2,0.6,0.3,0.9,0.3c0.3,0,0.6-0.1,1-0.2c0.3-0.1,0.6-0.3,0.8-0.5c0.3-0.2,0.5-0.5,0.7-0.7c0.2-0.3,0.4-0.5,0.6-0.8l0.2-0.4
		l0.1,0.1l-0.2,0.4c-0.2,0.4-0.4,0.7-0.6,1c-0.2,0.3-0.5,0.5-0.8,0.8c-0.3,0.2-0.6,0.4-0.9,0.5C315.5,83.8,315.2,83.8,314.9,83.8z
		 M316.4,78.2c-0.2,0-0.4,0.1-0.6,0.2c-0.2,0.1-0.4,0.3-0.6,0.5c-0.2,0.2-0.4,0.5-0.5,0.7c-0.2,0.3-0.3,0.6-0.4,0.9
		c0.3,0,0.6,0,0.9-0.1c0.2,0,0.4-0.1,0.6-0.2c0.2-0.1,0.3-0.2,0.4-0.3c0.1-0.1,0.3-0.2,0.4-0.4c0.1-0.1,0.2-0.3,0.3-0.4
		c0.1-0.2,0.1-0.3,0.1-0.5c0-0.1,0-0.1,0-0.2c0-0.1-0.1-0.1-0.1-0.1c0,0-0.1-0.1-0.2-0.1C316.5,78.2,316.5,78.2,316.4,78.2
		L316.4,78.2z M316.4,75.9c0,0,0.1-0.1,0.1-0.1h0.1c0,0,0.1,0,0.1,0c0,0,0.1,0.1,0.1,0.1c0,0.1,0.1,0.2,0.1,0.3
		c0,0.1,0.1,0.2,0.2,0.3c0.1,0.1,0.2,0.2,0.3,0.3c0.1,0.1,0.3,0.3,0.4,0.3l0,0l0,0l0,0.1c-0.2-0.1-0.3-0.2-0.4-0.3
		c-0.1-0.1-0.3-0.2-0.4-0.3c-0.1-0.1-0.2-0.3-0.3-0.5c-0.1,0.2-0.3,0.3-0.5,0.4l-0.2,0.2l-0.3,0.2c-0.1,0.1-0.2,0.1-0.3,0.2
		c-0.1,0-0.2,0.1-0.3,0.1l0,0h0l-0.1-0.1c0.2-0.1,0.4-0.2,0.5-0.3c0.1-0.1,0.3-0.2,0.4-0.3c0.1-0.1,0.2-0.2,0.3-0.3L316.4,75.9z"/>
	<path class="st4" d="M318.1,78.1h1.4l0.5-1.2h0.7l-0.5,1.2h1.4v0.2h-1.5l-1.1,3.1c0,0.1-0.1,0.2-0.1,0.4s-0.1,0.3-0.1,0.4
		s-0.1,0.2-0.1,0.4c0,0.1,0,0.2,0,0.3c0,0.4,0.2,0.7,0.6,0.7c0,0,0.1,0,0.1,0c0.2,0,0.5,0,0.7-0.1c0.2-0.1,0.5-0.2,0.7-0.4
		c0.2-0.2,0.5-0.4,0.6-0.7c0.2-0.3,0.5-0.7,0.6-1l0.2-0.4l0.1,0.1l-0.2,0.4c-0.2,0.4-0.5,0.8-0.7,1.1c-0.2,0.3-0.4,0.5-0.7,0.7
		c-0.2,0.2-0.4,0.3-0.7,0.4c-0.2,0.1-0.5,0.1-0.7,0.1c-0.2,0-0.3,0-0.5-0.1c-0.1-0.1-0.3-0.1-0.4-0.2c-0.1-0.1-0.2-0.2-0.2-0.4
		c-0.1-0.2-0.1-0.3-0.1-0.5c0-0.2,0-0.4,0.1-0.5c0-0.2,0.1-0.4,0.2-0.6l1.1-3.1h-1.4V78.1z"/>
	<path class="st4" d="M325.9,78.5c0-0.1,0-0.1-0.1-0.2c-0.1-0.1-0.2-0.1-0.3-0.1c-0.1,0-0.3,0-0.4,0.1c-0.2,0.1-0.4,0.2-0.5,0.4
		c-0.2,0.2-0.4,0.5-0.6,0.8c-0.2,0.3-0.5,0.8-0.8,1.3l-0.2,0.4l-0.9,2.5h-0.7l2.1-5.6h0.7l-0.8,2.3c0.3-0.4,0.5-0.8,0.7-1.1
		c0.2-0.3,0.4-0.5,0.6-0.7c0.2-0.2,0.3-0.3,0.5-0.4c0.1-0.1,0.3-0.1,0.5-0.1c0.2,0,0.4,0.1,0.5,0.2c0.1,0.1,0.2,0.3,0.2,0.5
		c0,0.1,0,0.2,0,0.2c0,0.1,0,0.1-0.1,0.2c0,0.1-0.1,0.1-0.1,0.1c-0.1,0-0.1,0-0.2,0h-0.1c0,0-0.1,0-0.1-0.1c0,0-0.1-0.1-0.1-0.1
		c0-0.1,0-0.1,0-0.2c0-0.1,0-0.1,0-0.2c0-0.1,0-0.1,0.1-0.1c0,0,0.1-0.1,0.1-0.1c0,0,0.1,0,0.1,0L325.9,78.5L325.9,78.5L325.9,78.5
		C325.9,78.5,325.9,78.5,325.9,78.5z"/>
	<path class="st4" d="M328.6,83.9c-0.5,0-1-0.1-1.3-0.4c-0.3-0.4-0.5-0.8-0.5-1.3c0-0.2,0-0.3,0-0.5c0-0.2,0.1-0.4,0.1-0.6
		c0.1-0.4,0.3-0.8,0.5-1.2c0.2-0.3,0.4-0.7,0.7-0.9c0.3-0.2,0.5-0.5,0.9-0.6c0.3-0.1,0.6-0.2,0.9-0.2c0.3,0,0.5,0.1,0.7,0.2
		c0.2,0.2,0.3,0.4,0.3,0.6c0,0.2,0,0.3-0.1,0.4c-0.1,0.2-0.2,0.3-0.3,0.4c-0.1,0.1-0.3,0.3-0.4,0.4c-0.2,0.1-0.4,0.2-0.5,0.3
		c-0.3,0.1-0.5,0.2-0.8,0.2c-0.3,0.1-0.7,0.1-1,0.1c-0.1,0.3-0.2,0.5-0.2,0.8c-0.1,0.3-0.1,0.6-0.1,0.8c0,0.4,0.1,0.7,0.3,1
		c0.2,0.2,0.6,0.3,0.9,0.3c0.3,0,0.7-0.1,1-0.2c0.3-0.1,0.6-0.3,0.8-0.5c0.3-0.2,0.5-0.4,0.7-0.7c0.2-0.3,0.4-0.5,0.5-0.8L332,81
		l0.1,0.1l-0.2,0.4c-0.2,0.3-0.4,0.7-0.6,1c-0.2,0.3-0.5,0.5-0.8,0.7c-0.3,0.2-0.6,0.4-0.9,0.5C329.3,83.9,328.9,83.9,328.6,83.9z
		 M330.1,78.3c-0.2,0-0.4,0.1-0.6,0.2c-0.2,0.1-0.4,0.3-0.6,0.5c-0.2,0.2-0.4,0.5-0.5,0.7c-0.2,0.3-0.3,0.6-0.4,0.9
		c0.3,0,0.6,0,0.9-0.1c0.2,0,0.4-0.1,0.6-0.2c0.2-0.1,0.3-0.2,0.4-0.3c0.1-0.1,0.3-0.2,0.4-0.3c0.1-0.1,0.2-0.3,0.3-0.4
		c0.1-0.2,0.1-0.3,0.1-0.5c0-0.1,0-0.1,0-0.2c0-0.1-0.1-0.1-0.1-0.1c0,0-0.1-0.1-0.2-0.1C330.3,78.3,330.2,78.3,330.1,78.3z"/>
</g>
</svg>
