<svg id="Calque_1" data-name="Calque 1" xmlns="http://www.w3.org/2000/svg" viewBox="0 0 133 131"><defs><style>.cls-1{fill:#f1c4b2;}.cls-2{fill:#fbe0dd;}.cls-3{fill:#f5b8b2;}</style></defs><title>Symbolique Couleur</title><path class="cls-1" d="M55.69,92.63h-5a10.68,10.68,0,0,1-10.49-8.85c-.35,0-.7-.11-1-.17a11.69,11.69,0,0,0,11.53,10h4.58l1.93,1.88c0-.44.05-.88.08-1.32Z"/><path class="cls-1" d="M25,65.5a24.56,24.56,0,0,1,5.13-15.13l.08-.1,0-.14a24.83,24.83,0,0,1,21.54-21.4l.12,0,.11-.07a24.86,24.86,0,0,1,29.41.13l.11.08.13,0a24.82,24.82,0,0,1,21.46,21.56v.13l.08.11a24.61,24.61,0,0,1,4.91,14.83,25.14,25.14,0,0,1-.7,5.9c.29.22.57.43.85.66a25.82,25.82,0,0,0-4.18-21.88A25.82,25.82,0,0,0,81.91,27.89a25.88,25.88,0,0,0-30.39-.14A25.85,25.85,0,0,0,29.26,49.87,25.54,25.54,0,0,0,24,65.5a26.12,26.12,0,0,0,.84,6.57l.86-.65A25.37,25.37,0,0,1,25,65.5Z"/><path class="cls-1" d="M83.17,92.28l-5.36,0-2,2.05c0,.45.06.9.07,1.35l2.38-2.41,5,0a11.74,11.74,0,0,0,11.26-9.76l-1,.17A10.75,10.75,0,0,1,83.17,92.28Z"/><path class="cls-1" d="M74.26,95.91a10.66,10.66,0,0,1-15,.17l-.47-.45c-.22.25-.45.49-.68.74l.45.43a11.6,11.6,0,0,0,8.11,3.28h.09A11.58,11.58,0,0,0,75,96.62l.14-.15c-.23-.24-.46-.48-.68-.73Z"/><path class="cls-1" d="M96.94,57.78a10.6,10.6,0,0,1,3.13,7.45,10.92,10.92,0,0,1-.19,2.07c.32.12.64.23,1,.36a12.29,12.29,0,0,0,.24-2.43,11.63,11.63,0,0,0-3.42-8.16L95.78,55.2c-.13.34-.28.66-.43,1Z"/><path class="cls-1" d="M50.24,38.41h5.21L59,34.94a10.63,10.63,0,0,1,5.64-2.86c.32-.38.66-.76,1-1.12a11.6,11.6,0,0,0-7.35,3.26l-3.28,3.2H50.23a11.72,11.72,0,0,0-10,6.08l1.06.17A10.68,10.68,0,0,1,50.24,38.41Z"/><path class="cls-1" d="M73.85,34.9l3.67,3.53,5.18-.11a10.73,10.73,0,0,1,9.21,5.33l1-.17a11.7,11.7,0,0,0-10.26-6.16l-4.77.1-3.37-3.24A11.67,11.67,0,0,0,67.45,31c.36.38.7.76,1,1.15A10.61,10.61,0,0,1,73.85,34.9Z"/><path class="cls-1" d="M103.1,80.59A24.84,24.84,0,0,1,81.69,102l-.13,0-.1.08a24.9,24.9,0,0,1-29.85,0l-.1-.08-.13,0A25,25,0,0,1,30.26,80.9l0-.14-.08-.1s0,0,0,0c-.69-.35-1.37-.73-2-1.14.37.58.76,1.14,1.18,1.69A26,26,0,0,0,51.11,103,25.88,25.88,0,0,0,82,103a25.87,25.87,0,0,0,22.13-22.16c.32-.44.63-.9.92-1.35-.62.37-1.25.73-1.89,1.06Z"/><path class="cls-1" d="M33.06,65.77a10.58,10.58,0,0,1,3.14-7.64l1.69-1.68c-.15-.33-.31-.65-.44-1l-2,2a11.59,11.59,0,0,0-3.43,8.35,12.38,12.38,0,0,0,.19,1.94c.31-.13.63-.24,1-.36A10.42,10.42,0,0,1,33.06,65.77Z"/><path class="cls-2" d="M66.29,73.62l0-.73-.06-.81-.06-.71c0-.27-.06-.54-.1-.8L66,69.86c0-.26-.09-.53-.14-.79s-.08-.47-.13-.7-.11-.52-.17-.79-.11-.45-.16-.67-.15-.53-.22-.79-.12-.44-.19-.66-.17-.52-.26-.78L64.47,64l-.3-.77c-.08-.21-.16-.42-.25-.63s-.22-.5-.33-.76-.18-.4-.28-.61l-.37-.74c-.11-.2-.2-.4-.31-.59s-.27-.49-.41-.74l-.33-.57c-.15-.24-.31-.48-.46-.73l-.35-.54c-.17-.25-.34-.49-.52-.73s-.23-.34-.36-.5-.38-.5-.58-.75l-.35-.45c-.22-.27-.45-.53-.68-.79l-.32-.37c-.35-.38-.7-.75-1.06-1.11A31,31,0,0,0,41,44.13L40,44a33.42,33.42,0,0,0-4.48-.37,31.34,31.34,0,0,0,2.31,11.51c.14.33.29.65.43,1a30.48,30.48,0,0,0,1.42,2.79,30.91,30.91,0,0,0,5,6.45l.79,0,.69,0c.3,0,.59,0,.88.07l.65,0,1,.12.54.07c.47.07.92.16,1.38.25l.5.1,1.08.25.6.17.85.23.66.22.77.26.65.25c.25.09.5.18.75.29L57,68l.73.32.64.32c.23.12.47.23.7.36l.63.35.68.38.62.39.66.41.6.42c.21.15.43.29.64.45l.57.44.63.49.56.46.6.53.54.49.46.43C66.3,74,66.29,73.81,66.29,73.62Z"/><path class="cls-3" d="M65.4,74.06l-.53-.49-.59-.5-.55-.46-.62-.48c-.18-.14-.37-.29-.56-.42s-.42-.3-.64-.45l-.58-.4-.66-.41c-.19-.13-.39-.25-.59-.37l-.68-.38-.61-.34-.7-.35-.62-.3-.71-.32c-.21-.09-.42-.19-.64-.27l-.72-.28-.65-.25L54,67.34l-.66-.21-.75-.21c-.23-.06-.45-.13-.68-.18s-.51-.12-.77-.18l-.67-.15-.8-.14L49,66.16c-.28,0-.56-.08-.85-.11L47.54,66l-.95-.08-.54,0c-.5,0-1,0-1.51,0h-.2a30.82,30.82,0,0,0-8,1,29.53,29.53,0,0,0-3.1,1l-.94.37a31,31,0,0,0-6.49,3.71c-.29.21-.57.44-.85.66-.8.65-1.59,1.32-2.33,2a30.57,30.57,0,0,0,4.89,3.92c.63.42,1.27.8,1.93,1.16a30.64,30.64,0,0,0,6.92,2.81c.89.24,1.79.42,2.7.58.34.06.68.13,1,.17a28.87,28.87,0,0,0,4.15.31l.66-.62.42-.4.88-.76.28-.25c.39-.32.79-.64,1.2-.94l.38-.27.86-.61.49-.31.78-.5.55-.32c.25-.15.5-.3.76-.44l.59-.3.75-.38.61-.28.76-.34.64-.26.76-.29.66-.23.77-.26.67-.2.78-.22.69-.16q.39-.1.78-.18l.7-.14.79-.14.72-.1.79-.11.73-.07.79-.06.75,0,.48,0Z"/><path class="cls-1" d="M64.69,74.93l-.78.06-.72.06-.76.1-.72.1-.75.13-.72.13-.75.18-.69.16c-.47.12-.93.25-1.4.39l-.61.2c-.26.09-.53.17-.79.27s-.41.16-.62.24l-.75.29-.62.27-.73.33-.61.31-.71.36c-.2.1-.39.22-.59.33l-.7.4-.57.35-.68.44c-.19.12-.38.26-.56.39l-.66.46-.54.42c-.22.16-.43.33-.64.5l-.53.44-.62.54-.5.46-.35.34a30.84,30.84,0,0,0,21-8.7l-.63,0Z"/><path class="cls-1" d="M66.82,75.33a30.9,30.9,0,0,0,8,19.94l.53-.54A30.81,30.81,0,0,0,66.82,75.33Z"/><path class="cls-1" d="M75.31,94.73l-.53.54.59.64C75.36,95.52,75.34,95.12,75.31,94.73Z"/><path class="cls-1" d="M66.3,75.33a30.87,30.87,0,0,0-8.54,19.31l.67.64A30.83,30.83,0,0,0,66.3,75.33Z"/><path class="cls-1" d="M57.76,96c.23-.24.45-.49.67-.74l-.67-.64C57.73,95.08,57.76,96,57.76,96Z"/><path class="cls-3" d="M108.13,72.58l-.85-.67a30.57,30.57,0,0,0-6.57-3.75l-.94-.37a29.94,29.94,0,0,0-3-1,30.77,30.77,0,0,0-8-1h-.09c-.5,0-1,0-1.5,0l-.56,0-.94.07L85,66l-.83.1-.67.12-.79.13-.69.15-.76.17-.7.19-.72.2-.7.22-.71.24-.68.25-.69.27-.67.29c-.23.1-.46.19-.69.3l-.65.31-.67.34-.63.35-.66.36-.61.38c-.22.13-.44.26-.65.4l-.59.41-.64.43L70,72l-.61.48-.55.45-.6.51-.53.48-.47.44.51,0,.72,0,.81.07.72.06.81.1.71.11.79.13L73,75q.39.08.78.18l.69.16.77.22.69.2.75.25.68.23.74.29.67.26.73.33.64.29.72.37c.21.1.42.2.63.32l.71.4.6.35.72.45.56.36.77.55.47.33c.41.3.81.62,1.2.94l.39.33c.26.22.52.44.77.67l.48.46.61.58a31.89,31.89,0,0,0,4.68-.39l1-.17c.73-.14,1.46-.3,2.19-.5a30.87,30.87,0,0,0,6.93-2.8c.66-.37,1.3-.75,1.93-1.16a30.91,30.91,0,0,0,4.87-3.91C109.71,73.9,108.93,73.23,108.13,72.58Z"/><path class="cls-2" d="M93.19,43.94l-1,.18a30.74,30.74,0,0,0-9.83,3.62A31.12,31.12,0,0,0,76,52.62c-.36.37-.72.74-1.06,1.12l-.35.39c-.22.25-.44.5-.65.76l-.41.51c-.18.23-.36.45-.53.68l-.4.57-.48.67c-.13.19-.25.39-.37.58s-.3.46-.44.69l-.35.61c-.13.23-.27.46-.39.69s-.22.43-.33.64-.24.46-.35.69-.2.44-.3.66-.22.47-.32.71S69,63,69,63.26s-.2.48-.29.73-.15.45-.23.67-.17.5-.24.75-.14.46-.2.69-.15.5-.21.75-.11.47-.17.7-.12.51-.17.77-.09.47-.13.71-.1.52-.14.78l-.09.71c0,.27-.07.53-.1.8s0,.47-.07.71,0,.54,0,.81,0,.48,0,.72,0,.36,0,.54l.66-.61.37-.34c.3-.27.61-.52.92-.77l.24-.21c.35-.28.7-.55,1.06-.81l.14-.11c.39-.28.79-.56,1.2-.83l0,0a31.35,31.35,0,0,1,9.63-4.21l.12,0q.66-.16,1.35-.3l.51-.09c.33-.05.65-.12,1-.16s.43-.06.64-.08l.87-.11.69,0,.83-.07.71,0,.77,0a31.77,31.77,0,0,0,4.91-6.39,29.87,29.87,0,0,0,1.52-3c.15-.33.29-.66.42-1A30.9,30.9,0,0,0,97.6,43.58,32.38,32.38,0,0,0,93.19,43.94Z"/><path class="cls-3" d="M74.46,44.47A31.05,31.05,0,0,0,67.74,32c-.33-.36-.66-.72-1-1.07l-.18-.2-.17.19c-.33.34-.65.69-1,1a30.91,30.91,0,0,0-7.79,20.41l.08.08c.53.54,1,1.1,1.53,1.67l.25.29c.49.58.95,1.18,1.39,1.79l.26.37c.44.62.86,1.26,1.25,1.91l.09.16c.37.63.71,1.27,1,1.92a3.59,3.59,0,0,0,.17.34c.32.67.62,1.35.89,2l.17.42c.26.71.51,1.42.73,2.15l.06.2c.2.69.38,1.4.53,2.11,0,.12.06.24.08.36.15.73.28,1.47.38,2.22a1.52,1.52,0,0,0,0,.21c0-.07,0-.14,0-.21.1-.75.22-1.5.37-2.23a3.59,3.59,0,0,1,.08-.35c.16-.72.33-1.43.54-2.13,0-.06,0-.13,0-.19.22-.73.47-1.45.74-2.16.06-.14.11-.27.16-.41.28-.7.58-1.38.91-2l.16-.33c.33-.66.68-1.3,1-1.94l.09-.15c.39-.66.81-1.29,1.25-1.92l.26-.37c.45-.61.91-1.21,1.4-1.79l.25-.29c.49-.57,1-1.13,1.53-1.67l.08-.09A30.77,30.77,0,0,0,74.46,44.47Z"/><path class="cls-1" d="M87.73,83.22c-.17-.16-.34-.32-.52-.47s-.41-.36-.61-.54l-.53-.44-.64-.5-.54-.41c-.22-.16-.44-.32-.67-.47s-.36-.26-.55-.38-.47-.3-.7-.45l-.55-.34-.75-.43-.53-.3-.82-.41-.5-.25c-.31-.15-.63-.28-.95-.42l-.39-.18c-.91-.37-1.84-.71-2.78-1l-.45-.12c-.32-.1-.64-.19-1-.27l-.55-.13-.89-.2c-.2-.05-.41-.08-.61-.12l-.85-.15-.65-.08-.83-.11L69.23,75l-.83-.06-.68,0h-.56a30.83,30.83,0,0,0,20.92,8.66Z"/></svg>