<svg id="Calque_1" data-name="Calque 1" xmlns="http://www.w3.org/2000/svg" viewBox="0 0 370 131"><defs><style>.cls-1,.cls-2{fill:#fff;}.cls-2{stroke:#fff;stroke-miterlimit:10;stroke-width:0.25px;}</style></defs><title>Logo blanc</title><path class="cls-1" d="M126.89,52.44l-.08,1.78,0,0A6.6,6.6,0,0,1,131.51,52a3.31,3.31,0,0,1,3.43,2.21A5.72,5.72,0,0,1,139.38,52a3.62,3.62,0,0,1,2.7,1,3.82,3.82,0,0,1,1,2.82l0,8.42,1.83.52a1.51,1.51,0,0,1-.13.92c-1.57-.09-2.58-.13-3-.13s-1.48,0-3.09.13a2,2,0,0,1,.05-.92,9.55,9.55,0,0,0,1.73-.52V57a4,4,0,0,0-.54-2.42,2.11,2.11,0,0,0-1.77-.68,4.2,4.2,0,0,0-3,1.71l0,8.63,1.83.52a1.51,1.51,0,0,1-.13.92c-1.45-.09-2.46-.13-3-.13s-1.57,0-3.09.13a2,2,0,0,1,0-.92,9.55,9.55,0,0,0,1.73-.52V57a4.13,4.13,0,0,0-.54-2.44,2.07,2.07,0,0,0-1.77-.71A5.48,5.48,0,0,0,127,55.45v8.82l1.76.52a1.51,1.51,0,0,1-.13.92c-1.4-.09-2.38-.13-2.94-.13s-1.7,0-3.2.13a2,2,0,0,1,0-.92c.84-.21,1.45-.38,1.84-.52V54l-2.18-.21a1.47,1.47,0,0,1,.13-.92c1.35-.23,2.56-.46,3.65-.71A2.52,2.52,0,0,1,126.89,52.44Z"/><path class="cls-1" d="M149.21,59a7,7,0,0,1,1.92-5.19,6.27,6.27,0,0,1,4.69-1.89,6.11,6.11,0,0,1,4.83,2A7.35,7.35,0,0,1,162.44,59a7.05,7.05,0,0,1-1.89,5.22,6.32,6.32,0,0,1-4.73,1.86,6.06,6.06,0,0,1-4.86-2A7.47,7.47,0,0,1,149.21,59Zm10.39.37a9.34,9.34,0,0,0-.89-4.41,3.09,3.09,0,0,0-2.94-1.91,3,3,0,0,0-2.84,1.69,9.12,9.12,0,0,0-.88,4.44,10.76,10.76,0,0,0,.22,2.26,5.92,5.92,0,0,0,.7,1.84,3.6,3.6,0,0,0,1.19,1.23,3.41,3.41,0,0,0,4.39-.87A6.92,6.92,0,0,0,159.6,59.39Z"/><path class="cls-1" d="M171.67,52.44l-.08,1.78,0,0A7.11,7.11,0,0,1,176.55,52a3.62,3.62,0,0,1,2.7,1,3.82,3.82,0,0,1,1,2.82l0,8.42,1.83.52a1.44,1.44,0,0,1-.13.92c-1.4-.09-2.4-.13-3-.13s-1.67,0-3.1.13a2.16,2.16,0,0,1,0-.92,9.55,9.55,0,0,0,1.73-.52V57a4.21,4.21,0,0,0-.53-2.44,2.09,2.09,0,0,0-1.77-.71,4.49,4.49,0,0,0-3.52,1.57v8.82l1.76.52a1.51,1.51,0,0,1-.13.92c-1.4-.09-2.38-.13-2.94-.13s-1.59,0-3.2.13a2,2,0,0,1,.05-.92c.84-.21,1.45-.38,1.84-.52V54L167,53.83a1.47,1.47,0,0,1,.13-.92c1.35-.23,2.56-.46,3.65-.71A2.52,2.52,0,0,1,171.67,52.44Z"/><path class="cls-1" d="M200.13,56.74v7.53l2.55.52a1.51,1.51,0,0,1-.13.92c-1.58-.09-2.82-.13-3.73-.13-.7,0-1.77,0-3.2.13a2.16,2.16,0,0,1,0-.92,8.58,8.58,0,0,0,1.84-.52V54l-2.18-.21a1.47,1.47,0,0,1,.13-.92,34.62,34.62,0,0,0,3.68-.71,2.23,2.23,0,0,1,.86.29v2.39l0,0Q202,52,204,52a3.11,3.11,0,0,1,1.73.39,12,12,0,0,1-.53,3.94,2.66,2.66,0,0,1-1.18-.11l-.37-2.62Q201.5,53.62,200.13,56.74Z"/><path class="cls-1" d="M222.25,46V64.32a3.4,3.4,0,0,0,1.83.52.93.93,0,0,0,0,.14.62.62,0,0,1,0,.13,1.39,1.39,0,0,1-.16.65,11.47,11.47,0,0,1-2.2.19,6.5,6.5,0,0,1-1.5-.16,3.69,3.69,0,0,1-.31-.63,2.92,2.92,0,0,1-.18-.76h-.14a6.42,6.42,0,0,1-2,1.31,5.7,5.7,0,0,1-2.06.39,4.4,4.4,0,0,1-2.11-.52,5.29,5.29,0,0,1-1.71-1.46A7.09,7.09,0,0,1,210.61,62a8.66,8.66,0,0,1-.4-2.69,9.37,9.37,0,0,1,.46-3.06A6.16,6.16,0,0,1,212,53.91a5.82,5.82,0,0,1,2.09-1.45,7.19,7.19,0,0,1,2.74-.5,6.14,6.14,0,0,1,2.8.66h.08v-5l-2.17-.21a.79.79,0,0,1,0-.26,1.43,1.43,0,0,1,.16-.66,29.18,29.18,0,0,0,3.54-.7A3.14,3.14,0,0,1,222.25,46Zm-5.62,18.55a4,4,0,0,0,3-1.39V54.06a3.88,3.88,0,0,0-2.59-.84,3.41,3.41,0,0,0-3,1.52A7.65,7.65,0,0,0,213,59a7.59,7.59,0,0,0,.92,4.16A3,3,0,0,0,216.63,64.58Z"/><path class="cls-1" d="M234.53,66.37l-5.2-12.6-2-.52a1.51,1.51,0,0,1,.13-.92c1.4.09,2.47.13,3.2.13s1.78,0,3.39-.13a2,2,0,0,1-.06.92,6.52,6.52,0,0,0-1.81.52l2.26,5.78a21.51,21.51,0,0,1,1.1,3.56h.08c.35-1.36.64-2.35.87-3L239,53.77l-2.07-.52a1.44,1.44,0,0,1,.13-.92c1.22.09,2.12.13,2.7.13s1.54,0,2.73-.13a2.16,2.16,0,0,1,0,.92,6.24,6.24,0,0,0-1.87.52L235.71,66A3.21,3.21,0,0,1,234.53,66.37Z"/><path class="cls-1" d="M259.18,46v7.61l.14.13a5.79,5.79,0,0,1,3.93-1.57,4.94,4.94,0,0,1,4,1.88,7.76,7.76,0,0,1,1.47,5,6.84,6.84,0,0,1-1.94,5.2,7.13,7.13,0,0,1-5.14,1.85,13.82,13.82,0,0,1-5-1V47.58l-2.18-.21a1.48,1.48,0,0,1,.14-.92,34.57,34.57,0,0,0,3.48-.7A2.66,2.66,0,0,1,259.18,46Zm.14,9.27v9.15a5.56,5.56,0,0,0,2.62.6,3.37,3.37,0,0,0,2.94-1.58A7.87,7.87,0,0,0,266,59.05a6.72,6.72,0,0,0-1-3.94,3,3,0,0,0-2.52-1.36,3.76,3.76,0,0,0-1.82.5A3.71,3.71,0,0,0,259.32,55.3Z"/><path class="cls-1" d="M276.68,58.5V59a6.93,6.93,0,0,0,1.06,4.09,3.4,3.4,0,0,0,2.9,1.47,6.43,6.43,0,0,0,1.89-.22,7.46,7.46,0,0,0,1.79-1,.74.74,0,0,1,.47.63,5.7,5.7,0,0,1-4.23,2,6.35,6.35,0,0,1-4.82-1.89A7.19,7.19,0,0,1,273.9,59a7,7,0,0,1,1.9-5.15A6.32,6.32,0,0,1,280.43,52a4,4,0,0,1,3.4,1.51A6.46,6.46,0,0,1,285,57.6a6,6,0,0,1,0,.69l-.37.28Zm3.73-5.36a3.07,3.07,0,0,0-2.27,1.12,5.84,5.84,0,0,0-1.35,3.16l5.72-.31a7.41,7.41,0,0,0-.46-3A1.67,1.67,0,0,0,280.41,53.14Z"/><path class="cls-1" d="M300,57.26v7a9,9,0,0,0,1.84.53,1.51,1.51,0,0,1-.13.92,12.27,12.27,0,0,1-2.21.18,6,6,0,0,1-1.49-.16l-.37-1.36h-.1A5.25,5.25,0,0,1,293.58,66a4.07,4.07,0,0,1-2.71-.88,3.08,3.08,0,0,1-1-2.46q0-4.32,7.53-4.19l0-2.31c0-2-.76-3-2.31-3.07a7.23,7.23,0,0,0-2.47.39l-.34,2.78a2.56,2.56,0,0,1-1.15.11,12.14,12.14,0,0,1-.53-3.41,11.85,11.85,0,0,1,5.2-1.05,3.83,3.83,0,0,1,3.2,1.15C299.64,53.88,300,55.27,300,57.26Zm-7.48,5.17A2.13,2.13,0,0,0,293,64a2.08,2.08,0,0,0,1.53.55,3.37,3.37,0,0,0,1.56-.44,3.49,3.49,0,0,0,1.25-1V59.55a8,8,0,0,0-3.8.64A2.37,2.37,0,0,0,292.47,62.43Z"/><path class="cls-1" d="M318.45,64.32a5.54,5.54,0,0,0,1.83.52,1.54,1.54,0,0,1-.13.92A11.78,11.78,0,0,1,318,66a6.36,6.36,0,0,1-1.47-.16l-.45-1.94H316a9.14,9.14,0,0,1-2.45,1.66A6.23,6.23,0,0,1,311,66q-3.56,0-3.55-3.94V54l-1.91-.21a1.47,1.47,0,0,1,.13-.92,34.16,34.16,0,0,0,3.41-.71,2.7,2.7,0,0,1,1,.29v9.18a2.58,2.58,0,0,0,.6,2,2.67,2.67,0,0,0,1.86.5,3.72,3.72,0,0,0,1.73-.48,5.36,5.36,0,0,0,1.55-1.2V54l-1.91-.21a1.4,1.4,0,0,1,.13-.92,34.16,34.16,0,0,0,3.41-.71,2.7,2.7,0,0,1,1,.29Z"/><path class="cls-1" d="M329.23,66a2.82,2.82,0,0,1-2.22-.84,4,4,0,0,1-.75-2.7V54.09h-1.83a1.72,1.72,0,0,1-.13-1.18,2.69,2.69,0,0,0,2.05-.59,6.15,6.15,0,0,0,1.09-2.61h1.39v2.94h2.76a1.53,1.53,0,0,1,0,1.44h-2.76V61.8a6.49,6.49,0,0,0,.28,2.34,1,1,0,0,0,1,.55,3.34,3.34,0,0,0,1.57-.53.92.92,0,0,1,.39.79,3,3,0,0,1-1.11.72A4.5,4.5,0,0,1,329.23,66Z"/><path class="cls-1" d="M339.22,58.5V59a6.93,6.93,0,0,0,1.06,4.09,3.4,3.4,0,0,0,2.9,1.47,6.43,6.43,0,0,0,1.89-.22,7.46,7.46,0,0,0,1.79-1,.74.74,0,0,1,.47.63,5.7,5.7,0,0,1-4.22,2,6.36,6.36,0,0,1-4.83-1.89A7.19,7.19,0,0,1,336.44,59a7,7,0,0,1,1.9-5.15A6.32,6.32,0,0,1,343,52a4,4,0,0,1,3.4,1.51,6.46,6.46,0,0,1,1.17,4.07,6,6,0,0,1,0,.69l-.36.28ZM343,53.14a3.09,3.09,0,0,0-2.27,1.12,5.84,5.84,0,0,0-1.35,3.16l5.72-.31a7.41,7.41,0,0,0-.46-3A1.67,1.67,0,0,0,343,53.14Zm-1.42-2.8,2.1-4.57a3.45,3.45,0,0,1,2.1,1,30,30,0,0,1-3.25,4A1.76,1.76,0,0,1,341.53,50.34Z"/><path class="cls-2" d="M128.06,79.82c-.19.51-.38,1-.56,1.41s-.38.83-.58,1.19a6.09,6.09,0,0,0,.83-.1,4.1,4.1,0,0,0,.67-.17,2.27,2.27,0,0,0,.54-.27,2.67,2.67,0,0,0,.45-.38,4.35,4.35,0,0,0,.41-.51,7.37,7.37,0,0,0,.41-.65l.25-.44.13.09-.25.44a8.5,8.5,0,0,1-.47.73,3.68,3.68,0,0,1-.48.54,2.6,2.6,0,0,1-.51.38,2.77,2.77,0,0,1-.58.26,4.51,4.51,0,0,1-.68.17l-.82.11a8.71,8.71,0,0,1-.76,1.12,4.36,4.36,0,0,1-.81.8,3.35,3.35,0,0,1-.89.48,3.21,3.21,0,0,1-1,.15,1.26,1.26,0,0,1-.87-.28,1,1,0,0,1-.3-.78.87.87,0,0,1,.22-.6,1.74,1.74,0,0,1,.7-.46,6.3,6.3,0,0,1,1.23-.33c.5-.09,1.11-.17,1.82-.23.13-.27.26-.57.39-.89s.28-.68.43-1.07c.22-.56.41-1,.56-1.44l.42-1,.32-.73c.1-.2.2-.38.29-.55a5.57,5.57,0,0,1,.5-.71,3.27,3.27,0,0,1,.63-.55,4.75,4.75,0,0,1-.63.14,4.4,4.4,0,0,1-.59,0,2.92,2.92,0,0,1-.5,0l-.47-.11-.43-.11a1.56,1.56,0,0,0-.35,0,.8.8,0,0,0-.34.07.89.89,0,0,0-.29.22,1.19,1.19,0,0,0-.2.35,1.5,1.5,0,0,0-.07.44,1.19,1.19,0,0,0,.09.49l-.16.09a.81.81,0,0,1-.09-.25,1,1,0,0,1,0-.31,1.33,1.33,0,0,1,.13-.61,1.49,1.49,0,0,1,.34-.45,1.73,1.73,0,0,1,.52-.28,2.27,2.27,0,0,1,.65-.09l.3,0a1.05,1.05,0,0,1,.24.06l.23.07.28.07.38,0a4,4,0,0,0,.53,0l.42,0,.34,0,.32-.08.36-.13v.08l-.27.11a1.91,1.91,0,0,0-.27.16,1.84,1.84,0,0,0-.27.23,2.37,2.37,0,0,0-.26.33,3.9,3.9,0,0,0-.28.51c-.1.19-.2.44-.32.73s-.25.65-.41,1.07Zm-4.66,5.12a2.65,2.65,0,0,0,.77-.11,2,2,0,0,0,.67-.36,3.25,3.25,0,0,0,.61-.69,9.31,9.31,0,0,0,.63-1.1l-1,.1c-.31,0-.6.08-.86.13s-.52.12-.74.19a2.41,2.41,0,0,0-.58.26,1,1,0,0,0-.38.33.75.75,0,0,0-.14.42.76.76,0,0,0,.26.62A1.15,1.15,0,0,0,123.4,84.94Z"/><path class="cls-2" d="M132.28,82.81a1.82,1.82,0,0,1-1.32-.45A1.79,1.79,0,0,1,130.5,81a4.75,4.75,0,0,1,0-.51,3.89,3.89,0,0,1,.12-.55,4.57,4.57,0,0,1,.48-1.18,4.26,4.26,0,0,1,.72-.93,3.35,3.35,0,0,1,.87-.61,2.11,2.11,0,0,1,.94-.21,1.13,1.13,0,0,1,.74.22.77.77,0,0,1,.27.63,1.12,1.12,0,0,1-.09.44,1.36,1.36,0,0,1-.26.41,3.08,3.08,0,0,1-.42.37,3,3,0,0,1-.53.28,3.4,3.4,0,0,1-.82.23,5.28,5.28,0,0,1-1,.08,6.55,6.55,0,0,0-.22.79,4.8,4.8,0,0,0-.08.85,1.37,1.37,0,0,0,.27,1,1.16,1.16,0,0,0,.88.3,2.41,2.41,0,0,0,1-.19,3.53,3.53,0,0,0,.83-.5,4.77,4.77,0,0,0,.71-.71,6.91,6.91,0,0,0,.56-.81l.24-.44.13.09-.25.44a7.17,7.17,0,0,1-.64,1,4.47,4.47,0,0,1-.77.74,3.3,3.3,0,0,1-.88.49A2.52,2.52,0,0,1,132.28,82.81Zm1.52-5.6a1.22,1.22,0,0,0-.61.18,2.19,2.19,0,0,0-.6.48,4.22,4.22,0,0,0-.55.73,6,6,0,0,0-.44.92,5.21,5.21,0,0,0,.89-.09,3.31,3.31,0,0,0,.65-.21,1.71,1.71,0,0,0,.42-.26,2,2,0,0,0,.37-.35,2.21,2.21,0,0,0,.26-.44,1.24,1.24,0,0,0,.1-.5.46.46,0,0,0,0-.21.36.36,0,0,0-.1-.14.4.4,0,0,0-.16-.08A1.08,1.08,0,0,0,133.8,77.21Z"/><path class="cls-2" d="M140.68,77h.7l-.77,2.09a6.14,6.14,0,0,1,1.21-1.52,1.86,1.86,0,0,1,1.22-.49,1,1,0,0,1,.5.11.89.89,0,0,1,.34.3,1.16,1.16,0,0,1,.19.45,2.44,2.44,0,0,1,.06.55,3.53,3.53,0,0,1-.07.7,4.13,4.13,0,0,1-.19.75,4.63,4.63,0,0,1-.63,1.28,4.44,4.44,0,0,1-.85.92,3.5,3.5,0,0,1-.95.54,2.73,2.73,0,0,1-.93.18,1.33,1.33,0,0,1-.42-.06.68.68,0,0,1-.28-.18.8.8,0,0,1-.16-.32,1.63,1.63,0,0,1-.06-.47l-1.27,3.42h-.7Zm2.2.31a1.16,1.16,0,0,0-.52.14,2.67,2.67,0,0,0-.53.39,6.31,6.31,0,0,0-1,1.27q-.23.36-.42.75c-.13.26-.24.51-.34.76s-.16.47-.22.69a2.67,2.67,0,0,0-.08.57,1.06,1.06,0,0,0,0,.31.53.53,0,0,0,.12.25.51.51,0,0,0,.21.17.67.67,0,0,0,.3.06,1.56,1.56,0,0,0,.54-.12,2.62,2.62,0,0,0,.68-.43,4.38,4.38,0,0,0,.72-.83A6.13,6.13,0,0,0,143,80c.07-.18.14-.36.19-.53s.1-.35.14-.51.07-.32.09-.46a2.75,2.75,0,0,0,0-.38,1,1,0,0,0-.14-.58A.52.52,0,0,0,142.88,77.31Z"/><path class="cls-2" d="M148.42,77.53a.19.19,0,0,0-.1-.15.39.39,0,0,0-.28-.08.84.84,0,0,0-.41.11,2.07,2.07,0,0,0-.51.41,5.55,5.55,0,0,0-.64.8,14.9,14.9,0,0,0-.81,1.28l-.24.42-.91,2.47h-.7l2.07-5.61h.7l-.84,2.28a12.37,12.37,0,0,1,.72-1.12,7.59,7.59,0,0,1,.6-.73,2.07,2.07,0,0,1,.52-.39,1.06,1.06,0,0,1,.47-.12.65.65,0,0,1,.49.19.66.66,0,0,1,.18.48.88.88,0,0,1,0,.24.57.57,0,0,1-.1.19.35.35,0,0,1-.14.13.41.41,0,0,1-.19,0,.39.39,0,0,1-.15,0l-.13-.07a.45.45,0,0,1-.13-.29.5.5,0,0,1,0-.16.35.35,0,0,1,.08-.13.52.52,0,0,1,.11-.1.33.33,0,0,1,.15,0h.1a0,0,0,0,0,0,0h0S148.42,77.58,148.42,77.53Z"/><path class="cls-2" d="M151.07,82.91a1.78,1.78,0,0,1-1.31-.45,1.75,1.75,0,0,1-.46-1.34,3.08,3.08,0,0,1,0-.51,3.82,3.82,0,0,1,.11-.55,5,5,0,0,1,.49-1.18,4.45,4.45,0,0,1,.72-.92,3.39,3.39,0,0,1,.87-.62,2.1,2.1,0,0,1,.93-.21,1.14,1.14,0,0,1,.75.22.77.77,0,0,1,.27.63,1.44,1.44,0,0,1-.36.86,2.07,2.07,0,0,1-.41.36,2.74,2.74,0,0,1-.54.28,3,3,0,0,1-.82.23,5.11,5.11,0,0,1-1,.08,4.94,4.94,0,0,0-.22.8,4.6,4.6,0,0,0-.08.84,1.27,1.27,0,0,0,.27.95,1.12,1.12,0,0,0,.87.3,2.37,2.37,0,0,0,.95-.19A3.28,3.28,0,0,0,153,82a4.71,4.71,0,0,0,.7-.71,5.33,5.33,0,0,0,.56-.81l.25-.44.13.09-.25.44a8.34,8.34,0,0,1-.65,1,4.07,4.07,0,0,1-.76.74,3.33,3.33,0,0,1-.88.49A2.54,2.54,0,0,1,151.07,82.91Zm1.52-5.59a1.2,1.2,0,0,0-.61.17,2.81,2.81,0,0,0-.6.48,4.77,4.77,0,0,0-.54.73,5.21,5.21,0,0,0-.44.92,4.52,4.52,0,0,0,.89-.09,2.67,2.67,0,0,0,.64-.21,2.09,2.09,0,0,0,.43-.25,2.53,2.53,0,0,0,.37-.36,2.16,2.16,0,0,0,.25-.44,1.21,1.21,0,0,0,.1-.5.66.66,0,0,0,0-.21.38.38,0,0,0-.11-.14.36.36,0,0,0-.15-.08Z"/><path class="cls-2" d="M155.71,77.23h.7l-.76,2a10.69,10.69,0,0,1,.62-.93,4.46,4.46,0,0,1,.59-.67,2.32,2.32,0,0,1,.59-.39,1.68,1.68,0,0,1,.63-.12,1.21,1.21,0,0,1,.52.1,1,1,0,0,1,.38.26,1.2,1.2,0,0,1,.22.4,1.22,1.22,0,0,1,.07.47,2.07,2.07,0,0,1-.08.58c-.05.21-.12.43-.2.66s-.16.45-.26.67l-.26.66c-.08.22-.14.41-.2.6a1.91,1.91,0,0,0-.08.48.65.65,0,0,0,.18.48.71.71,0,0,0,.55.2,1.29,1.29,0,0,0,.6-.14,2.3,2.3,0,0,0,.58-.41,4.24,4.24,0,0,0,.6-.69,11.07,11.07,0,0,0,.61-1l.25-.44.13.09-.25.44c-.23.39-.45.74-.66,1a4.85,4.85,0,0,1-.63.74,2.25,2.25,0,0,1-.64.43,1.65,1.65,0,0,1-.69.15,1.21,1.21,0,0,1-.52-.1,1.12,1.12,0,0,1-.38-.24,1.1,1.1,0,0,1-.23-.37,1.27,1.27,0,0,1-.07-.44,2.43,2.43,0,0,1,.08-.55c.06-.2.12-.41.2-.64s.17-.44.26-.67.18-.45.26-.67.15-.42.2-.61a2.2,2.2,0,0,0,.08-.52,1,1,0,0,0,0-.3.7.7,0,0,0-.13-.24.63.63,0,0,0-.23-.16.9.9,0,0,0-.34-.06,1.34,1.34,0,0,0-.58.14,2.37,2.37,0,0,0-.57.43,5.19,5.19,0,0,0-.59.73c-.2.28-.41.62-.63,1l-.25.44-1,2.71h-.7Z"/><path class="cls-2" d="M161.73,80.11a5.57,5.57,0,0,1,.42-.92,5.46,5.46,0,0,1,.51-.75,5.12,5.12,0,0,1,.59-.56,5.19,5.19,0,0,1,.61-.39,3.22,3.22,0,0,1,.61-.22,1.81,1.81,0,0,1,.55-.07,1,1,0,0,1,.45.08.74.74,0,0,1,.29.23.85.85,0,0,1,.16.36,2.34,2.34,0,0,1,.05.47l1.3-3.54H168l-2.15,5.81c0,.12-.09.25-.13.38a2.65,2.65,0,0,0-.12.37c0,.13-.06.25-.09.36a1.91,1.91,0,0,0,0,.32.77.77,0,0,0,.17.52.7.7,0,0,0,.54.2,1.5,1.5,0,0,0,.62-.13,2.34,2.34,0,0,0,.59-.41,6.18,6.18,0,0,0,.59-.69,10.23,10.23,0,0,0,.61-1l.24-.43.13.09-.25.44q-.34.6-.66,1a4.94,4.94,0,0,1-.64.74,2.48,2.48,0,0,1-.64.43,1.82,1.82,0,0,1-.7.14,1.93,1.93,0,0,1-.51-.09,1,1,0,0,1-.36-.26.94.94,0,0,1-.23-.39,1.59,1.59,0,0,1-.07-.5,1.87,1.87,0,0,1,0-.4,2.42,2.42,0,0,1,.1-.45,6.47,6.47,0,0,1-1.24,1.56,1.91,1.91,0,0,1-1.23.51,1.09,1.09,0,0,1-.5-.11.89.89,0,0,1-.34-.3,1.3,1.3,0,0,1-.19-.45,2.56,2.56,0,0,1-.06-.57,3.53,3.53,0,0,1,.07-.7A7.33,7.33,0,0,1,161.73,80.11Zm1,2.63a1.14,1.14,0,0,0,.52-.13,2.22,2.22,0,0,0,.53-.37,3.77,3.77,0,0,0,.51-.54,5.46,5.46,0,0,0,.47-.68,6.51,6.51,0,0,0,.41-.73,6.74,6.74,0,0,0,.33-.74,6,6,0,0,0,.21-.7,2.92,2.92,0,0,0,.08-.6,1.18,1.18,0,0,0-.06-.41.72.72,0,0,0-.16-.27.55.55,0,0,0-.22-.14.75.75,0,0,0-.26-.05,1.37,1.37,0,0,0-.59.17,2.67,2.67,0,0,0-.66.49,4.65,4.65,0,0,0-.67.84,8.78,8.78,0,0,0-.6,1.19,8.53,8.53,0,0,0-.34,1.06,4.13,4.13,0,0,0-.11.82,1,1,0,0,0,.14.58A.54.54,0,0,0,162.73,82.74Z"/><path class="cls-2" d="M168.38,81.63a2.61,2.61,0,0,1,.05-.48,2.52,2.52,0,0,1,.15-.44,2,2,0,0,1,.21-.38,1.18,1.18,0,0,1,.25-.25l2-2.9a1.52,1.52,0,0,1,.18-.61c.09-.16.19-.24.31-.24a.49.49,0,0,1,.24.08.23.23,0,0,1,.09.19.23.23,0,0,1,0,.14.54.54,0,0,1-.13.14,1.72,1.72,0,0,0-.19.17l-.12.16a.49.49,0,0,0-.06.17.62.62,0,0,0,0,.19,1.62,1.62,0,0,0,0,.22,2.52,2.52,0,0,0,.06.29c0,.12.07.26.12.44s.11.39.2.66a4.55,4.55,0,0,1,.17.76,4.23,4.23,0,0,1,.06.7,2.26,2.26,0,0,1-1,2,2.11,2.11,0,0,1-.6.3,2.17,2.17,0,0,1-.66.11,1.64,1.64,0,0,1-.56-.11,1,1,0,0,1-.42-.27,1.21,1.21,0,0,1-.27-.43A1.72,1.72,0,0,1,168.38,81.63ZM171,77.52,169.32,80a.33.33,0,0,1,.24.1.4.4,0,0,1,.09.27.88.88,0,0,1,0,.16.61.61,0,0,1-.07.14l-.1.09a.27.27,0,0,1-.12,0,.32.32,0,0,1-.14,0,.26.26,0,0,0-.14,0,.37.37,0,0,0-.19.07.74.74,0,0,0-.15.19,1.24,1.24,0,0,0-.1.29,2.21,2.21,0,0,0,0,.37,1.73,1.73,0,0,0,.07.48,1,1,0,0,0,.22.36,1,1,0,0,0,.33.24,1.25,1.25,0,0,0,.45.08,1.39,1.39,0,0,0,1.11-.55,3.15,3.15,0,0,0,.53-2c0-.11,0-.21,0-.32s0-.21,0-.33,0-.24,0-.37,0-.29-.07-.45-.07-.52-.09-.71a4.54,4.54,0,0,1,0-.46Z"/><path class="cls-2" d="M181.33,77.71a.24.24,0,0,0-.09-.16.48.48,0,0,0-.29-.07.87.87,0,0,0-.41.11A2.07,2.07,0,0,0,180,78a6.93,6.93,0,0,0-.64.79c-.24.34-.5.77-.8,1.29l-.24.42L177.44,83h-.71l2.08-5.6h.7l-.84,2.27q.39-.66.72-1.11a4.88,4.88,0,0,1,.6-.73,1.91,1.91,0,0,1,.52-.39,1,1,0,0,1,.47-.12.63.63,0,0,1,.49.19.61.61,0,0,1,.17.48,1,1,0,0,1,0,.24.66.66,0,0,1-.09.19.86.86,0,0,1-.14.13.41.41,0,0,1-.19,0l-.15,0a.29.29,0,0,1-.13-.08.27.27,0,0,1-.09-.12.29.29,0,0,1,0-.16.41.41,0,0,1,0-.16.61.61,0,0,1,.07-.14.38.38,0,0,1,.12-.09.23.23,0,0,1,.14,0h.1l0,0h0S181.33,77.75,181.33,77.71Z"/><path class="cls-2" d="M184,83.09a1.82,1.82,0,0,1-1.32-.45,1.79,1.79,0,0,1-.46-1.34,4.75,4.75,0,0,1,0-.51,3.89,3.89,0,0,1,.12-.55,4.57,4.57,0,0,1,.48-1.18,4.26,4.26,0,0,1,.72-.93,3.35,3.35,0,0,1,.87-.61,2.27,2.27,0,0,1,.94-.22,1.19,1.19,0,0,1,.74.23.77.77,0,0,1,.27.63,1.12,1.12,0,0,1-.09.44A1.49,1.49,0,0,1,186,79a2.58,2.58,0,0,1-.42.37,3,3,0,0,1-.53.28,3.4,3.4,0,0,1-.82.23,6.21,6.21,0,0,1-1,.08,6.55,6.55,0,0,0-.22.79,4.8,4.8,0,0,0-.08.85,1.37,1.37,0,0,0,.27,1,1.2,1.2,0,0,0,.88.3,2.41,2.41,0,0,0,1-.19,3.34,3.34,0,0,0,.83-.5,4.77,4.77,0,0,0,.71-.71,7.86,7.86,0,0,0,.56-.81l.25-.44.12.09-.25.44a7.17,7.17,0,0,1-.64,1,4.47,4.47,0,0,1-.77.74,3.3,3.3,0,0,1-.88.49A2.71,2.71,0,0,1,184,83.09Zm1.52-5.6a1.22,1.22,0,0,0-.61.18,2.19,2.19,0,0,0-.6.48,4.22,4.22,0,0,0-.55.73,6,6,0,0,0-.44.92,5.21,5.21,0,0,0,.89-.09,3.1,3.1,0,0,0,.65-.21,2.08,2.08,0,0,0,.42-.26,1.58,1.58,0,0,0,.37-.36,1.9,1.9,0,0,0,.26-.43,1.24,1.24,0,0,0,.1-.5.46.46,0,0,0,0-.21.3.3,0,0,0-.1-.14.4.4,0,0,0-.16-.08A.58.58,0,0,0,185.51,77.49Z"/><path class="cls-2" d="M188.62,77.41h.7l-.75,2a10.24,10.24,0,0,1,.62-.94,4.87,4.87,0,0,1,.58-.66,2.55,2.55,0,0,1,.6-.39,1.69,1.69,0,0,1,.63-.13,1.37,1.37,0,0,1,.52.11,1,1,0,0,1,.37.26,1.18,1.18,0,0,1,.23.39,1.49,1.49,0,0,1,.07.47,2.6,2.6,0,0,1-.08.59,6,6,0,0,1-.2.65c-.08.23-.17.45-.26.68l-.26.66a6,6,0,0,0-.2.6,1.84,1.84,0,0,0-.08.48.72.72,0,0,0,.17.48.73.73,0,0,0,.56.2,1.46,1.46,0,0,0,.6-.14,2.3,2.3,0,0,0,.58-.41,4.69,4.69,0,0,0,.59-.69,11.28,11.28,0,0,0,.62-1l.25-.43.12.09-.25.43q-.34.6-.66,1a4.74,4.74,0,0,1-.63.73,2.1,2.1,0,0,1-.64.44,1.45,1.45,0,0,1-.69.14,1.42,1.42,0,0,1-.52-.09,1.08,1.08,0,0,1-.6-.61,1.27,1.27,0,0,1-.07-.44,1.92,1.92,0,0,1,.08-.55,6.61,6.61,0,0,1,.2-.64c.08-.22.16-.45.26-.68l.26-.66c.08-.22.14-.42.2-.62a2.06,2.06,0,0,0,.08-.52,1,1,0,0,0,0-.3.59.59,0,0,0-.14-.23.56.56,0,0,0-.23-.16.81.81,0,0,0-.33-.06,1.38,1.38,0,0,0-.59.14,2.37,2.37,0,0,0-.57.43,5.84,5.84,0,0,0-.59.72c-.19.29-.4.63-.62,1l-.25.44-1,2.71h-.7Z"/><path class="cls-2" d="M194.65,80.29a5.67,5.67,0,0,1,.41-.93,6,6,0,0,1,.52-.74,3.86,3.86,0,0,1,.59-.56,3.46,3.46,0,0,1,.61-.39,3.2,3.2,0,0,1,.6-.23,3,3,0,0,1,.56-.07,1,1,0,0,1,.45.09.66.66,0,0,1,.29.23,1,1,0,0,1,.16.36,2.29,2.29,0,0,1,0,.47L200.19,75h.7l-2.14,5.8-.14.38-.12.38c0,.12-.06.24-.08.36a1.82,1.82,0,0,0,0,.32.73.73,0,0,0,.17.52.67.67,0,0,0,.54.2,1.63,1.63,0,0,0,.61-.13,2.17,2.17,0,0,0,.59-.41,4.26,4.26,0,0,0,.59-.7,8.87,8.87,0,0,0,.62-1l.24-.43.13.09-.25.43a12.48,12.48,0,0,1-.67,1.06,4.31,4.31,0,0,1-.63.73,2.29,2.29,0,0,1-.64.44,1.65,1.65,0,0,1-.7.13,1.36,1.36,0,0,1-.51-.09,1,1,0,0,1-.37-.25.93.93,0,0,1-.22-.39,1.59,1.59,0,0,1-.07-.5,2.8,2.8,0,0,1,0-.4,3.63,3.63,0,0,1,.1-.45,6.19,6.19,0,0,1-1.23,1.55,1.83,1.83,0,0,1-1.24.51,1.12,1.12,0,0,1-.5-.1,1.06,1.06,0,0,1-.33-.3,1.29,1.29,0,0,1-.2-.46,2.48,2.48,0,0,1-.05-.56,3.46,3.46,0,0,1,.07-.7A5,5,0,0,1,194.65,80.29Zm1,2.63a1.14,1.14,0,0,0,.52-.13,2.7,2.7,0,0,0,.53-.37,5.52,5.52,0,0,0,.51-.55,6.65,6.65,0,0,0,.47-.67,7.53,7.53,0,0,0,.41-.73,8,8,0,0,0,.32-.75,4.31,4.31,0,0,0,.22-.7,2.7,2.7,0,0,0,.07-.6,1.5,1.5,0,0,0,0-.4.72.72,0,0,0-.16-.27.44.44,0,0,0-.22-.14.8.8,0,0,0-.26,0,1.45,1.45,0,0,0-.59.16,2.4,2.4,0,0,0-.66.5,4.65,4.65,0,0,0-.67.84,6.28,6.28,0,0,0-.6,1.19,8.53,8.53,0,0,0-.34,1.06,3.52,3.52,0,0,0-.12.82,1,1,0,0,0,.15.58A.53.53,0,0,0,195.65,82.92Z"/><path class="cls-2" d="M203.54,83.2a1.87,1.87,0,0,1-1.32-.46,1.76,1.76,0,0,1-.46-1.33,5.13,5.13,0,0,1,0-.52c0-.17.06-.36.11-.55a5.07,5.07,0,0,1,.49-1.17,4.26,4.26,0,0,1,.72-.93,3.35,3.35,0,0,1,.87-.61,2.12,2.12,0,0,1,.94-.22,1.13,1.13,0,0,1,.74.23.77.77,0,0,1,.27.62,1.17,1.17,0,0,1-.09.45,1.45,1.45,0,0,1-.27.41,2.07,2.07,0,0,1-.41.36,2.77,2.77,0,0,1-.54.29,3.83,3.83,0,0,1-.81.23,6.28,6.28,0,0,1-1,.07,6.71,6.71,0,0,0-.22.8,4.78,4.78,0,0,0-.08.84,1.41,1.41,0,0,0,.27,1,1.18,1.18,0,0,0,.87.29,2.34,2.34,0,0,0,1-.19,3.55,3.55,0,0,0,.84-.49,5.29,5.29,0,0,0,.71-.71,6.91,6.91,0,0,0,.55-.82l.25-.43.13.09-.25.43a7.5,7.5,0,0,1-.64,1,4.53,4.53,0,0,1-.77.75,3.47,3.47,0,0,1-.88.49A2.94,2.94,0,0,1,203.54,83.2Zm1.52-5.6a1.31,1.31,0,0,0-.61.17,2.44,2.44,0,0,0-.6.49,3.79,3.79,0,0,0-.55.72,6,6,0,0,0-.44.92,3.75,3.75,0,0,0,.89-.09,3.33,3.33,0,0,0,.65-.2,2.08,2.08,0,0,0,.42-.26,2.53,2.53,0,0,0,.37-.36,2,2,0,0,0,.26-.44,1.38,1.38,0,0,0,.1-.49.48.48,0,0,0,0-.22.45.45,0,0,0-.1-.14.46.46,0,0,0-.16-.07A.58.58,0,0,0,205.06,77.6Z"/><path class="cls-2" d="M212.91,77.68l-4.46,4.58.22-.07a1,1,0,0,1,.25,0,1.77,1.77,0,0,1,.45,0,3.59,3.59,0,0,1,.47.12c.16,0,.32.1.47.15l.44.15.37.13.29,0,.22,0a.73.73,0,0,0,.2,0,.62.62,0,0,0,.2-.1l.2-.15a5.5,5.5,0,0,0,.6-.69c.21-.29.43-.62.67-1l.26-.44.12.09-.26.44c-.25.42-.48.77-.69,1.07a4.59,4.59,0,0,1-.61.72A2.2,2.2,0,0,1,212,83a1.51,1.51,0,0,1-.36.18,2.74,2.74,0,0,1-.39.09l-.45,0a1.73,1.73,0,0,1-.38,0,3.31,3.31,0,0,1-.42-.12,3.52,3.52,0,0,1-.42-.15l-.42-.15a3.11,3.11,0,0,0-.41-.11,1.22,1.22,0,0,0-.37,0,.56.56,0,0,0-.2,0l-.16.11-.18.19c-.07.08-.17.17-.29.28L207.4,83l4.81-5a4.31,4.31,0,0,1-.6.31,1.76,1.76,0,0,1-.59.11,1.48,1.48,0,0,1-.35,0l-.36-.11-.35-.15-.31-.15-.26-.12a1.15,1.15,0,0,0-.2,0,.5.5,0,0,0-.29.15,2.89,2.89,0,0,0-.4.43c-.15.19-.31.42-.49.69s-.36.59-.56.94l-.25.44-.12-.09.25-.44q.39-.69.69-1.17a6.79,6.79,0,0,1,.58-.79,2,2,0,0,1,.52-.46,1.14,1.14,0,0,1,.54-.14,1.45,1.45,0,0,1,.51.1l.47.22.47.21a1.38,1.38,0,0,0,.49.1,1.47,1.47,0,0,0,.54-.12,2.56,2.56,0,0,0,.65-.44Z"/><path class="cls-2" d="M214.88,79.91l3,0-.18.44-3,0Z"/><path class="cls-2" d="M219.57,80.9a8.24,8.24,0,0,0-.28.85,2.35,2.35,0,0,0-.09.58.74.74,0,0,0,.18.53.67.67,0,0,0,.52.19,1.35,1.35,0,0,0,.66-.17,2.54,2.54,0,0,0,.66-.46,4.67,4.67,0,0,0,.6-.7,6.06,6.06,0,0,0,.48-.87,4.85,4.85,0,0,0,.3-.91,4.34,4.34,0,0,0,.1-1,3.09,3.09,0,0,0,0-.58,1.56,1.56,0,0,0-.1-.34,1.83,1.83,0,0,0-.1-.2.22.22,0,0,1,0-.13.18.18,0,0,1,.07-.15.22.22,0,0,1,.17-.07.23.23,0,0,1,.18.09,1,1,0,0,1,.12.23,1.58,1.58,0,0,1,.06.35,2.77,2.77,0,0,1,0,.42c0,.21,0,.43-.05.64a6,6,0,0,1-.12.61,5.58,5.58,0,0,1-.18.58q-.1.27-.21.51a6.74,6.74,0,0,1-.55,1,4.38,4.38,0,0,1-.67.74,2.71,2.71,0,0,1-.73.48,1.8,1.8,0,0,1-.77.18,1.41,1.41,0,0,1-.48-.09,1.16,1.16,0,0,1-.36-.25,1.26,1.26,0,0,1-.23-.39,1.7,1.7,0,0,1-.07-.51,2.78,2.78,0,0,1,.06-.54,4.23,4.23,0,0,1,.18-.62l1.22-3.31h.7Z"/><path class="cls-2" d="M224.53,80.47a4.54,4.54,0,0,1,.5-1.17,4.62,4.62,0,0,1,.73-.94,3.38,3.38,0,0,1,.91-.61,2.29,2.29,0,0,1,1-.22,1.51,1.51,0,0,1,.67.14,1.11,1.11,0,0,1,.43.37,1.46,1.46,0,0,1,.24.52,3.2,3.2,0,0,1,.07.63,4.29,4.29,0,0,1-.08.71,3.77,3.77,0,0,1-.18.68,3.12,3.12,0,0,1-.15.39l-.18.37a.54.54,0,0,0,.54.35,1,1,0,0,0,.29,0,1.19,1.19,0,0,0,.31-.14,1.66,1.66,0,0,0,.3-.25,2,2,0,0,0,.28-.38l.25-.44.13.09-.25.44a2.4,2.4,0,0,1-.37.5,1.64,1.64,0,0,1-.37.27.88.88,0,0,1-.33.12l-.26,0a1.24,1.24,0,0,1-.4-.07,1.14,1.14,0,0,1-.31-.16,4.66,4.66,0,0,1-.53.69,3.6,3.6,0,0,1-.6.52,2.55,2.55,0,0,1-.66.33,2,2,0,0,1-.68.12,1.32,1.32,0,0,1-.6-.13,1.1,1.1,0,0,1-.45-.35,1.36,1.36,0,0,1-.28-.55,2.52,2.52,0,0,1-.1-.75,3.23,3.23,0,0,1,0-.53A5.17,5.17,0,0,1,224.53,80.47Zm1.35,2.61a1.41,1.41,0,0,0,.56-.12,2,2,0,0,0,.56-.36,4,4,0,0,0,.53-.55,6.54,6.54,0,0,0,.47-.73.7.7,0,0,1-.08-.23,1,1,0,0,1,0-.24.84.84,0,0,1,0-.27,1.15,1.15,0,0,1,.12-.25.8.8,0,0,1,.2-.21,1.06,1.06,0,0,1,.28-.15,4.88,4.88,0,0,0,.12-.55,3.66,3.66,0,0,0,0-.57,2,2,0,0,0,0-.43.82.82,0,0,0-.14-.36.78.78,0,0,0-.27-.24.83.83,0,0,0-.43-.1,1.58,1.58,0,0,0-.74.2,2.65,2.65,0,0,0-.69.55,4.38,4.38,0,0,0-.59.85,5.75,5.75,0,0,0-.45,1.1,5.45,5.45,0,0,0-.18.8,4.08,4.08,0,0,0-.07.74C225.09,82.71,225.36,83.08,225.88,83.08Z"/><path class="cls-2" d="M231.66,77.64h.7L231.14,81c0,.12-.09.25-.14.37l-.12.38c0,.13-.06.25-.08.36a1.91,1.91,0,0,0,0,.32.76.76,0,0,0,.17.52.67.67,0,0,0,.54.2,1.46,1.46,0,0,0,.61-.13,2.17,2.17,0,0,0,.59-.41,4.61,4.61,0,0,0,.59-.69,11.28,11.28,0,0,0,.62-1l.23-.42,1-2.82h.7L234.64,81l-.13.37a3.3,3.3,0,0,0-.12.38c0,.13-.06.25-.08.36a1.91,1.91,0,0,0,0,.32.68.68,0,0,0,.17.52.66.66,0,0,0,.53.2,1.5,1.5,0,0,0,.62-.13,2.34,2.34,0,0,0,.59-.41,5.54,5.54,0,0,0,.59-.7c.19-.28.4-.6.61-1l.25-.44.12.09-.24.44c-.23.41-.45.76-.66,1.06a4.33,4.33,0,0,1-.64.73,2.06,2.06,0,0,1-.64.43,1.86,1.86,0,0,1-.7.14,1.29,1.29,0,0,1-.51-.09A1.1,1.1,0,0,1,234,83a1.07,1.07,0,0,1-.22-.39,1.65,1.65,0,0,1-.08-.51,3,3,0,0,1,0-.4,3.48,3.48,0,0,1,.1-.44,9.75,9.75,0,0,1-.62.92,3.7,3.7,0,0,1-.59.64,2.08,2.08,0,0,1-.6.38,1.84,1.84,0,0,1-.66.12,1.36,1.36,0,0,1-.51-.09,1.1,1.1,0,0,1-.37-.25,1.07,1.07,0,0,1-.22-.39,1.61,1.61,0,0,1-.07-.51,2.78,2.78,0,0,1,.06-.54,4.12,4.12,0,0,1,.18-.61Z"/><path class="cls-2" d="M237.2,82a2.44,2.44,0,0,1,.05-.48,3,3,0,0,1,.15-.45,1.88,1.88,0,0,1,.21-.37,1,1,0,0,1,.25-.26l2-2.9a1.57,1.57,0,0,1,.18-.61c.08-.16.19-.24.31-.23a.35.35,0,0,1,.23.07.24.24,0,0,1,.06.33.79.79,0,0,1-.13.14,1.72,1.72,0,0,0-.19.17l-.12.16a.87.87,0,0,0-.07.17,1.23,1.23,0,0,0,0,.2,1.49,1.49,0,0,0,0,.21,2.15,2.15,0,0,0,.06.29,4,4,0,0,0,.11.44c.06.17.12.39.2.66a6.35,6.35,0,0,1,.18.76,4.23,4.23,0,0,1,.06.7,2.28,2.28,0,0,1-1,2,2.25,2.25,0,0,1-.6.3,2.17,2.17,0,0,1-.66.11,1.6,1.6,0,0,1-.56-.1,1.28,1.28,0,0,1-.43-.28,1.24,1.24,0,0,1-.26-.43A1.7,1.7,0,0,1,237.2,82Zm2.64-4.12-1.7,2.46a.33.33,0,0,1,.24.1.4.4,0,0,1,.09.27.41.41,0,0,1,0,.16.35.35,0,0,1-.06.14.43.43,0,0,1-.1.09.27.27,0,0,1-.12,0,.32.32,0,0,1-.14,0,.29.29,0,0,0-.14,0,.33.33,0,0,0-.19.06.58.58,0,0,0-.15.19,1.17,1.17,0,0,0-.1.3,1.37,1.37,0,0,0,0,.36,1.43,1.43,0,0,0,.07.48,1.12,1.12,0,0,0,.21.37,1.13,1.13,0,0,0,.34.23,1.25,1.25,0,0,0,.45.08,1.27,1.27,0,0,0,.61-.14,1.39,1.39,0,0,0,.5-.41,3.09,3.09,0,0,0,.52-2c0-.1,0-.21,0-.32s0-.21,0-.33,0-.24-.05-.37,0-.28-.06-.45-.07-.52-.09-.71a3,3,0,0,1,0-.46Z"/><path class="cls-2" d="M246.58,80.57a4.93,4.93,0,0,1,.41-.93,5.12,5.12,0,0,1,.52-.74,3.81,3.81,0,0,1,.58-.56,3.53,3.53,0,0,1,.62-.39,2.91,2.91,0,0,1,.6-.22,2.29,2.29,0,0,1,.56-.08,1,1,0,0,1,.45.09.73.73,0,0,1,.29.23,1.19,1.19,0,0,1,.16.36,2.29,2.29,0,0,1,0,.47l.39-1h.7l-1.23,3.32c0,.12-.09.24-.13.37s-.08.26-.12.38-.06.24-.08.36a1.82,1.82,0,0,0,0,.32.73.73,0,0,0,.17.52.66.66,0,0,0,.53.2,1.47,1.47,0,0,0,.62-.13,2.17,2.17,0,0,0,.59-.41,4.81,4.81,0,0,0,.59-.7,10,10,0,0,0,.61-1l.25-.43.12.09-.24.43c-.24.41-.46.77-.67,1.07a4.74,4.74,0,0,1-.63.73,2.4,2.4,0,0,1-.64.43,1.68,1.68,0,0,1-.7.13,1.36,1.36,0,0,1-.51-.09.87.87,0,0,1-.37-.25.93.93,0,0,1-.22-.39,1.59,1.59,0,0,1-.08-.5c0-.13,0-.26,0-.4a3.63,3.63,0,0,1,.1-.45,6.43,6.43,0,0,1-1.23,1.55,1.83,1.83,0,0,1-1.24.51,1.12,1.12,0,0,1-.5-.1,1.22,1.22,0,0,1-.34-.3,1.48,1.48,0,0,1-.19-.46,2.47,2.47,0,0,1-.06-.56,5.92,5.92,0,0,1,.07-.7A5.08,5.08,0,0,1,246.58,80.57Zm1,2.63a1.11,1.11,0,0,0,.52-.13,2.48,2.48,0,0,0,.54-.37,5.52,5.52,0,0,0,.51-.55c.16-.21.32-.43.47-.67s.28-.48.41-.73a8,8,0,0,0,.32-.75,5,5,0,0,0,.21-.7,2.76,2.76,0,0,0,.08-.6,1.16,1.16,0,0,0-.06-.4.87.87,0,0,0-.15-.27.59.59,0,0,0-.22-.14.8.8,0,0,0-.26,0,1.42,1.42,0,0,0-.59.16,2.84,2.84,0,0,0-.67.5,5.12,5.12,0,0,0-.66.84,6.28,6.28,0,0,0-.6,1.19,7.13,7.13,0,0,0-.34,1.06,3.52,3.52,0,0,0-.12.82,1,1,0,0,0,.15.58A.52.52,0,0,0,247.57,83.2Z"/><path class="cls-2" d="M254.37,81.08c-.12.35-.22.63-.28.86a2.35,2.35,0,0,0-.09.58.74.74,0,0,0,.18.53.71.71,0,0,0,.53.19,1.47,1.47,0,0,0,.65-.17,2.54,2.54,0,0,0,.66-.46,4.67,4.67,0,0,0,.6-.7,6.06,6.06,0,0,0,.48-.87,5.1,5.1,0,0,0,.3-.91,4.34,4.34,0,0,0,.1-1,2.42,2.42,0,0,0,0-.58,1.56,1.56,0,0,0-.1-.34,1.83,1.83,0,0,0-.1-.2.25.25,0,0,1,0-.14.21.21,0,0,1,.07-.15.27.27,0,0,1,.17-.06.25.25,0,0,1,.18.08.67.67,0,0,1,.12.24,2.53,2.53,0,0,1,.07.34c0,.14,0,.28,0,.43a4.72,4.72,0,0,1-.05.64,6,6,0,0,1-.12.61,4.75,4.75,0,0,1-.18.57c-.07.19-.14.36-.21.52a5.89,5.89,0,0,1-.55,1,4.81,4.81,0,0,1-.67.74,2.71,2.71,0,0,1-.73.48,1.62,1.62,0,0,1-.76.17,1.26,1.26,0,0,1-.49-.09,1,1,0,0,1-.36-.25.93.93,0,0,1-.22-.39,1.35,1.35,0,0,1-.08-.5,2.78,2.78,0,0,1,.06-.54,4.23,4.23,0,0,1,.18-.62l1.22-3.31h.7Z"/><path class="cls-2" d="M261,83.51a1.87,1.87,0,0,1-1.32-.46,1.76,1.76,0,0,1-.46-1.33,3.08,3.08,0,0,1,0-.51,4,4,0,0,1,.11-.56,5.07,5.07,0,0,1,.49-1.17,4.26,4.26,0,0,1,.72-.93,3.35,3.35,0,0,1,.87-.61,2.11,2.11,0,0,1,.93-.22,1.14,1.14,0,0,1,.75.23.77.77,0,0,1,.27.62,1.17,1.17,0,0,1-.09.45,1.45,1.45,0,0,1-.27.41,2.07,2.07,0,0,1-.41.36,2.77,2.77,0,0,1-.54.29,3.83,3.83,0,0,1-.81.23,6.28,6.28,0,0,1-1,.07,5.24,5.24,0,0,0-.22.8,4.78,4.78,0,0,0-.08.84,1.41,1.41,0,0,0,.27,1,1.17,1.17,0,0,0,.87.29,2.51,2.51,0,0,0,.95-.18,4,4,0,0,0,.84-.5,4.7,4.7,0,0,0,.7-.71,6,6,0,0,0,.56-.82l.25-.43.13.09-.25.43a6.61,6.61,0,0,1-.65.95,4.14,4.14,0,0,1-.76.75,3.47,3.47,0,0,1-.88.49A2.94,2.94,0,0,1,261,83.51Zm1.52-5.6a1.28,1.28,0,0,0-.61.17,2.68,2.68,0,0,0-.61.49,4.22,4.22,0,0,0-.54.72,5.21,5.21,0,0,0-.44.92,3.81,3.81,0,0,0,.89-.09,3.33,3.33,0,0,0,.65-.2,2.4,2.4,0,0,0,.42-.26,2.53,2.53,0,0,0,.37-.36,2.43,2.43,0,0,0,.26-.44,1.38,1.38,0,0,0,.1-.49.67.67,0,0,0,0-.22.45.45,0,0,0-.1-.14.46.46,0,0,0-.16-.07A.58.58,0,0,0,262.5,77.91Z"/><path class="cls-2" d="M268.14,79a.32.32,0,0,1-.25-.1.33.33,0,0,1-.09-.25.36.36,0,0,1,.08-.24.27.27,0,0,1,.22-.1l.09,0h.05s0,0,0-.07a.16.16,0,0,0,0-.12.4.4,0,0,0-.12-.1.62.62,0,0,0-.19-.07.78.78,0,0,0-.22,0,1.17,1.17,0,0,0-.6.17,2.39,2.39,0,0,0-.58.46,4.86,4.86,0,0,0-.54.69,6.15,6.15,0,0,0-.43.85,5,5,0,0,0-.3.93,4.54,4.54,0,0,0-.11.95,2.64,2.64,0,0,0,.06.6.94.94,0,0,0,.2.4.69.69,0,0,0,.34.23,1.52,1.52,0,0,0,.51.08,2.5,2.5,0,0,0,.86-.14,3.23,3.23,0,0,0,.82-.43,3.66,3.66,0,0,0,.74-.69,5.9,5.9,0,0,0,.67-1l.25-.44.12.1-.25.43A5.33,5.33,0,0,1,268,83a3,3,0,0,1-1.8.58,1.76,1.76,0,0,1-1.32-.47,1.83,1.83,0,0,1-.44-1.32c0-.17,0-.35,0-.52a4.88,4.88,0,0,1,.12-.55,5,5,0,0,1,.48-1.17,4.26,4.26,0,0,1,.72-.93,3.13,3.13,0,0,1,.87-.61,2.16,2.16,0,0,1,.95-.22,1,1,0,0,1,.77.27.66.66,0,0,1,.17.24.62.62,0,0,1,.05.27.49.49,0,0,1-.11.33A.44.44,0,0,1,268.14,79Z"/><path class="cls-2" d="M275.44,75.38h.71L274,81.19c-.05.12-.09.25-.14.38s-.08.25-.11.37a2.83,2.83,0,0,0-.09.37,1.8,1.8,0,0,0,0,.31.8.8,0,0,0,.17.53.7.7,0,0,0,.54.19,1.32,1.32,0,0,0,.61-.13,2.17,2.17,0,0,0,.59-.41,4.81,4.81,0,0,0,.59-.7c.2-.27.4-.6.62-1l.25-.44.12.1-.24.43c-.24.41-.46.76-.67,1.06a4.28,4.28,0,0,1-.64.73,2.25,2.25,0,0,1-.64.43,1.65,1.65,0,0,1-.7.14,1.36,1.36,0,0,1-.51-.09.93.93,0,0,1-.36-.25,1.09,1.09,0,0,1-.23-.39,1.61,1.61,0,0,1-.07-.51,2.78,2.78,0,0,1,.06-.54,4.12,4.12,0,0,1,.18-.61Z"/><path class="cls-2" d="M278.79,83.6a1.82,1.82,0,0,1-1.32-.45,1.79,1.79,0,0,1-.46-1.34c0-.16,0-.33,0-.51s.07-.36.12-.55a4.87,4.87,0,0,1,.48-1.17,4.26,4.26,0,0,1,.72-.93,3.17,3.17,0,0,1,.87-.62,2.29,2.29,0,0,1,.94-.21,1.13,1.13,0,0,1,.74.22.77.77,0,0,1,.27.63,1.2,1.2,0,0,1-.09.45,1.66,1.66,0,0,1-.26.41,2.4,2.4,0,0,1-.41.36,3.43,3.43,0,0,1-.54.29,4.65,4.65,0,0,1-.82.23,6.28,6.28,0,0,1-1,.07,5.09,5.09,0,0,0-.21.79,4,4,0,0,0-.09.85,1.37,1.37,0,0,0,.27.95,1.16,1.16,0,0,0,.88.3,2.41,2.41,0,0,0,1-.19,3.06,3.06,0,0,0,.83-.5,4.77,4.77,0,0,0,.71-.71,6.91,6.91,0,0,0,.56-.81l.25-.44.12.09-.25.44a7.17,7.17,0,0,1-.64,1,4.53,4.53,0,0,1-.77.75,3.37,3.37,0,0,1-.87.48A2.6,2.6,0,0,1,278.79,83.6ZM280.31,78a1.2,1.2,0,0,0-.61.17,2.64,2.64,0,0,0-.6.48,4.22,4.22,0,0,0-.55.73,6,6,0,0,0-.44.92,5.21,5.21,0,0,0,.89-.09,2.61,2.61,0,0,0,.65-.21,2.09,2.09,0,0,0,.43-.25,2.45,2.45,0,0,0,.36-.36,2.21,2.21,0,0,0,.26-.44,1.24,1.24,0,0,0,.1-.5.46.46,0,0,0,0-.21.36.36,0,0,0-.1-.14.4.4,0,0,0-.16-.08Z"/><path class="cls-2" d="M287.11,79.89a6.19,6.19,0,0,1,1.22-1.52,1.88,1.88,0,0,1,1.23-.5,1.07,1.07,0,0,1,.49.11.83.83,0,0,1,.34.3,1.3,1.3,0,0,1,.19.45,2.47,2.47,0,0,1,.06.56,3.39,3.39,0,0,1-.07.7,5.37,5.37,0,0,1-.19.74,5.68,5.68,0,0,1-.42.93,5.12,5.12,0,0,1-.52.74,4.35,4.35,0,0,1-.58.56,3.38,3.38,0,0,1-1.21.62,2.32,2.32,0,0,1-.56.07,1.93,1.93,0,0,1-.62-.09,1.22,1.22,0,0,1-.45-.25,1.19,1.19,0,0,1-.27-.39,1.36,1.36,0,0,1-.09-.51,2.86,2.86,0,0,1,.07-.54,5.1,5.1,0,0,1,.17-.61l2.15-5.81h.7Zm2.29-1.79a1.16,1.16,0,0,0-.52.14,2.61,2.61,0,0,0-.54.39,4.19,4.19,0,0,0-.53.57c-.18.22-.34.45-.5.69s-.3.5-.43.76-.24.51-.34.76a6.15,6.15,0,0,0-.22.7,2.67,2.67,0,0,0-.08.58.8.8,0,0,0,.18.56.77.77,0,0,0,.59.21,1.46,1.46,0,0,0,.49-.11,1.88,1.88,0,0,0,.63-.4,4,4,0,0,0,.7-.82,7.39,7.39,0,0,0,.7-1.36,9.09,9.09,0,0,0,.35-1,3.88,3.88,0,0,0,.12-.8,1,1,0,0,0-.15-.61A.51.51,0,0,0,289.4,78.1Z"/><path class="cls-2" d="M293.19,78h.71l-1.23,3.31c0,.12-.09.25-.13.38a2.78,2.78,0,0,0-.12.38c0,.12-.06.24-.09.36a1.82,1.82,0,0,0,0,.32.79.79,0,0,0,.17.52.7.7,0,0,0,.54.19,1.29,1.29,0,0,0,.61-.13,2.17,2.17,0,0,0,.59-.41,4.69,4.69,0,0,0,.59-.69,11.28,11.28,0,0,0,.62-1l.25-.43.12.09-.24.43c-.24.41-.46.76-.67,1.06a4.74,4.74,0,0,1-.63.73,2.22,2.22,0,0,1-.65.43,1.65,1.65,0,0,1-.7.14,1.36,1.36,0,0,1-.51-.09,1,1,0,0,1-.36-.25,1.09,1.09,0,0,1-.23-.39,1.61,1.61,0,0,1-.07-.51,2.78,2.78,0,0,1,.06-.54,4.12,4.12,0,0,1,.18-.61Zm.39-1.24a.4.4,0,0,1,.12-.29.41.41,0,0,1,.28-.11.39.39,0,0,1,.28.11.4.4,0,0,1,.09.44.48.48,0,0,1-.22.21.39.39,0,0,1-.55-.36Z"/><path class="cls-2" d="M297.47,83.71a1.85,1.85,0,0,1-1.32-.46,1.77,1.77,0,0,1-.46-1.34,3.08,3.08,0,0,1,0-.51,3.82,3.82,0,0,1,.11-.55,5.07,5.07,0,0,1,.49-1.17,4.26,4.26,0,0,1,.72-.93,3.13,3.13,0,0,1,.87-.61,2.11,2.11,0,0,1,.93-.22,1.14,1.14,0,0,1,.75.22.77.77,0,0,1,.27.63,1.2,1.2,0,0,1-.09.45,1.71,1.71,0,0,1-.27.41,2.07,2.07,0,0,1-.41.36,3.43,3.43,0,0,1-.54.29,4.65,4.65,0,0,1-.82.23,6.08,6.08,0,0,1-1,.07,4.94,4.94,0,0,0-.22.8,4.6,4.6,0,0,0-.08.84,1.32,1.32,0,0,0,.27,1,1.12,1.12,0,0,0,.87.3,2.37,2.37,0,0,0,.95-.19,3.28,3.28,0,0,0,.84-.5,4.71,4.71,0,0,0,.7-.71,5.33,5.33,0,0,0,.56-.81l.25-.44.13.09-.25.44a7.22,7.22,0,0,1-.65,1,4.48,4.48,0,0,1-.76.75,3.43,3.43,0,0,1-.88.48A2.72,2.72,0,0,1,297.47,83.71Zm1.51-5.6a1.17,1.17,0,0,0-.6.17,2.92,2.92,0,0,0-.61.48,4.77,4.77,0,0,0-.54.73,5.21,5.21,0,0,0-.44.92,5.33,5.33,0,0,0,.89-.09,2.53,2.53,0,0,0,.64-.21,2.09,2.09,0,0,0,.43-.25,2.53,2.53,0,0,0,.37-.36,2.43,2.43,0,0,0,.26-.44,1.64,1.64,0,0,0,.1-.49.67.67,0,0,0,0-.22.5.5,0,0,0-.1-.14l-.16-.08Z"/><path class="cls-2" d="M302.1,78h.7l-.75,2a10.29,10.29,0,0,1,.61-.94,5.69,5.69,0,0,1,.59-.66,2.51,2.51,0,0,1,.59-.39,1.68,1.68,0,0,1,.63-.12,1.18,1.18,0,0,1,.52.1,1,1,0,0,1,.38.26,1.2,1.2,0,0,1,.22.4,1.45,1.45,0,0,1,.08.47,2.1,2.1,0,0,1-.09.58,6.14,6.14,0,0,1-.2.66c-.08.22-.16.45-.25.68s-.18.44-.26.66-.15.41-.2.59a2,2,0,0,0-.09.48.69.69,0,0,0,.18.49.72.72,0,0,0,.56.19,1.37,1.37,0,0,0,.59-.13,2.39,2.39,0,0,0,.59-.42,4.78,4.78,0,0,0,.59-.69,11.07,11.07,0,0,0,.61-1l.25-.44.13.09-.25.44c-.23.39-.45.74-.66,1a4.85,4.85,0,0,1-.63.74,2.25,2.25,0,0,1-.64.43,1.65,1.65,0,0,1-.69.15,1.38,1.38,0,0,1-.52-.09,1.32,1.32,0,0,1-.38-.25,1.07,1.07,0,0,1-.22-.37,1.27,1.27,0,0,1-.08-.44,2.35,2.35,0,0,1,.08-.55c.06-.2.12-.41.2-.64s.17-.44.26-.67.18-.45.26-.67a6.16,6.16,0,0,0,.2-.61,1.78,1.78,0,0,0,.08-.52,1,1,0,0,0,0-.3.56.56,0,0,0-.13-.24.63.63,0,0,0-.23-.16.86.86,0,0,0-.34-.06,1.22,1.22,0,0,0-.58.15,1.94,1.94,0,0,0-.57.43,4.93,4.93,0,0,0-.59.71c-.2.29-.41.63-.63,1l-.25.44-1,2.71H300Z"/><path class="cls-2" d="M309.07,80.42l3,0-.17.44-3,0Z"/><path class="cls-2" d="M314.85,83.8a1.86,1.86,0,0,1-1.32-.45,1.8,1.8,0,0,1-.45-1.34,3.08,3.08,0,0,1,0-.51,4,4,0,0,1,.11-.56,5.07,5.07,0,0,1,.49-1.17,4,4,0,0,1,.72-.93,3.35,3.35,0,0,1,.87-.61,2.11,2.11,0,0,1,.93-.22,1.14,1.14,0,0,1,.75.23.77.77,0,0,1,.27.62,1.4,1.4,0,0,1-.1.45,1.49,1.49,0,0,1-.26.41,2.07,2.07,0,0,1-.41.36,2.77,2.77,0,0,1-.54.29,3.93,3.93,0,0,1-.82.23,5.22,5.22,0,0,1-1,.07,4.3,4.3,0,0,0-.22.8,4.81,4.81,0,0,0-.09.85,1.35,1.35,0,0,0,.28,1,1.15,1.15,0,0,0,.87.29,2.36,2.36,0,0,0,1-.18,4,4,0,0,0,.84-.5,5.22,5.22,0,0,0,.7-.71,7,7,0,0,0,.56-.82l.25-.43.13.09-.25.43a7.54,7.54,0,0,1-.65,1,4.48,4.48,0,0,1-.76.75,3.64,3.64,0,0,1-.88.49A3,3,0,0,1,314.85,83.8Zm1.52-5.6a1.31,1.31,0,0,0-.61.17,2.44,2.44,0,0,0-.6.49,4.32,4.32,0,0,0-.54.73,4.8,4.8,0,0,0-.44.91,4.59,4.59,0,0,0,.89-.08,3.2,3.2,0,0,0,.64-.21,2.14,2.14,0,0,0,.43-.26,1.8,1.8,0,0,0,.37-.36,1.73,1.73,0,0,0,.25-.44,1.19,1.19,0,0,0,.1-.49.58.58,0,0,0,0-.21.31.31,0,0,0-.11-.14.28.28,0,0,0-.15-.08A.64.64,0,0,0,316.37,78.2Zm.06-2.33a.29.29,0,0,1,.11-.11l.12,0a.23.23,0,0,1,.13,0,.3.3,0,0,1,.07.11c0,.11.06.22.1.33a1.81,1.81,0,0,0,.16.35,1.79,1.79,0,0,0,.28.35,2.52,2.52,0,0,0,.45.35l0,0-.05,0,0,.06a2.82,2.82,0,0,1-.44-.26,2.25,2.25,0,0,1-.36-.34,1.54,1.54,0,0,1-.31-.47c-.15.16-.31.31-.47.45l-.23.17-.25.17a1.51,1.51,0,0,1-.28.15,1.53,1.53,0,0,1-.27.11s0,0,0,0l0,0-.08-.06a4.12,4.12,0,0,0,.54-.31,3,3,0,0,0,.37-.31,2.26,2.26,0,0,0,.28-.35A4.62,4.62,0,0,0,316.43,75.87Z"/><path class="cls-2" d="M318.09,78.11h1.39l.45-1.24h.71l-.46,1.24h1.42v.19h-1.49L319,81.43c0,.13-.09.25-.13.38l-.12.38c0,.13-.06.25-.08.36a1.91,1.91,0,0,0,0,.32.79.79,0,0,0,.17.52.7.7,0,0,0,.54.2,2,2,0,0,0,.68-.13,2.24,2.24,0,0,0,.66-.41,3.92,3.92,0,0,0,.64-.69,7.73,7.73,0,0,0,.65-1l.25-.43.12.09-.24.43a9.89,9.89,0,0,1-.74,1.12,4,4,0,0,1-.69.72,2.18,2.18,0,0,1-1.44.52,1.36,1.36,0,0,1-.51-.09,1.05,1.05,0,0,1-.37-.25,1.07,1.07,0,0,1-.22-.39,1.6,1.6,0,0,1-.08-.51,2.61,2.61,0,0,1,.06-.53,3.9,3.9,0,0,1,.18-.62l1.16-3.12h-1.32Z"/><path class="cls-2" d="M325.92,78.49a.2.2,0,0,0-.09-.15.41.41,0,0,0-.28-.08.88.88,0,0,0-.42.11,2.07,2.07,0,0,0-.51.41,6.93,6.93,0,0,0-.64.79c-.23.34-.5.77-.8,1.29l-.24.42L322,83.75h-.71l2.08-5.6h.7l-.84,2.27q.39-.66.72-1.11a4.88,4.88,0,0,1,.6-.73,1.91,1.91,0,0,1,.52-.39,1.06,1.06,0,0,1,.47-.12.66.66,0,0,1,.49.19.65.65,0,0,1,.18.48,2,2,0,0,1,0,.24.56.56,0,0,1-.09.19.86.86,0,0,1-.14.13.41.41,0,0,1-.19,0l-.15,0-.13-.07a.38.38,0,0,1-.09-.13.27.27,0,0,1,0-.16.5.5,0,0,1,0-.16.61.61,0,0,1,.07-.14.38.38,0,0,1,.12-.09.23.23,0,0,1,.14,0h.1l0,0h0S325.92,78.53,325.92,78.49Z"/><path class="cls-2" d="M328.58,83.87a1.82,1.82,0,0,1-1.32-.45,1.79,1.79,0,0,1-.46-1.34c0-.16,0-.33,0-.51s.07-.36.12-.55a4.59,4.59,0,0,1,.49-1.18,4.16,4.16,0,0,1,.71-.93,3.35,3.35,0,0,1,.87-.61,2.14,2.14,0,0,1,.94-.21,1.13,1.13,0,0,1,.74.22.77.77,0,0,1,.27.63,1.12,1.12,0,0,1-.09.44,1.36,1.36,0,0,1-.26.41,3,3,0,0,1-.41.37,2.74,2.74,0,0,1-.54.28,3.4,3.4,0,0,1-.82.23,6.18,6.18,0,0,1-1,.08,4.2,4.2,0,0,0-.22.79,4,4,0,0,0-.09.85,1.32,1.32,0,0,0,.28,1,1.12,1.12,0,0,0,.87.3,2.37,2.37,0,0,0,.95-.19,3.34,3.34,0,0,0,.83-.5,4.34,4.34,0,0,0,.71-.71,6.91,6.91,0,0,0,.56-.81L332,81l.12.09-.25.44a7.17,7.17,0,0,1-.64,1,4.81,4.81,0,0,1-.76.74,3.64,3.64,0,0,1-.88.49A2.6,2.6,0,0,1,328.58,83.87Zm1.52-5.59a1.11,1.11,0,0,0-.61.17,2.39,2.39,0,0,0-.6.48,4.22,4.22,0,0,0-.55.73,7.13,7.13,0,0,0-.44.92,5.21,5.21,0,0,0,.89-.09,3.1,3.1,0,0,0,.65-.21,1.76,1.76,0,0,0,.43-.26,2,2,0,0,0,.36-.35,2.21,2.21,0,0,0,.26-.44,1.24,1.24,0,0,0,.1-.5.46.46,0,0,0,0-.21.36.36,0,0,0-.1-.14.4.4,0,0,0-.16-.08A.58.58,0,0,0,330.1,78.28Z"/><path class="cls-1" d="M55.64,92.63h-5a10.68,10.68,0,0,1-10.49-8.85c-.35,0-.7-.11-1-.17a11.69,11.69,0,0,0,11.53,10h4.58l1.93,1.88c0-.44,0-.88.08-1.32Z"/><path class="cls-1" d="M25,65.5a24.56,24.56,0,0,1,5.13-15.13l.08-.1,0-.14a24.83,24.83,0,0,1,21.54-21.4l.12,0,.11-.07a24.86,24.86,0,0,1,29.41.13l.11.08.13,0a24.82,24.82,0,0,1,21.46,21.56v.13l.08.11a24.61,24.61,0,0,1,4.91,14.83,25.14,25.14,0,0,1-.7,5.9l.86.66a26.1,26.1,0,0,0,.84-6.56,25.59,25.59,0,0,0-5-15.32A25.81,25.81,0,0,0,81.86,27.89a25.88,25.88,0,0,0-30.39-.14A25.85,25.85,0,0,0,29.21,49.87,25.54,25.54,0,0,0,24,65.5a26.12,26.12,0,0,0,.84,6.57l.86-.65A25.37,25.37,0,0,1,25,65.5Z"/><path class="cls-1" d="M83.12,92.28l-5.36,0-2,2.05c0,.45.06.9.07,1.35l2.38-2.41,4.95,0a11.74,11.74,0,0,0,11.26-9.76l-1,.17A10.75,10.75,0,0,1,83.12,92.28Z"/><path class="cls-1" d="M74.21,95.91a10.66,10.66,0,0,1-15,.17l-.47-.45c-.22.25-.45.49-.68.74l.45.43a11.6,11.6,0,0,0,8.11,3.28h.09a11.58,11.58,0,0,0,8.21-3.46l.14-.15c-.23-.24-.46-.48-.68-.73Z"/><path class="cls-1" d="M96.89,57.78A10.6,10.6,0,0,1,100,65.23a10.92,10.92,0,0,1-.19,2.07c.32.12.64.23,1,.36a12.29,12.29,0,0,0,.24-2.43,11.63,11.63,0,0,0-3.42-8.16L95.73,55.2c-.13.34-.28.66-.43,1Z"/><path class="cls-1" d="M50.19,38.41H55.4L59,34.94a10.63,10.63,0,0,1,5.64-2.86c.32-.38.66-.76,1-1.12a11.6,11.6,0,0,0-7.35,3.26L55,37.42H50.18a11.72,11.72,0,0,0-10,6.08l1.06.17A10.68,10.68,0,0,1,50.19,38.41Z"/><path class="cls-1" d="M73.8,34.9l3.67,3.53,5.18-.11a10.73,10.73,0,0,1,9.21,5.33l1-.17a11.7,11.7,0,0,0-10.26-6.16l-4.77.1L74.5,34.18A11.67,11.67,0,0,0,67.4,31c.36.38.7.76,1,1.15A10.61,10.61,0,0,1,73.8,34.9Z"/><path class="cls-1" d="M103.05,80.59A24.84,24.84,0,0,1,81.64,102l-.13,0-.1.08a24.9,24.9,0,0,1-29.85,0l-.1-.08-.13,0A25,25,0,0,1,30.21,80.9l0-.14-.08-.1s0,0,0,0c-.69-.35-1.37-.73-2-1.14.37.58.76,1.14,1.18,1.69A26,26,0,0,0,51.06,103a25.88,25.88,0,0,0,30.84,0A25.87,25.87,0,0,0,104,80.84c.33-.44.63-.9.92-1.35-.62.37-1.25.73-1.89,1.06Z"/><path class="cls-1" d="M33,65.77a10.58,10.58,0,0,1,3.14-7.64l1.69-1.68c-.15-.33-.31-.65-.44-1l-2,2A11.59,11.59,0,0,0,32,65.77a12.38,12.38,0,0,0,.19,1.94c.31-.13.63-.24.95-.36A10.42,10.42,0,0,1,33,65.77Z"/><path class="cls-1" d="M65.35,74.06l-.53-.49-.59-.5-.55-.46-.62-.48c-.18-.14-.37-.29-.56-.42s-.42-.3-.64-.45l-.58-.4-.66-.41c-.19-.13-.39-.25-.59-.37l-.68-.38-.61-.34L58,69l-.62-.3-.71-.32c-.21-.09-.42-.19-.64-.27l-.72-.28-.65-.25L54,67.34l-.66-.21-.75-.21c-.23-.06-.45-.13-.68-.18s-.51-.12-.77-.18l-.67-.15-.8-.14L49,66.16c-.28,0-.56-.08-.85-.11L47.49,66l-1-.08-.54,0c-.5,0-1,0-1.51,0h-.2a30.82,30.82,0,0,0-8,1,30.31,30.31,0,0,0-3.1,1l-.94.37a31,31,0,0,0-6.49,3.71c-.29.21-.57.44-.85.66-.8.65-1.59,1.32-2.33,2a30.57,30.57,0,0,0,4.89,3.92c.63.42,1.27.8,1.93,1.16a30.64,30.64,0,0,0,6.92,2.81c.89.24,1.79.42,2.7.58.34.06.68.13,1,.17a28.87,28.87,0,0,0,4.15.31l.66-.62.42-.4.88-.76.28-.25c.39-.32.79-.64,1.2-.94l.38-.27.86-.61.49-.31.78-.5.55-.32c.25-.15.5-.3.76-.44l.59-.3.75-.38.62-.28.75-.34.64-.26.76-.29.66-.23.77-.26.67-.2.78-.22.69-.16q.39-.1.78-.18l.7-.14.79-.14.72-.1.79-.11.73-.07.79-.06.75,0,.48,0Z"/><path class="cls-1" d="M64.64,74.93l-.78.06-.72.06-.76.1-.72.1-.75.13-.72.13-.75.18-.69.16c-.47.12-.93.25-1.4.39l-.61.2c-.26.09-.53.17-.79.27s-.41.16-.62.24l-.75.29-.62.27-.73.33-.61.31-.71.36c-.2.1-.39.22-.59.33l-.7.4-.57.35-.68.44c-.19.12-.38.26-.56.39l-.66.46-.54.42c-.22.16-.43.33-.64.5s-.35.29-.52.44-.42.35-.63.54l-.5.46-.35.34a30.88,30.88,0,0,0,21-8.7l-.64,0Z"/><path class="cls-1" d="M66.77,75.33a30.9,30.9,0,0,0,8,19.94l.53-.54A30.81,30.81,0,0,0,66.77,75.33Z"/><path class="cls-1" d="M75.26,94.73l-.53.54.59.64C75.31,95.52,75.29,95.12,75.26,94.73Z"/><path class="cls-1" d="M66.25,75.33a30.87,30.87,0,0,0-8.54,19.31l.67.64A30.83,30.83,0,0,0,66.25,75.33Z"/><path class="cls-1" d="M57.71,96c.23-.24.45-.49.67-.74l-.67-.64C57.68,95.08,57.71,96,57.71,96Z"/><path class="cls-1" d="M108.08,72.58l-.85-.67a30.57,30.57,0,0,0-6.57-3.75l-.94-.37a29.94,29.94,0,0,0-3-1,30.77,30.77,0,0,0-8-1h-.09c-.5,0-1,0-1.5,0l-.56,0-.94.07-.65.08-.83.1-.67.12-.79.13-.69.16-.76.16-.7.19-.72.2-.7.22-.71.24-.68.25L77,68l-.67.29c-.23.1-.46.19-.69.3l-.64.31c-.23.11-.46.22-.68.34l-.63.35L73,70l-.61.38c-.22.13-.44.26-.65.4l-.59.41-.64.43L70,72l-.61.48-.55.45-.6.51-.53.48-.47.44.51,0,.72,0,.81.07.72.06.81.1.71.11.79.13L73,75q.39.08.78.18l.69.16.77.22.69.2.75.25.68.23.74.29.67.26.73.33.64.29.72.37c.21.1.42.2.63.32l.71.4.6.35.72.45.56.36.77.55.47.33c.41.3.81.62,1.2.94l.39.33c.26.22.52.44.77.67l.48.46.61.58a31.89,31.89,0,0,0,4.68-.39l1-.17c.73-.14,1.46-.3,2.19-.5a30.87,30.87,0,0,0,6.93-2.8c.66-.37,1.3-.75,1.93-1.16a30.91,30.91,0,0,0,4.87-3.91C109.66,73.9,108.88,73.23,108.08,72.58Z"/><path class="cls-1" d="M93.14,43.94l-1,.18a30.74,30.74,0,0,0-9.83,3.62,31.12,31.12,0,0,0-6.38,4.88c-.36.37-.72.74-1.06,1.12l-.35.39c-.22.25-.44.5-.65.76l-.41.51c-.18.23-.36.45-.53.68l-.4.57-.48.67c-.13.19-.25.39-.37.58s-.3.46-.44.69l-.35.61c-.13.23-.27.46-.39.69s-.22.43-.33.64-.24.46-.35.69-.2.44-.3.66-.22.47-.32.71-.18.45-.26.67-.2.48-.29.73-.15.45-.23.67-.17.5-.24.75-.14.46-.2.69-.15.5-.21.75-.11.47-.17.7-.12.51-.17.77-.09.47-.13.71-.1.52-.14.78l-.09.71c0,.27-.07.53-.1.8s0,.47-.07.71,0,.54-.05.81,0,.48,0,.72,0,.36,0,.54l.66-.61.37-.34c.3-.27.61-.52.92-.77l.24-.21c.35-.28.7-.55,1.06-.81l.14-.11c.39-.28.79-.56,1.2-.83l0,0A31.35,31.35,0,0,1,81,66.18l.12,0c.44-.1.89-.21,1.35-.3l.51-.09c.33-.05.65-.12,1-.16s.43-.06.64-.08l.87-.11.69,0,.83-.07.71,0,.77,0a31.77,31.77,0,0,0,4.91-6.39,29.87,29.87,0,0,0,1.52-3c.15-.33.29-.66.42-1a30.9,30.9,0,0,0,2.21-11.23A32.38,32.38,0,0,0,93.14,43.94Z"/><path class="cls-1" d="M66.21,72.89c0-.27,0-.54-.06-.81l-.06-.71c0-.27-.06-.54-.1-.8l-.09-.71c0-.26-.09-.53-.14-.79s-.08-.47-.13-.7-.11-.52-.17-.79-.11-.45-.16-.67-.15-.53-.22-.79-.12-.44-.19-.66-.17-.52-.25-.78-.15-.43-.22-.64l-.3-.77c-.08-.21-.16-.42-.25-.63s-.22-.5-.33-.76-.18-.4-.28-.61-.25-.49-.37-.74-.2-.4-.31-.59-.27-.49-.41-.74l-.33-.57c-.15-.24-.31-.48-.46-.73L61,57.36c-.17-.25-.34-.49-.52-.73s-.23-.34-.36-.5-.38-.5-.58-.75l-.35-.45c-.22-.27-.45-.53-.68-.79l-.32-.37c-.35-.38-.7-.75-1.06-1.11A31,31,0,0,0,41,44.13L40,44a33.42,33.42,0,0,0-4.48-.37,31.34,31.34,0,0,0,2.31,11.51c.14.33.29.65.43,1a30.48,30.48,0,0,0,1.42,2.79,30.91,30.91,0,0,0,5,6.45l.79,0,.69,0c.3,0,.59,0,.88.07l.65,0,1,.12.54.07c.47.07.92.16,1.38.25l.5.1,1.08.25.6.17.85.23.66.22.77.26.65.25c.25.09.5.18.75.29L57,68l.73.32.64.32c.23.12.47.23.7.36l.63.35.68.38.62.39.66.41.6.42c.21.15.43.29.64.45l.57.44.63.49.56.46.6.53.54.49.46.43c0-.2,0-.4,0-.59Z"/><path class="cls-1" d="M74.41,44.47A31.05,31.05,0,0,0,67.69,32c-.33-.36-.66-.72-1-1.07l-.18-.2-.17.19c-.33.34-.65.69-1,1a30.91,30.91,0,0,0-7.79,20.41l.08.08c.53.54,1,1.1,1.53,1.67l.25.29c.49.58,1,1.18,1.39,1.79l.26.37c.44.62.86,1.26,1.25,1.91l.09.16c.37.63.71,1.27,1,1.92a3.59,3.59,0,0,0,.17.34c.32.67.62,1.35.89,2l.17.42c.26.71.51,1.42.73,2.15l.06.2c.2.69.38,1.4.53,2.11,0,.12.06.24.08.36.15.73.28,1.47.38,2.22l0,.21c0-.07,0-.14,0-.21.1-.75.22-1.5.37-2.23a3.59,3.59,0,0,1,.08-.35c.16-.72.33-1.43.54-2.13,0-.06,0-.13,0-.19.22-.73.47-1.45.74-2.16.06-.14.11-.27.16-.41.28-.7.58-1.38.91-2l.16-.33c.33-.66.68-1.3,1-1.94l.09-.15c.39-.66.81-1.29,1.25-1.92l.26-.37c.45-.61.91-1.21,1.4-1.79l.25-.29c.49-.57,1-1.13,1.53-1.67l.08-.09A30.77,30.77,0,0,0,74.41,44.47Z"/><path class="cls-1" d="M87.68,83.22c-.17-.16-.34-.32-.52-.47s-.41-.36-.61-.54L86,81.77l-.64-.5-.54-.41c-.22-.16-.44-.32-.67-.47s-.36-.26-.55-.38-.47-.3-.7-.45l-.55-.34-.75-.43-.53-.29c-.27-.15-.55-.28-.82-.42l-.5-.25c-.31-.15-.63-.28-1-.42l-.39-.18c-.91-.37-1.84-.71-2.78-1l-.45-.12c-.32-.1-.64-.19-1-.27l-.55-.13-.89-.2c-.2-.05-.41-.08-.61-.11l-.85-.16-.65-.08-.83-.11L69.18,75l-.83-.06-.68,0h-.56A30.83,30.83,0,0,0,88,83.55Z"/></svg>