<svg id="Layer_3" enable-background="new 0 0 64 64" height="512" viewBox="0 0 64 64" width="512" xmlns="http://www.w3.org/2000/svg"><g><path d="m62 57h-1v-37c0-.552-.448-1-1-1h-3v-7c0-.552-.448-1-1-1h-11v-9c0-.552-.448-1-1-1h-24c-.552 0-1 .448-1 1v9h-11c-.552 0-1 .448-1 1v7h-3c-.552 0-1 .448-1 1v37h-1c-.552 0-1 .448-1 1v4c0 .552.448 1 1 1h60c.552 0 1-.448 1-1v-4c0-.552-.448-1-1-1zm-15 0v-20h12v20zm-12 0h-6v-5c0-1.654 1.346-3 3-3s3 1.346 3 3zm-3-10c-2.757 0-5 2.243-5 5v5h-4v-20h18v20h-4v-5c0-2.757-2.243-5-5-5zm27-12h-12v-8h12zm-14 0h-12v-8h12zm-14 0h-12v-8h12zm-14 0h-12v-8h12zm4 2v20h-2v-20zm22 0h2v20h-2zm12-24v6h-10v-6zm-34-10h22v18h-22zm-12 10h10v6h-10zm10 8v1c0 .552.448 1 1 1h24c.552 0 1-.448 1-1v-1h14v4h-54v-4zm-14 16h12v20h-12zm56 24h-58v-2h58z"/><path d="m14 41h-6c-.552 0-1 .448-1 1v12c0 .552.448 1 1 1h6c.552 0 1-.448 1-1v-12c0-.552-.448-1-1-1zm-1 2v4h-4v-4zm-4 10v-4h4v4z"/><path d="m56 41h-6c-.552 0-1 .448-1 1v12c0 .552.448 1 1 1h6c.552 0 1-.448 1-1v-12c0-.552-.448-1-1-1zm-1 2v4h-4v-4zm-4 10v-4h4v4z"/><path d="m38 9h-3v-3c0-.552-.448-1-1-1h-4c-.552 0-1 .448-1 1v3h-3c-.552 0-1 .448-1 1v4c0 .552.448 1 1 1h3v3c0 .552.448 1 1 1h4c.552 0 1-.448 1-1v-3h3c.552 0 1-.448 1-1v-4c0-.552-.448-1-1-1zm-1 4h-3c-.552 0-1 .448-1 1v3h-2v-3c0-.552-.448-1-1-1h-3v-2h3c.552 0 1-.448 1-1v-3h2v3c0 .552.448 1 1 1h3z"/><path d="m39 44v-4c0-.552-.448-1-1-1h-12c-.552 0-1 .448-1 1v4c0 .552.448 1 1 1h12c.552 0 1-.448 1-1zm-2-1h-10v-2h10z"/></g></svg>